<svg id="Layer_1" data-name="Layer 1" xmlns="http://www.w3.org/2000/svg" xmlns:xlink="http://www.w3.org/1999/xlink" viewBox="0 0 2560 910"><defs><style>.cls-1{fill:none;}.cls-2{clip-path:url(#clip-path);}.cls-3{fill:#d4f0eb;}.cls-4{fill:#b1cdc7;}.cls-5{fill:#b6dec2;}.cls-6{fill:#d8ecd1;}.cls-7{fill:#fffcde;}.cls-8{fill:#fcfbe6;}.cls-9{fill:#cdd8b1;}.cls-10{fill:#ac8558;}.cls-11{fill:#95a073;}.cls-12{fill:#c59966;}.cls-13{fill:#1d1d1b;}.cls-14{fill:#b88a5c;}.cls-15{fill:#c4cea9;}.cls-16{fill:#e2edc1;}.cls-17{fill:#aab0b6;}.cls-18{fill:#3c3c3b;}.cls-19{fill:#2d2d2c;}.cls-20{fill:#6f6f6e;}.cls-21{fill:#c6cdc7;}.cls-22{fill:#97b9a3;}.cls-23{fill:#27b59c;}.cls-24{fill:#fffefe;}.cls-25{fill:#cd3a34;}.cls-26{fill:url(#linear-gradient);}.cls-27{fill:#fff;}.cls-28{fill:url(#linear-gradient-2);}.cls-29{fill:url(#linear-gradient-3);}.cls-30{fill:url(#linear-gradient-4);}.cls-31{fill:url(#linear-gradient-5);}.cls-32{fill:url(#linear-gradient-6);}</style><clipPath id="clip-path"><rect class="cls-1" width="2560" height="910"/></clipPath><linearGradient id="linear-gradient" x1="1015.85" y1="798.6" x2="1160.73" y2="798.6" gradientUnits="userSpaceOnUse"><stop offset="0" stop-color="#42b584"/><stop offset="1" stop-color="#25a8ae"/></linearGradient><linearGradient id="linear-gradient-2" x1="1164.12" y1="452.14" x2="1309" y2="452.14" xlink:href="#linear-gradient"/><linearGradient id="linear-gradient-3" x1="461.13" y1="798.6" x2="606" y2="798.6" xlink:href="#linear-gradient"/><linearGradient id="linear-gradient-4" x1="312.86" y1="452.14" x2="457.73" y2="452.14" xlink:href="#linear-gradient"/><linearGradient id="linear-gradient-5" x1="535.82" y1="143.02" x2="680.69" y2="143.02" xlink:href="#linear-gradient"/><linearGradient id="linear-gradient-6" x1="941.16" y1="143.02" x2="1086.04" y2="143.02" xlink:href="#linear-gradient"/></defs><title>BannerImage</title><g class="cls-2"><rect id="_Rectangle_" data-name="&lt;Rectangle&gt;" class="cls-3" x="-1" y="1" width="2558.48" height="910"/><g id="_Group_" data-name="&lt;Group&gt;"><path id="_Path_" data-name="&lt;Path&gt;" class="cls-4" d="M845.9,824.85c-1.14-5.8-5.12-10.45-10.58-13.23,8.35-6.25,12.25-16.18,8.86-24.74-2.91-7.33-10.4-11.74-19-12.11.06-.11.13-.22.18-.33,6.32-12.44,2.89-26.87-7.68-32.25-6.88-3.49-15.07-2.26-21.69,2.43-.18-13.77-9.95-24.88-22-24.88-8.43,0-15.75,5.45-19.44,13.45-4.74-7.91-13.06-12.64-21.73-11.37-12,1.77-20.12,14.39-18.1,28.19,0,.17.07.34.1.5a23.42,23.42,0,0,0-14.66-2.33,29.47,29.47,0,0,0-5.37-.72c.07-.13.15-.24.21-.37,7.12-14,3.25-30.3-8.66-36.35-7.75-3.94-17-2.55-24.46,2.74-.2-15.53-11.22-28.05-24.78-28.05-9.51,0-17.75,6.15-21.93,15.16-5.34-8.91-14.72-14.26-24.49-12.82-13.55,2-22.69,16.22-20.4,31.78,0,.19.08.38.11.57-8.46-4.26-18.24-4.14-25.6,1.26a21.82,21.82,0,0,0-5.53,6A18.7,18.7,0,0,0,528,723.51c-7.92,0-14.8,5.12-18.27,12.64-4.45-7.43-12.27-11.88-20.42-10.68-11.3,1.66-18.92,13.52-17,26.5,0,.16.07.32.09.48-5.94-3-12.65-3.38-18.3-.74a19.56,19.56,0,0,0-9.6-11.5c-6.88-3.49-15.06-2.26-21.69,2.43-.18-13.77-9.94-24.88-22-24.88-8.43,0-15.74,5.46-19.44,13.45-4.74-7.91-13.05-12.64-21.73-11.37-12,1.77-20.12,14.39-18.09,28.19,0,.17.07.34.09.51-7.5-3.78-16.17-3.67-22.7,1.12-9.8,7.19-11.06,22.13-2.81,33.38.33.46.7.88,1,1.31A21.76,21.76,0,0,0,301,794a21.71,21.71,0,0,0-2.66-.28l.15-.27c5.16-10.16,2.35-22-6.28-26.34-5.62-2.85-12.31-1.85-17.72,2-.14-11.25-8.12-20.33-18-20.33-6.89,0-12.86,4.46-15.88,11-3.87-6.46-10.67-10.33-17.75-9.29-9.82,1.45-16.44,11.76-14.78,23,0,.14.06.27.08.41a19.36,19.36,0,0,0-10.67-2,20,20,0,0,0-1-11.19c-3.27-8.26-11.73-13.23-21.44-13.65.07-.13.14-.24.21-.37,7.12-14,3.25-30.3-8.66-36.35-7.75-3.94-17-2.55-24.46,2.74C142,697.53,131,685,117.42,685c-9.51,0-17.75,6.15-21.92,15.16-5.34-8.91-14.72-14.26-24.5-12.82-13.55,2-22.68,16.22-20.4,31.78,0,.2.08.38.11.57-8.46-4.26-18.24-4.14-25.6,1.26-10.9,8-12.41,24.48-3.52,37.1-10.85-.75-21,4.34-25.2,13.69-4.49,10-.89,21.75,8,29.39l-.22,0c-15.59,2.05-26.79,14.73-25,28.31,1,7.37,5.58,13.47,12.06,17.21-10,7.29-14.5,19.54-10.13,30.08A23,23,0,0,0-6.1,889.1a22.33,22.33,0,0,0,1.19,13c4.28,10.31,15.73,15.77,27.68,14.17H181.56a21.91,21.91,0,0,0,6.4.07h12.76a30.34,30.34,0,0,0,6.64,0h109a21,21,0,0,0,11.48-1.61,26.2,26.2,0,0,0,14.9,1.27h97.87a25.06,25.06,0,0,0,8.49.31h83.05a30,30,0,0,0,10.3.39H719.66a30.19,30.19,0,0,0,9-.14c29.87-.11,72.86-.26,80.85-.26,12.47,0,24.2,0,28.47-10.23,3.18-7.65,1.09-16.33-4.65-22.78,6.38-3.22,11-8.93,11.89-15.91,1.09-8.3-3.29-16.22-10.64-20.94C842.78,841.65,847.54,833.24,845.9,824.85Z"/><path id="_Path_2" data-name="&lt;Path&gt;" class="cls-4" d="M1332.29,824.85c-1.14-5.8-5.12-10.45-10.58-13.23,8.35-6.25,12.25-16.18,8.86-24.74-2.91-7.33-10.4-11.74-19-12.11.06-.11.13-.22.18-.33,6.32-12.44,2.89-26.87-7.68-32.25-6.88-3.49-15.07-2.26-21.69,2.43-.18-13.77-9.95-24.88-22-24.88-8.43,0-15.75,5.45-19.44,13.45-4.74-7.91-13.06-12.64-21.73-11.37-12,1.77-20.12,14.39-18.1,28.19,0,.17.07.34.1.5a23.42,23.42,0,0,0-14.66-2.33,29.47,29.47,0,0,0-5.37-.72c.07-.13.15-.24.21-.37,7.12-14,3.25-30.3-8.66-36.35-7.75-3.94-17-2.55-24.46,2.74-.2-15.53-11.22-28.05-24.78-28.05-9.51,0-17.75,6.15-21.93,15.16-5.34-8.91-14.72-14.26-24.49-12.82-13.55,2-22.69,16.22-20.4,31.78,0,.19.08.38.11.57-8.46-4.26-18.24-4.14-25.6,1.26a21.82,21.82,0,0,0-5.53,6,18.7,18.7,0,0,0-11.27-3.85c-7.92,0-14.8,5.12-18.27,12.64-4.45-7.43-12.27-11.88-20.42-10.68-11.3,1.66-18.92,13.52-17,26.5,0,.16.07.32.09.48-5.94-3-12.65-3.38-18.3-.74a19.56,19.56,0,0,0-9.6-11.5c-6.88-3.49-15.06-2.26-21.69,2.43-.18-13.77-9.94-24.88-22-24.88-8.43,0-15.74,5.46-19.44,13.45C863,723.3,854.72,718.56,846,719.84,834,721.61,825.93,734.23,828,748c0,.17.07.34.09.51-7.5-3.78-16.17-3.67-22.7,1.12-9.8,7.19-11.06,22.13-2.81,33.38.33.46.7.88,1,1.31A21.76,21.76,0,0,0,787.4,794a21.71,21.71,0,0,0-2.66-.28l.15-.27c5.16-10.16,2.35-22-6.28-26.34-5.62-2.85-12.31-1.85-17.72,2-.14-11.25-8.12-20.33-18-20.33-6.89,0-12.86,4.46-15.88,11-3.87-6.46-10.67-10.33-17.75-9.29-9.82,1.45-16.44,11.76-14.78,23,0,.14.06.27.08.41a19.36,19.36,0,0,0-10.67-2,20,20,0,0,0-1-11.19c-3.27-8.26-11.73-13.23-21.44-13.65.07-.13.14-.24.21-.37,7.12-14,3.25-30.3-8.66-36.35-7.75-3.94-17-2.55-24.46,2.74-.2-15.53-11.21-28.05-24.78-28.05-9.51,0-17.75,6.15-21.92,15.16-5.34-8.91-14.72-14.26-24.5-12.82-13.55,2-22.68,16.22-20.4,31.78,0,.2.08.38.11.57-8.46-4.26-18.24-4.14-25.6,1.26-10.9,8-12.41,24.48-3.52,37.1-10.85-.75-21,4.34-25.2,13.69-4.49,10-.89,21.75,8,29.39l-.22,0c-15.59,2.05-26.79,14.73-25,28.31,1,7.37,5.58,13.47,12.06,17.21-10,7.29-14.5,19.54-10.13,30.08a23,23,0,0,0,12.77,12.35,22.33,22.33,0,0,0,1.19,13c4.28,10.31,15.73,15.77,27.68,14.17H668a21.91,21.91,0,0,0,6.4.07h12.76a30.34,30.34,0,0,0,6.64,0h109a21,21,0,0,0,11.48-1.61,26.2,26.2,0,0,0,14.9,1.27H927a25.06,25.06,0,0,0,8.49.31h83.05a30,30,0,0,0,10.3.39H1206a30.19,30.19,0,0,0,9-.14c29.87-.11,72.86-.26,80.85-.26,12.47,0,24.2,0,28.47-10.23,3.18-7.65,1.09-16.33-4.65-22.78,6.38-3.22,11-8.93,11.89-15.91,1.09-8.3-3.29-16.22-10.64-20.94C1329.17,841.65,1333.93,833.24,1332.29,824.85Z"/><path id="_Compound_Path_" data-name="&lt;Compound Path&gt;" class="cls-4" d="M2615.83,882.92a17,17,0,0,0,8.32-12.22c1.16-8.85-5.29-17.15-14.82-19.82,7.48-3.81,12-11.1,10.53-18.39-1.71-8.74-11.3-14.29-21.85-12.95,4.15-4.9,5.72-11.16,3.52-16.71-2.37-6-8.5-9.59-15.53-9.89l.15-.27c5.16-10.16,2.36-22-6.28-26.34-5.62-2.85-12.31-1.85-17.72,2-.15-11.25-8.13-20.33-18-20.33-6.89,0-12.87,4.46-15.88,11-3.88-6.46-10.67-10.33-17.75-9.29-9.82,1.45-16.44,11.76-14.78,23,0,.14.06.28.08.41-6.13-3.09-13.21-3-18.55.92-7.9,5.79-9,17.74-2.55,26.88a19.22,19.22,0,0,0-15.09,5.31,27,27,0,0,0-12.16-1.18c4.78-5.64,6.58-12.84,4-19.23-2.73-6.89-9.78-11-17.88-11.38l.18-.31c5.94-11.69,2.71-25.26-7.22-30.31-6.46-3.28-14.15-2.13-20.39,2.28-.17-12.95-9.35-23.39-20.66-23.39-7.93,0-14.8,5.12-18.27,12.64-4.45-7.43-12.27-11.88-20.42-10.69-11.3,1.66-18.91,13.53-17,26.5,0,.16.06.32.09.48a21.35,21.35,0,0,0-16.54-1.46,19.12,19.12,0,0,0-8.55-8.91c-6.88-3.49-15.06-2.26-21.69,2.43-.18-13.77-9.95-24.88-22-24.88-8.43,0-15.75,5.45-19.44,13.45-4.74-7.91-13.06-12.64-21.73-11.37-12,1.77-20.12,14.39-18.09,28.19,0,.17.07.34.1.51a23.19,23.19,0,0,0-15.54-2.14c.11-11.45-7.06-21.29-17.27-22.79-8.15-1.2-16,3.25-20.42,10.69-3.47-7.52-10.35-12.64-18.27-12.64-11.32,0-20.5,10.44-20.67,23.39-6.23-4.41-13.93-5.57-20.39-2.28-9.93,5-13.16,18.62-7.22,30.31l.18.31c-8.1.34-15.15,4.49-17.88,11.38a16.35,16.35,0,0,0-1.15,6.16c-5.53-6.7-15.36-10.37-25.9-9,5.74-6.76,7.89-15.4,4.85-23.06-3.28-8.26-11.73-13.23-21.44-13.65.06-.13.14-.24.21-.37,7.13-14,3.25-30.29-8.66-36.35-7.75-3.94-17-2.55-24.46,2.74-.2-15.53-11.22-28.05-24.78-28.05-9.51,0-17.75,6.15-21.93,15.16-5.34-8.92-14.72-14.26-24.49-12.82-13.55,2-22.68,16.22-20.4,31.78,0,.2.08.38.12.57-8.46-4.26-18.24-4.14-25.6,1.26-10.9,8-12.41,24.48-3.53,37.1-10.85-.75-21,4.34-25.19,13.69-4.49,10-.89,21.74,8,29.39l-.22,0c-15.59,2-26.79,14.72-25,28.31,1,7.37,5.58,13.47,12.06,17.21-10,7.29-14.51,19.54-10.13,30.08a23,23,0,0,0,12.77,12.35,22.31,22.31,0,0,0,1.19,13c4.28,10.31,15.73,15.77,27.68,14.17h177.19a30.31,30.31,0,0,0,8.49-.06,25.2,25.2,0,0,0,7.44.1h124.8v.23l24.36-.09a25.36,25.36,0,0,0,4.25,0c29.9-.11,73.58-.26,81.64-.26H2299a25.19,25.19,0,0,0,7.65.14h147.72a24.59,24.59,0,0,0,11.11-1,21.27,21.27,0,0,0,10.1,1H2604c8.66,1.16,17-2.8,20.06-10.27C2627.35,897.4,2623.7,888.11,2615.83,882.92Zm-547.24-77.85L2068,805c0-.23,0-.45,0-.68C2068.2,804.58,2068.39,804.83,2068.59,805.07Z"/><path id="_Compound_Path_2" data-name="&lt;Compound Path&gt;" class="cls-4" d="M1864,882.92a17,17,0,0,0,8.32-12.22c1.16-8.85-5.29-17.15-14.82-19.82,7.48-3.81,12-11.1,10.53-18.39-1.71-8.74-11.3-14.29-21.85-12.95,4.15-4.9,5.72-11.16,3.52-16.71-2.37-6-8.5-9.59-15.53-9.89l.15-.27c5.16-10.16,2.36-22-6.28-26.34-5.62-2.85-12.31-1.85-17.72,2-.15-11.25-8.13-20.33-18-20.33-6.89,0-12.87,4.46-15.88,11-3.88-6.46-10.67-10.33-17.75-9.29-9.82,1.45-16.44,11.76-14.78,23,0,.14.06.28.08.41-6.13-3.09-13.21-3-18.55.92-7.9,5.79-9,17.74-2.55,26.88a19.22,19.22,0,0,0-15.09,5.31,27,27,0,0,0-12.16-1.18c4.78-5.64,6.58-12.84,4-19.23-2.73-6.89-9.78-11-17.88-11.38l.18-.31c5.94-11.69,2.71-25.26-7.22-30.31-6.46-3.28-14.15-2.13-20.39,2.28-.17-12.95-9.35-23.39-20.66-23.39-7.93,0-14.8,5.12-18.27,12.64-4.45-7.43-12.27-11.88-20.42-10.69-11.3,1.66-18.91,13.53-17,26.5,0,.16.06.32.09.48a21.35,21.35,0,0,0-16.54-1.46,19.12,19.12,0,0,0-8.55-8.91c-6.88-3.49-15.06-2.26-21.69,2.43-.18-13.77-9.95-24.88-22-24.88-8.43,0-15.75,5.45-19.44,13.45-4.74-7.91-13.06-12.64-21.73-11.37-12,1.77-20.12,14.39-18.09,28.19,0,.17.07.34.1.51a23.19,23.19,0,0,0-15.54-2.14c.11-11.45-7.06-21.29-17.27-22.79-8.15-1.2-16,3.25-20.42,10.69-3.47-7.52-10.35-12.64-18.27-12.64-11.32,0-20.5,10.44-20.67,23.39-6.23-4.41-13.93-5.57-20.39-2.28-9.93,5-13.16,18.62-7.22,30.31l.18.31c-8.1.34-15.15,4.49-17.88,11.38a16.35,16.35,0,0,0-1.15,6.16c-5.53-6.7-15.36-10.37-25.9-9,5.74-6.76,7.89-15.4,4.85-23.06-3.28-8.26-11.73-13.23-21.44-13.65.06-.13.14-.24.21-.37,7.13-14,3.25-30.29-8.66-36.35-7.75-3.94-17-2.55-24.46,2.74-.2-15.53-11.22-28.05-24.78-28.05-9.51,0-17.75,6.15-21.93,15.16-5.34-8.92-14.72-14.26-24.49-12.82-13.55,2-22.68,16.22-20.4,31.78,0,.2.08.38.12.57-8.46-4.26-18.24-4.14-25.6,1.26-10.9,8-12.41,24.48-3.53,37.1-10.85-.75-21,4.34-25.19,13.69-4.49,10-.89,21.74,8,29.39l-.22,0c-15.59,2-26.79,14.72-25,28.31,1,7.37,5.58,13.47,12.06,17.21-10,7.29-14.51,19.54-10.13,30.08a23,23,0,0,0,12.77,12.35,22.31,22.31,0,0,0,1.19,13c4.28,10.31,15.73,15.77,27.68,14.17H1293.9a30.31,30.31,0,0,0,8.49-.06,25.2,25.2,0,0,0,7.44.1h124.8v.23l24.36-.09a25.36,25.36,0,0,0,4.25,0c29.9-.11,73.58-.26,81.64-.26h2.28a25.19,25.19,0,0,0,7.65.14h147.72a24.59,24.59,0,0,0,11.11-1,21.27,21.27,0,0,0,10.1,1h128.4c8.66,1.16,17-2.8,20.06-10.27C1875.48,897.4,1871.83,888.11,1864,882.92Zm-547.24-77.85-.59-.05c0-.23,0-.45,0-.68C1316.33,804.58,1316.52,804.83,1316.72,805.07Z"/></g><rect id="_Path_3" data-name="&lt;Path&gt;" class="cls-5" x="-19.57" y="854.4" width="2645.57" height="61.6"/><g id="_Group_2" data-name="&lt;Group&gt;"><circle id="_Path_4" data-name="&lt;Path&gt;" class="cls-6" cx="810.93" cy="432.41" r="422.9"/><circle id="_Path_5" data-name="&lt;Path&gt;" class="cls-7" cx="810.93" cy="432.41" r="288.73"/><circle id="_Path_6" data-name="&lt;Path&gt;" class="cls-8" cx="810.93" cy="432.41" r="156.79"/></g><g id="_Group_3" data-name="&lt;Group&gt;"><g id="_Group_4" data-name="&lt;Group&gt;"><g id="_Group_5" data-name="&lt;Group&gt;"><g id="_Group_6" data-name="&lt;Group&gt;"><path id="_Path_7" data-name="&lt;Path&gt;" class="cls-9" d="M661.3,617.37a92.94,92.94,0,0,0,92.84-92.84H729.86a68.56,68.56,0,1,1-137.13,0H568.46A92.94,92.94,0,0,0,661.3,617.37Z"/><rect id="_Path_8" data-name="&lt;Path&gt;" class="cls-10" x="568.46" y="486.15" width="24.45" height="39.44"/><rect id="_Rectangle_2" data-name="&lt;Rectangle&gt;" class="cls-11" x="558.93" y="507.86" width="43.33" height="22.05" transform="translate(1161.18 1037.78) rotate(-180)"/></g><rect id="_Rectangle_3" data-name="&lt;Rectangle&gt;" class="cls-12" x="797.73" y="458.3" width="26.39" height="66.23"/><rect id="_Path_9" data-name="&lt;Path&gt;" class="cls-13" x="770.11" y="300.31" width="81.64" height="102.09"/><path id="_Compound_Path_3" data-name="&lt;Compound Path&gt;" class="cls-13" d="M854.21,405.11H767.64a2.79,2.79,0,0,1-2.86-2.7V300.31a2.79,2.79,0,0,1,2.86-2.7h86.57a2.79,2.79,0,0,1,2.86,2.7V402.41A2.79,2.79,0,0,1,854.21,405.11Zm-83.71-5.4h80.84V303H770.51Z"/><path id="_Path_10" data-name="&lt;Path&gt;" class="cls-12" d="M875.7,376.44a17.81,17.81,0,1,1-35.62,0c0-9.84,17.91-27.76,27.75-27.76C875.7,348.68,875.7,349.1,875.7,376.44Z"/><path id="_Path_11" data-name="&lt;Path&gt;" class="cls-12" d="M746.16,376.44a17.81,17.81,0,1,0,35.62,0c0-9.84-17.91-27.76-27.75-27.76C746.16,348.68,746.16,349.1,746.16,376.44Z"/><path id="_Path_12" data-name="&lt;Path&gt;" class="cls-12" d="M830.7,475.17c-3.72,4.64-7.86,8.43-9.21,8.43h-12.2c-5.36,0-12.89-3.71-16.74-8.24l-15.18-17.89c-3.85-4.53-7-13.1-7-19V328.82A10.84,10.84,0,0,1,781.18,318h59.49a10.84,10.84,0,0,1,10.81,10.81V438.43c0,5.94-3,14.6-6.76,19.24Z"/><path id="_Path_13" data-name="&lt;Path&gt;" class="cls-14" d="M867.78,378.18a2.7,2.7,0,0,1-2.7-2.7V358a2.7,2.7,0,0,1,5.4,0v17.5A2.7,2.7,0,0,1,867.78,378.18Z"/><path id="_Path_14" data-name="&lt;Path&gt;" class="cls-14" d="M754.14,378.18a2.7,2.7,0,0,1-2.7-2.7V358a2.7,2.7,0,0,1,5.4,0v17.5A2.7,2.7,0,0,1,754.14,378.18Z"/><path id="_Path_15" data-name="&lt;Path&gt;" class="cls-14" d="M843.15,318h-6.43V467.66l9.37-11.76c3-3.49,5.39-13.14,5.39-20.61V326.35A8.36,8.36,0,0,0,843.15,318Z"/><path id="_Path_16" data-name="&lt;Path&gt;" class="cls-13" d="M815.18,369.43h-8.51a2.7,2.7,0,1,1,0-5.4h8.51a2.7,2.7,0,1,1,0,5.4Z"/><path id="_Path_17" data-name="&lt;Path&gt;" class="cls-13" d="M810.93,394.91a2.7,2.7,0,0,1-2.7-2.7v-10a2.7,2.7,0,0,1,5.4,0v10A2.7,2.7,0,0,1,810.93,394.91Z"/><path id="_Path_18" data-name="&lt;Path&gt;" class="cls-13" d="M810.93,436.42a14.1,14.1,0,0,1-14.09-14.09,2.7,2.7,0,0,1,5.4,0,8.68,8.68,0,1,0,17.37,0,2.7,2.7,0,0,1,5.4,0A14.1,14.1,0,0,1,810.93,436.42Z"/><path id="_Compound_Path_4" data-name="&lt;Compound Path&gt;" class="cls-13" d="M788.53,387a20.85,20.85,0,1,1,20.85-20.85A20.88,20.88,0,0,1,788.53,387Zm0-36.3A15.45,15.45,0,1,0,804,366.18,15.47,15.47,0,0,0,788.53,350.73Z"/><path id="_Compound_Path_5" data-name="&lt;Compound Path&gt;" class="cls-13" d="M833.33,387a20.85,20.85,0,1,1,20.85-20.85A20.88,20.88,0,0,1,833.33,387Zm0-36.3a15.45,15.45,0,1,0,15.45,15.45A15.47,15.47,0,0,0,833.33,350.73Z"/><path id="_Compound_Path_6" data-name="&lt;Compound Path&gt;" class="cls-13" d="M833.33,371.73a5,5,0,1,1,5-5A5,5,0,0,1,833.33,371.73Zm0-5.4a.41.41,0,1,0,.41.41A.41.41,0,0,0,833.33,366.33Z"/><path id="_Compound_Path_7" data-name="&lt;Compound Path&gt;" class="cls-13" d="M788.53,371.73a5,5,0,1,1,5-5A5,5,0,0,1,788.53,371.73Zm0-5.4a.41.41,0,1,0,.41.41A.41.41,0,0,0,788.53,366.33Z"/><g id="_Group_7" data-name="&lt;Group&gt;"><g id="_Group_8" data-name="&lt;Group&gt;"><path id="_Path_19" data-name="&lt;Path&gt;" class="cls-15" d="M600.82,679.17c85.27,0,154.64-69.37,154.64-154.63H729.32A128.64,128.64,0,0,1,600.82,653Z"/></g><g id="_Group_9" data-name="&lt;Group&gt;"><rect id="_Path_20" data-name="&lt;Path&gt;" class="cls-10" x="557.06" y="654.65" width="39.44" height="24.45"/><rect id="_Rectangle_4" data-name="&lt;Rectangle&gt;" class="cls-11" x="571.97" y="655.86" width="35.66" height="22.05" transform="translate(1256.68 77.08) rotate(90)"/></g></g><rect id="_Rectangle_5" data-name="&lt;Rectangle&gt;" class="cls-16" x="754.14" y="524.53" width="113.64" height="255.54"/><path id="_Compound_Path_8" data-name="&lt;Compound Path&gt;" class="cls-13" d="M811,754.3a2.7,2.7,0,0,1-2.7-2.7v-.16a2.7,2.7,0,0,1,5.4,0v.16A2.7,2.7,0,0,1,811,754.3Zm0-16.37a2.7,2.7,0,0,1-2.7-2.7v-.16a2.7,2.7,0,0,1,5.4,0v.16A2.7,2.7,0,0,1,811,737.93Zm0-16.37a2.7,2.7,0,0,1-2.7-2.7v-.16a2.7,2.7,0,0,1,5.4,0v.16A2.7,2.7,0,0,1,811,721.56Zm0-16.37a2.7,2.7,0,0,1-2.7-2.7v-.16a2.7,2.7,0,1,1,5.4,0v.16A2.7,2.7,0,0,1,811,705.19Zm0-16.37a2.7,2.7,0,0,1-2.7-2.7V686a2.7,2.7,0,0,1,5.4,0v.16A2.7,2.7,0,0,1,811,688.82Zm0-16.37a2.7,2.7,0,0,1-2.7-2.7v-.16a2.7,2.7,0,0,1,5.4,0v.16A2.7,2.7,0,0,1,811,672.44Zm0-16.37a2.7,2.7,0,0,1-2.7-2.7v-.16a2.7,2.7,0,1,1,5.4,0v.16A2.7,2.7,0,0,1,811,656.07Zm0-16.37a2.7,2.7,0,0,1-2.7-2.7v-.16a2.7,2.7,0,0,1,5.4,0V637A2.7,2.7,0,0,1,811,639.7Zm0-16.37a2.7,2.7,0,0,1-2.7-2.7v-.16a2.7,2.7,0,0,1,5.4,0v.16A2.7,2.7,0,0,1,811,623.33ZM811,607a2.7,2.7,0,0,1-2.7-2.7v-.16a2.7,2.7,0,0,1,5.4,0v.16A2.7,2.7,0,0,1,811,607Zm0-16.37a2.7,2.7,0,0,1-2.7-2.7v-.16a2.7,2.7,0,1,1,5.4,0v.16A2.7,2.7,0,0,1,811,590.59Zm0-16.37a2.7,2.7,0,0,1-2.7-2.7v-.16a2.7,2.7,0,0,1,5.4,0v.16A2.7,2.7,0,0,1,811,574.22Z"/><polygon id="_Path_21" data-name="&lt;Path&gt;" class="cls-11" points="829.59 524.53 810.93 562.37 792.27 524.53 829.59 524.53"/><rect id="_Rectangle_6" data-name="&lt;Rectangle&gt;" class="cls-17" x="661.48" y="780.07" width="149.66" height="46.07"/><g id="_Group_10" data-name="&lt;Group&gt;"><rect id="_Rectangle_7" data-name="&lt;Rectangle&gt;" class="cls-17" x="810.96" y="780.07" width="149.66" height="46.07"/><g id="_Group_11" data-name="&lt;Group&gt;"><rect id="_Rectangle_8" data-name="&lt;Rectangle&gt;" class="cls-18" x="820.33" y="770.68" width="46.09" height="64.83" transform="translate(40.28 1646.46) rotate(-90)"/><path id="_Path_22" data-name="&lt;Path&gt;" class="cls-19" d="M854,795.1V811.3a2.7,2.7,0,1,1-5.4,0V795.1a2.7,2.7,0,0,1,5.4,0Z"/><path id="_Path_23" data-name="&lt;Path&gt;" class="cls-19" d="M863.88,795.1V811.3a2.7,2.7,0,1,1-5.4,0V795.1a2.7,2.7,0,0,1,5.4,0Z"/></g></g><g id="_Group_12" data-name="&lt;Group&gt;"><rect id="_Rectangle_9" data-name="&lt;Rectangle&gt;" class="cls-20" x="755.51" y="770.68" width="46.08" height="64.83" transform="translate(1581.63 24.55) rotate(90)"/><path id="_Path_24" data-name="&lt;Path&gt;" class="cls-19" d="M767.89,811.3V795.09a2.7,2.7,0,0,1,5.4,0V811.3a2.7,2.7,0,0,1-5.4,0Z"/><path id="_Path_25" data-name="&lt;Path&gt;" class="cls-19" d="M758,811.3V795.09a2.7,2.7,0,0,1,5.4,0V811.3a2.7,2.7,0,0,1-5.4,0Z"/></g><g id="_Group_13" data-name="&lt;Group&gt;"><path id="_Path_26" data-name="&lt;Path&gt;" class="cls-9" d="M960.62,617.37a92.94,92.94,0,0,1-92.84-92.84h24.27a68.56,68.56,0,1,0,137.13,0h24.27A92.94,92.94,0,0,1,960.62,617.37Z"/><rect id="_Path_27" data-name="&lt;Path&gt;" class="cls-10" x="1029" y="486.15" width="24.45" height="39.44"/><rect id="_Rectangle_10" data-name="&lt;Rectangle&gt;" class="cls-11" x="1019.66" y="507.86" width="43.33" height="22.05"/></g><g id="_Group_14" data-name="&lt;Group&gt;"><g id="_Group_15" data-name="&lt;Group&gt;"><path id="_Path_28" data-name="&lt;Path&gt;" class="cls-15" d="M1022.41,679.17c-85.27,0-154.64-69.37-154.64-154.63h26.14A128.64,128.64,0,0,0,1022.41,653Z"/></g><g id="_Group_16" data-name="&lt;Group&gt;"><rect id="_Path_29" data-name="&lt;Path&gt;" class="cls-10" x="1026.74" y="654.65" width="39.44" height="24.45"/><rect id="_Rectangle_11" data-name="&lt;Rectangle&gt;" class="cls-11" x="1015.61" y="655.86" width="35.66" height="22.05" transform="translate(1700.32 -366.56) rotate(90)"/></g></g><g id="_Group_17" data-name="&lt;Group&gt;"><rect id="_Path_30" data-name="&lt;Path&gt;" class="cls-10" x="867.96" y="731.55" width="24.45" height="39.44"/><rect id="_Rectangle_12" data-name="&lt;Rectangle&gt;" class="cls-9" x="867.96" y="524.53" width="25.21" height="214.04" transform="translate(1761.13 1263.11) rotate(-180)"/><rect id="_Rectangle_13" data-name="&lt;Rectangle&gt;" class="cls-11" x="867.96" y="727.23" width="35.66" height="22.05" transform="translate(1771.58 1476.5) rotate(-180)"/></g><g id="_Group_18" data-name="&lt;Group&gt;"><rect id="_Path_31" data-name="&lt;Path&gt;" class="cls-10" x="729.69" y="731.55" width="24.45" height="39.44"/><rect id="_Rectangle_14" data-name="&lt;Rectangle&gt;" class="cls-9" x="728.93" y="524.53" width="25.21" height="214.04"/><rect id="_Rectangle_15" data-name="&lt;Rectangle&gt;" class="cls-11" x="718.48" y="727.23" width="35.66" height="22.05"/></g></g><ellipse id="_Path_32" data-name="&lt;Path&gt;" class="cls-21" cx="580.69" cy="479.69" rx="51.65" ry="8.26"/></g></g><ellipse id="_Path_33" data-name="&lt;Path&gt;" class="cls-22" cx="811.05" cy="884.29" rx="149.57" ry="4.67"/><g id="_Group_19" data-name="&lt;Group&gt;"><rect id="_Path_34" data-name="&lt;Path&gt;" class="cls-23" x="1017.32" y="417.04" width="48.72" height="83.56" rx="3.73" ry="3.73"/><rect id="_Rectangle_16" data-name="&lt;Rectangle&gt;" class="cls-24" x="1022.36" y="422.05" width="38.59" height="66.6"/><g id="_Group_20" data-name="&lt;Group&gt;"><rect id="_Path_35" data-name="&lt;Path&gt;" class="cls-25" x="1025.86" y="462.28" width="31.59" height="2.99" rx="0.33" ry="0.33"/><rect id="_Path_36" data-name="&lt;Path&gt;" class="cls-25" x="1029.63" y="456.66" width="24.04" height="2.99" rx="0.33" ry="0.33"/><rect id="_Path_37" data-name="&lt;Path&gt;" class="cls-25" x="1033.4" y="451.05" width="16.82" height="2.99" rx="0.33" ry="0.33"/><rect id="_Path_38" data-name="&lt;Path&gt;" class="cls-25" x="1036.86" y="445.43" width="9.9" height="2.99" rx="0.33" ry="0.33"/></g><circle id="_Path_39" data-name="&lt;Path&gt;" class="cls-24" cx="1041.68" cy="495.02" r="3.27"/></g><g id="_Group_21" data-name="&lt;Group&gt;"><circle id="_Path_40" data-name="&lt;Path&gt;" class="cls-26" cx="1088.29" cy="798.6" r="72.44"/><g id="_Group_22" data-name="&lt;Group&gt;"><path id="_Compound_Path_9" data-name="&lt;Compound Path&gt;" class="cls-27" d="M1057.84,839.45a1.63,1.63,0,0,1-1.63-1.63V764.66a1.63,1.63,0,0,1,2.28-1.5l.7.31c19.37,8.69,29.4,4.8,34.41,0,13.44-12.87,26.18-.09,26.3,0a1.63,1.63,0,0,1,.46,1.14v73a1.63,1.63,0,0,1-2.62,1.3l-5.27-4-2.64,3.66a1.63,1.63,0,0,1-1.25.67,1.65,1.65,0,0,1-1.31-.57l-3.09-3.59-3.15,3.6a1.67,1.67,0,0,1-1.25.56,1.63,1.63,0,0,1-1.23-.59l-3.13-3.78-5.11,4a1.63,1.63,0,0,1-2.12-.09l-4.4-4.08-5.54,4.19a1.63,1.63,0,0,1-2.12-.13l-3.82-3.73-2.76,3.56a1.63,1.63,0,0,1-2.45.15l-3.74-3.79-4.41,4A1.63,1.63,0,0,1,1057.84,839.45ZM1083.9,831a1.63,1.63,0,0,1,1.11.44l4.38,4.06,5.27-4.15a1.63,1.63,0,0,1,2.27.24l2.92,3.53,3.13-3.57a1.63,1.63,0,0,1,2.47,0l3,3.44,2.41-3.33a1.63,1.63,0,0,1,2.31-.34l4,3v-69c-2.16-1.93-11.35-9-21.24.48s-24.95,6.17-36.39,1.32V834.1l2.83-2.6a1.63,1.63,0,0,1,2.27.06l3.53,3.59,2.74-3.54a1.63,1.63,0,0,1,2.43-.17l4.13,4,5.51-4.16A1.63,1.63,0,0,1,1083.9,831Zm17-9.72h-3a1.63,1.63,0,1,1,0-3.26h3a1.63,1.63,0,1,1,0,3.26Zm-7.89,0h-6.86a1.63,1.63,0,1,1,0-3.26H1093a1.63,1.63,0,1,1,0,3.26Zm19.36-9.22h-26.44a1.63,1.63,0,0,1,0-3.26h26.44a1.63,1.63,0,1,1,0,3.26Zm-41.55-1.84a1.63,1.63,0,0,1-1.63-1.63v-1.65a13.7,13.7,0,0,1-3.63-1.22,1.63,1.63,0,0,1,1.5-2.9c.83.43,3.56,1.48,5.17.77a2.46,2.46,0,0,0,1.35-1.87c.47-1.8-.24-2.34-3.31-3.54-2.31-.9-5.47-2.14-5.59-5.62a4.89,4.89,0,0,1,1.94-4.48,5.58,5.58,0,0,1,2.57-.92V785.6a1.63,1.63,0,0,1,1.63-1.63h0a1.63,1.63,0,0,1,1.63,1.63v1.7a17.94,17.94,0,0,1,3.3.92,1.63,1.63,0,0,1-1.21,3c-1.81-.71-4.88-1.35-6.06-.52-.15.1-.6.42-.56,1.69s1.16,1.77,3.52,2.69c2.61,1,6.55,2.56,5.28,7.41a5.71,5.71,0,0,1-3.19,4,5.82,5.82,0,0,1-1.09.36v1.66A1.63,1.63,0,0,1,1070.84,810.21ZM1111.2,803h-25.26a1.63,1.63,0,0,1,0-3.26h25.26a1.63,1.63,0,0,1,0,3.26Zm0-9.22h-25.26a1.63,1.63,0,0,1,0-3.26h25.26a1.63,1.63,0,0,1,0,3.26Zm0-9.22h-25.26a1.63,1.63,0,0,1,0-3.26h25.26a1.63,1.63,0,0,1,0,3.26Z"/></g></g><g id="_Group_23" data-name="&lt;Group&gt;"><circle id="_Path_41" data-name="&lt;Path&gt;" class="cls-28" cx="1236.56" cy="452.14" r="72.44"/><g id="_Group_24" data-name="&lt;Group&gt;"><path id="_Compound_Path_10" data-name="&lt;Compound Path&gt;" class="cls-27" d="M1250.5,449.74a9.43,9.43,0,0,0-13.33,0l-.6.6-.6-.6a9.43,9.43,0,0,0-13.33,13.33l12.72,12.72a1.72,1.72,0,0,0,2.43,0l12.72-12.72A9.44,9.44,0,0,0,1250.5,449.74Zm-13.93,22.41-11.5-11.5a6,6,0,0,1,8.47-8.48l1.82,1.82a1.76,1.76,0,0,0,2.43,0l1.82-1.82a6.14,6.14,0,0,1,8.48,0,6,6,0,0,1,0,8.48Zm29.2,7.26V431.52a1.72,1.72,0,0,0-1.72-1.72h-15.46v-8.59a12,12,0,1,0-24,0v8.59h-15.46a1.72,1.72,0,0,0-1.72,1.72v47.89L1204,492.95a1.72,1.72,0,0,0,1.67,2.13h61.84a1.72,1.72,0,0,0,1.67-2.13ZM1228,421.21a8.59,8.59,0,0,1,17.18,0v8.59H1228Zm-20.13,70.43,2.9-11.61a1.69,1.69,0,0,0,.05-.42V433.24h51.53v46.38a1.69,1.69,0,0,0,.05.42l2.9,11.61Z"/></g></g><g id="_Group_25" data-name="&lt;Group&gt;"><circle id="_Path_42" data-name="&lt;Path&gt;" class="cls-29" cx="533.57" cy="798.6" r="72.44"/><path id="_Compound_Path_11" data-name="&lt;Compound Path&gt;" class="cls-27" d="M556.76,787a2.31,2.31,0,1,1,2.31,2.31A2.37,2.37,0,0,1,556.76,787Zm-2.31-6.94a2.31,2.31,0,1,0,2.31,2.31A2.37,2.37,0,0,0,554.44,780.1Zm9.25,4.63a2.31,2.31,0,1,0-2.31-2.31A2.37,2.37,0,0,0,563.7,784.72Zm-4.63-9.25a2.31,2.31,0,1,0,2.31,2.31A2.37,2.37,0,0,0,559.07,775.47ZM509,777a1.46,1.46,0,0,0-1.54,1.54v3.08h-3.08a1.54,1.54,0,0,0,0,3.08h3.08v3.08a1.54,1.54,0,0,0,3.08,0v-3.08h3.08a1.54,1.54,0,1,0,0-3.08h-3.08v-3.08A1.46,1.46,0,0,0,509,777Zm55.35,28.83a1.59,1.59,0,1,0-2.78-1.54,10.18,10.18,0,0,1-8.63,5.09,10,10,0,0,1-10-10,1.54,1.54,0,1,0-3.08,0,13.14,13.14,0,0,0,1.23,5.4H526.39a13.14,13.14,0,0,0,1.23-5.4,1.54,1.54,0,1,0-3.08,0,10,10,0,0,1-10,10,9.68,9.68,0,0,1-8.63-5.09,1.59,1.59,0,1,0-2.78,1.54,13.22,13.22,0,0,0,11.41,6.63,13.42,13.42,0,0,0,10-4.63H543a13.42,13.42,0,0,0,10,4.63A13,13,0,0,0,564.31,805.84ZM521.3,777a1.46,1.46,0,0,0-1.54,1.54v4.63a6.18,6.18,0,0,0,6.17,6.17h15.42a6.18,6.18,0,0,0,6.17-6.17v-4.63a1.54,1.54,0,0,0-3.08,0v4.63a3.09,3.09,0,0,1-3.08,3.08H525.92a3.09,3.09,0,0,1-3.08-3.08v-4.63A1.46,1.46,0,0,0,521.3,777Zm61.36,40.24-9.71-39a13.84,13.84,0,0,0-13.41-10.48h-8.17a6.76,6.76,0,0,0-4.78,2,3.61,3.61,0,0,1-2.62,1.08h-20.5a4,4,0,0,1-2.62-1.08,6.76,6.76,0,0,0-4.78-2h-8.17a13.84,13.84,0,0,0-13.41,10.48l-9.87,39a11.9,11.9,0,0,0-.31,2.31,9.71,9.71,0,0,0,9.71,9.87h1.7a9.79,9.79,0,0,0,8.94-5.86l3.85-8.94a1.52,1.52,0,0,0-2.78-1.23l-3.85,8.94a6.38,6.38,0,0,1-6,4H494a6.58,6.58,0,0,1-6.63-6.63,6.32,6.32,0,0,1,.15-1.7l9.71-39a10.88,10.88,0,0,1,10.48-8.17h8.17a4,4,0,0,1,2.62,1.08,6.76,6.76,0,0,0,4.78,2h20.35a6.76,6.76,0,0,0,4.78-2,3.61,3.61,0,0,1,2.62-1.08h8.17A10.88,10.88,0,0,1,569.71,779l9.71,39a5.78,5.78,0,0,1,.15,1.7,6.58,6.58,0,0,1-6.63,6.63h-1.7a6.75,6.75,0,0,1-6.17-4l-3.85-8.94a1.52,1.52,0,0,0-2.78,1.23l3.85,8.94a9.79,9.79,0,0,0,8.94,5.86h1.7a9.67,9.67,0,0,0,9.71-9.71A4.46,4.46,0,0,0,582.66,817.25ZM552.9,792.43a6.94,6.94,0,1,1-6.94,6.94A6.91,6.91,0,0,1,552.9,792.43ZM549,799.37a3.85,3.85,0,1,0,3.85-3.85A3.82,3.82,0,0,0,549,799.37Zm-27.75,0a6.94,6.94,0,1,1-6.94-6.94A6.91,6.91,0,0,1,521.3,799.37Zm-3.08,0a3.85,3.85,0,1,0-3.85,3.85A3.82,3.82,0,0,0,518.21,799.37Z"/></g><g id="_Group_26" data-name="&lt;Group&gt;"><circle id="_Path_43" data-name="&lt;Path&gt;" class="cls-30" cx="385.29" cy="452.14" r="72.44"/><path id="_Compound_Path_12" data-name="&lt;Compound Path&gt;" class="cls-27" d="M427.6,485H343a4.3,4.3,0,0,1-4.38-4.38v-5.83a1.38,1.38,0,0,1,1.46-1.46h36.47a1.38,1.38,0,0,1,1.46,1.46,1.38,1.38,0,0,0,1.46,1.46h11.67a1.38,1.38,0,0,0,1.46-1.46,1.38,1.38,0,0,1,1.46-1.46h36.47a1.38,1.38,0,0,1,1.46,1.46v5.83A4.3,4.3,0,0,1,427.6,485Zm-86.07-8.75v4.38A1.38,1.38,0,0,0,343,482H427.6a1.38,1.38,0,0,0,1.46-1.46V476.2H395.21a4.25,4.25,0,0,1-4.08,2.92H379.46a4.25,4.25,0,0,1-4.08-2.92Zm84.61-5.83V423.69a4.3,4.3,0,0,0-4.38-4.38H348.83a4.3,4.3,0,0,0-4.38,4.38v46.68a1.46,1.46,0,1,0,2.92,0V423.69a1.38,1.38,0,0,1,1.46-1.46h72.94a1.38,1.38,0,0,1,1.46,1.46v46.68a1.46,1.46,0,1,0,2.92,0Zm-5.83-1.46v-42.3a1.38,1.38,0,0,0-1.46-1.46H391.13a1.46,1.46,0,1,0,0,2.92h26.26v39.39H353.2V428.07h26.26a1.46,1.46,0,1,0,0-2.92H351.74a1.38,1.38,0,0,0-1.46,1.46v42.3a1.38,1.38,0,0,0,1.46,1.46h67.1A1.38,1.38,0,0,0,420.3,468.91Zm-32.09-42.3a1.38,1.38,0,0,0-1.46-1.46h-2.92a1.46,1.46,0,1,0,0,2.92h2.92A1.38,1.38,0,0,0,388.21,426.61Zm4.38,8.75a1.38,1.38,0,0,0-1.46-1.46H360.5a1.46,1.46,0,1,0,0,2.92h30.63A1.38,1.38,0,0,0,392.59,435.36Zm2.92,5.83a1.38,1.38,0,0,0-1.46-1.46H378a1.46,1.46,0,0,0,0,2.92h16A1.38,1.38,0,0,0,395.51,441.19Zm-21.88,0a1.38,1.38,0,0,0-1.46-1.46H360.5a1.46,1.46,0,1,0,0,2.92h11.67A1.38,1.38,0,0,0,373.63,441.19Zm5.83,5.83a1.38,1.38,0,0,0-1.46-1.46H360.5a1.46,1.46,0,0,0,0,2.92H378A1.38,1.38,0,0,0,379.46,447Zm32.09-11.67a1.38,1.38,0,0,0-1.46-1.46H397a1.46,1.46,0,1,0,0,2.92h13.13A1.38,1.38,0,0,0,411.55,435.36Z"/></g><g id="_Group_27" data-name="&lt;Group&gt;"><circle id="_Path_44" data-name="&lt;Path&gt;" class="cls-31" cx="608.25" cy="143.02" r="72.44"/><path id="_Compound_Path_13" data-name="&lt;Compound Path&gt;" class="cls-27" d="M594.39,182.86a1.24,1.24,0,0,1,0-1.75,3.36,3.36,0,1,0-4.74-4.74,1.24,1.24,0,0,1-1.75,0l-3.25-3.25a1.24,1.24,0,0,1,0-1.75,3.36,3.36,0,1,0-4.74-4.74,1.24,1.24,0,0,1-1.75,0l-3.25-3.25a1.24,1.24,0,0,1,0-1.75,3.36,3.36,0,1,0-4.74-4.74,1.24,1.24,0,0,1-1.75,0L563.54,152a1.24,1.24,0,0,1,0-1.75l52-52a1.24,1.24,0,0,1,1.75,0l4.87,4.87a1.24,1.24,0,0,1,0,1.75,3.36,3.36,0,0,0,4.74,4.74,1.24,1.24,0,0,1,1.75,0l3.25,3.25a1.24,1.24,0,0,1,0,1.75,3.36,3.36,0,0,0,4.74,4.74,1.24,1.24,0,0,1,1.75,0l3.25,3.25a1.24,1.24,0,0,1,0,1.75,3.36,3.36,0,0,0,4.74,4.74,1.24,1.24,0,0,1,1.75,0L653,134a1.24,1.24,0,0,1,0,1.75l-52,52a1.24,1.24,0,0,1-1.75,0Zm1.75-8.24a5.84,5.84,0,0,1,1.14,6.63l-.32.68,3.18,3.18,11.24-11.24-4-4a1.24,1.24,0,1,1,1.75-1.75l4,4,37.22-37.22-3.18-3.18-.68.32a5.83,5.83,0,0,1-7.77-7.77l.32-.68L637.42,122l-.68.32a5.83,5.83,0,0,1-7.77-7.77l.32-.68-1.61-1.61-.68.32a5.83,5.83,0,0,1-7.77-7.77l.32-.68-3.18-3.18-37.22,37.22,4,4a1.24,1.24,0,1,1-1.75,1.75l-4-4-11.24,11.24,3.18,3.18L570,154a5.83,5.83,0,0,1,7.77,7.77l-.32.68,1.61,1.61.68-.32a5.83,5.83,0,0,1,7.77,7.77l-.32.68,1.61,1.61.68-.32A5.84,5.84,0,0,1,596.14,174.61Zm1.5-14.49a1.24,1.24,0,0,1,1.75-1.75l3.25,3.25a1.24,1.24,0,1,1-1.75,1.75Zm-9.74-9.74a1.24,1.24,0,0,1,1.75-1.75l3.25,3.25a1.24,1.24,0,1,1-1.75,1.75Zm9.74-19.48a1.24,1.24,0,1,1,1.75-1.75l22.73,22.73a1.24,1.24,0,1,1-1.75,1.75Zm6.49-6.49a1.24,1.24,0,1,1,1.75-1.75l22.73,22.73a1.24,1.24,0,1,1-1.75,1.75Zm6.49-6.49a1.24,1.24,0,1,1,1.75-1.75l9.74,9.74a1.24,1.24,0,0,1-1.75,1.75Z"/></g><g id="_Group_28" data-name="&lt;Group&gt;"><circle id="_Path_45" data-name="&lt;Path&gt;" class="cls-32" cx="1013.6" cy="143.02" r="72.44"/><path id="_Compound_Path_14" data-name="&lt;Compound Path&gt;" class="cls-27" d="M1006,177.07a1.55,1.55,0,0,1-1.14-.69L995,161.56l-14.82-9.81a1.56,1.56,0,0,1-.24-2.4l5.2-5.21a1.55,1.55,0,0,1,1.1-.46,1.57,1.57,0,0,1,.77.2l10.12,5.7,11.69-11.69-24.88-13a1.56,1.56,0,0,1-.38-2.48l5.09-5.1a1.56,1.56,0,0,1,1.45-.42l32.3,7.45,13.41-13.4a7,7,0,1,1,9.84,9.84l-13.4,13.41,7.45,32.3a1.55,1.55,0,0,1-.42,1.45L1034.2,173a1.56,1.56,0,0,1-1.09.46l-.23,0a1.56,1.56,0,0,1-1.16-.82l-13-24.88L1007,159.44l5.69,10.12a1.56,1.56,0,0,1-.26,1.86l-5.2,5.2a1.54,1.54,0,0,1-1.1.46Zm-22.46-26.86L997,159.14a1.55,1.55,0,0,1,.44.44l8.93,13.49,3-3-5.7-10.12a1.56,1.56,0,0,1,.26-1.86l14-14a1.54,1.54,0,0,1,1.1-.46l.24,0a1.56,1.56,0,0,1,1.14.82l13,24.88,3-3L1029,134a1.54,1.54,0,0,1,.42-1.45l14-14a3.82,3.82,0,0,0,0-5.45,3.9,3.9,0,0,0-5.44,0l-14,14a1.58,1.58,0,0,1-1.46.42l-32.29-7.45-3,3,24.88,13a1.56,1.56,0,0,1,.38,2.48l-14,14a1.54,1.54,0,0,1-1.1.46,1.58,1.58,0,0,1-.77-.2l-10.12-5.7Z"/></g></g></svg>