<svg xmlns="http://www.w3.org/2000/svg" viewBox="0 0 128 128"><defs><style>.cls-1{fill:#81d3ef;}.cls-2{fill:#fff;}.cls-3{fill:#488f56;}.cls-4{fill:#76b881;}.cls-5{fill:#877474;}</style></defs><title>freedom</title><g id="Layer_2" data-name="Layer 2"><g id="Layer_1-2" data-name="Layer 1"><circle class="cls-1" cx="64" cy="64" r="64"/><path class="cls-2" d="M42.92,89.22c0-.11,0-.21,0-.32a5.74,5.74,0,0,0-7.08-5.59,9.74,9.74,0,0,0-17.19.12,5.75,5.75,0,0,0-7.5,5.47c0,.11,0,.21,0,.32Z"/><path class="cls-3" d="M110.77,57.62c-13.92,12.28-30.43,19.91-48.29,24-1.3-9.41-2.28-18.78-6.8-27.34C73.19,51.7,88.81,43.87,102.22,32Z"/><path class="cls-4" d="M97.55,37.36c-2.57,2.67-4.72,2.57-10,6.4,4.94-1.4,8.88,2.43,10.55,7.41s.57,9.67-3.21,14.54c5.31-3.81,7.46-3.71,10-6.38-.9-3.49-.86-7.51,1.69-9.22l-3.23-9.65C100.59,41.32,98.85,40.24,97.55,37.36Z"/><path class="cls-4" d="M74.9,64.85c-1.58-5,.11-9.18,3.9-14.05-5.48,3.94-8.31,3.33-14.29,3.84.6,3-1.21,5.27-4.09,6.51,1.32,3.85,1.31,5.39,2.49,9.64,3.57-.32,7.39,3,8.55,6.63,6.52-1.19,9.37-.86,14.68-4.67C81.19,74.15,76.48,69.82,74.9,64.85Z"/><path class="cls-2" d="M84.27,50.61c-4.18,3.57-6.43,8.82-5,13s5.92,5.71,10.1,2.14,6.43-8.82,5-13S88.45,47,84.27,50.61Zm4.45,13.32c-3.18,2.71-6.61,1.88-7.68-1.29s.65-7.5,3.83-10.21,6.61-1.88,7.68,1.29S91.9,61.22,88.72,63.93Z"/><path class="cls-2" d="M92.32,53.86c1,3.05-.63,7.24-3.68,9.84s-6.35,1.84-7.37-1.21.63-7.24,3.68-9.84S91.3,50.81,92.32,53.86Z"/><path class="cls-3" d="M89.67,60.48l-.86.72a.24.24,0,0,1-.18.06c-1.34-.42-2.68-.83-4-1.28v0a6.32,6.32,0,0,0,1.49-1.72,2,2,0,0,0,.24-1.61c-.79.68-1.58,1.35-2.38,2l-.17-.5c.78-.63,1.55-1.29,2.34-2a.67.67,0,0,0-.65-.32,2.07,2.07,0,0,0-1.13.5l-.9.74-.16-.48c1.55-1.27,3.11-2.65,4.68-3.93l.16.48c-.58.48-1.16,1-1.8,1.51a1,1,0,0,1,1,.48l1.15-1,.16.49-1.11.92a5,5,0,0,1-1.46,3.75C87.26,59.73,88.44,60.08,89.67,60.48Z"/><path class="cls-3" d="M71.45,80.34c-17.75,3-33.72,2.47-51.59.21L17.12,53.72C35,56,50.6,56.64,68.24,53,72.65,64.79,70.36,69.61,71.45,80.34Z"/><path class="cls-4" d="M60.21,56.62c-6,1.36-9.13,2.46-14.38,1.82,4.49,2.35,8.54,5.85,9,11s-2.56,10.69-6.68,12c5.23.64,8.28-.43,14.35-1.66a10.54,10.54,0,0,1,7.06-8.68c-.3-4.19-.14-5.85-.74-9.82C65.23,61.43,61.63,59.8,60.21,56.62Z"/><path class="cls-4" d="M31.07,68.4c-.53-5.23,2.18-10.2,6.3-11.49-5.41-.66-8.25,0-13-.84a5.57,5.57,0,0,1-4.72,5.61l1,10.27c3.28.39,5.69,3.71,6.4,7.22,4.6.84,7.39.13,12.63.77C35.22,77.59,31.6,73.63,31.07,68.4Z"/><path class="cls-2" d="M42,61.17c-4-.84-7.11,2.64-6.66,7s4.25,8,8.28,8.85,7.11-2.64,6.66-7S46,62,42,61.17Zm1.43,14a8.29,8.29,0,0,1-6.24-6.92c-.34-3.33,1.94-5.78,5-5.14A8.29,8.29,0,0,1,48.39,70C48.73,73.33,46.45,75.78,43.38,75.14Z"/><path class="cls-2" d="M48.16,70c.33,3.2-1.86,5.53-4.8,4.92a8,8,0,0,1-6-6.67c-.33-3.2,1.86-5.53,4.8-4.92A8,8,0,0,1,48.16,70Z"/><path class="cls-3" d="M44.74,73.3l-.83-.17a.31.31,0,0,1-.16-.11c-1-1.46-2.06-2.93-3.09-4.38,0,0,0,0,0,0a4.28,4.28,0,0,0,.69.07,2.66,2.66,0,0,0,.83-.15c.37-.15.49-.52.46-1-.77-.16-1.52-.32-2.3-.46l-.05-.52c.76.14,1.5.3,2.27.45a1.72,1.72,0,0,0-.48-.8,2.18,2.18,0,0,0-1-.58l-.87-.17-.05-.51c1.51.28,3,.63,4.52.91l.05.5L43,66a2.59,2.59,0,0,1,.74,1.21l1.12.22.05.52-1.07-.21c-.08,1.21-.84,1.54-1.83,1.63C42.89,70.68,43.8,72,44.74,73.3Z"/><path class="cls-5" d="M31,39.58,52.35,45a10.15,10.15,0,0,0,11.81-3.67c5.11-6.54,9.32-15,13.49-19.07,1.19-1.17,8.78-5.68,5.75,3.35-1.84,5.47-11,20.27-11,20.27s-1.12,1.6.8,4.79,5.43,16.6,5.43,25.22c0,0,8.94,23.3,1.92,27.93s-11.65-7.5-11.33-9.1,2.79-.4,3.91.08a14.65,14.65,0,0,0-3.91-9.18s-1.76-1.76-2.87,5.59-3.19,11.33-10.85,14.2-16.65-2.15-19.15-6.54c-1.14-2-1.28-8.46,8-4.63s11.17,3,12-3,.16-25.7-1.6-31.12S52.75,54.18,40,50.19s-12.67-2.48-15-5.75C23.86,42.88,22.74,38.06,31,39.58Z"/><circle class="cls-5" cx="54.9" cy="31.76" r="11.81"/><path class="cls-2" d="M120,83.63c0-.12,0-.24,0-.36a6.55,6.55,0,0,0-8.07-6.38A11.11,11.11,0,0,0,92.34,77a6.56,6.56,0,0,0-8.55,6.24c0,.12,0,.24,0,.36Z"/></g></g></svg>