<svg xmlns="http://www.w3.org/2000/svg" xmlns:xlink="http://www.w3.org/1999/xlink" viewBox="0 0 128 132.47"><defs><style>.cls-1{fill:none;}.cls-2{isolation:isolate;}.cls-3{fill:#81d3ef;}.cls-4{clip-path:url(#clip-path);}.cls-5,.cls-7{fill:#69acb7;}.cls-6{fill:#f2f8f9;}.cls-7,.cls-8{mix-blend-mode:multiply;}.cls-9{fill:#497a7f;}.cls-10{fill:#aee6f4;}.cls-11{fill:#009245;}</style><clipPath id="clip-path"><circle class="cls-1" cx="64" cy="64" r="64"/></clipPath></defs><title>paylater</title><g class="cls-2"><g id="Layer_2" data-name="Layer 2"><g id="Layer_1-2" data-name="Layer 1"><circle class="cls-3" cx="64" cy="64" r="64"/><g class="cls-4"><rect class="cls-5" x="32.72" y="24.42" width="62.56" height="108.05" rx="6" ry="6"/><rect class="cls-6" x="34.15" y="28.25" width="59.69" height="100.07" rx="6" ry="6"/><rect class="cls-7" x="57.14" y="26.17" width="13.73" height="0.96" rx="0.48" ry="0.48"/><g class="cls-8"><path class="cls-9" d="M45,57a.32.32,0,0,1-.09-.23V50.91a.31.31,0,0,1,.32-.32h1.67a2.17,2.17,0,0,1,1.09.27,1.92,1.92,0,0,1,.75.75A2.22,2.22,0,0,1,49,52.7a2.17,2.17,0,0,1-.27,1.08,1.9,1.9,0,0,1-.75.74,2.2,2.2,0,0,1-1.09.27H45.6v2A.33.33,0,0,1,45,57Zm1.9-2.83A1.52,1.52,0,0,0,47.7,54a1.34,1.34,0,0,0,.52-.52,1.52,1.52,0,0,0,.19-.76,1.56,1.56,0,0,0-.19-.77,1.36,1.36,0,0,0-.52-.53,1.49,1.49,0,0,0-.76-.19H45.6v3Z"/><path class="cls-9" d="M50.15,57a.31.31,0,0,1-.1-.23V50.91a.31.31,0,0,1,.1-.23.32.32,0,0,1,.23-.09h3.91a.32.32,0,0,1,.23.09.31.31,0,0,1,.09.22.29.29,0,0,1-.09.22.32.32,0,0,1-.23.09H50.7v2.3h2.61a.32.32,0,0,1,.23.09.31.31,0,0,1,.09.22.3.3,0,0,1-.1.22.32.32,0,0,1-.23.09H50.7v2.32h3.58a.32.32,0,0,1,.23.09.29.29,0,0,1,.09.22.31.31,0,0,1-.09.22.32.32,0,0,1-.23.09H50.38A.31.31,0,0,1,50.15,57Z"/><path class="cls-9" d="M55.91,57a.32.32,0,0,1-.09-.23V50.91a.33.33,0,0,1,.57-.21l4,5.23v-5a.31.31,0,0,1,.1-.23.32.32,0,0,1,.23-.09.31.31,0,0,1,.32.32v5.86a.32.32,0,0,1-.09.23.31.31,0,0,1-.23.1.27.27,0,0,1-.24-.11l-4-5.23v5a.32.32,0,0,1-.09.23.31.31,0,0,1-.23.1A.32.32,0,0,1,55.91,57Z"/><path class="cls-9" d="M62.78,57a.31.31,0,0,1-.09-.23V50.91a.31.31,0,0,1,.32-.32h1.5a3.38,3.38,0,0,1,1.68.42,3,3,0,0,1,1.15,1.15,3.63,3.63,0,0,1,0,3.36,3,3,0,0,1-1.15,1.16,3.38,3.38,0,0,1-1.68.42H63A.32.32,0,0,1,62.78,57Zm1.73-.49a2.62,2.62,0,0,0,1.35-.35,2.44,2.44,0,0,0,.92-1,3,3,0,0,0,0-2.75,2.42,2.42,0,0,0-.92-.95,2.65,2.65,0,0,0-1.35-.34H63.34v5.34Z"/><path class="cls-9" d="M69.2,57a.31.31,0,0,1-.1-.23V50.91a.31.31,0,0,1,.1-.23.32.32,0,0,1,.55.23v5.86a.32.32,0,0,1-.09.23.33.33,0,0,1-.46,0Z"/><path class="cls-9" d="M71.51,57a.31.31,0,0,1-.09-.23V50.91A.33.33,0,0,1,72,50.7l4,5.23v-5a.31.31,0,0,1,.1-.23.32.32,0,0,1,.55.23v5.86a.32.32,0,0,1-.09.23.31.31,0,0,1-.23.1.27.27,0,0,1-.24-.11l-4-5.23v5A.32.32,0,0,1,72,57a.31.31,0,0,1-.23.1A.32.32,0,0,1,71.51,57Z"/><path class="cls-9" d="M83.25,53.93a.3.3,0,0,1,.09.23v2.07a.32.32,0,0,1-.09.23,2.89,2.89,0,0,1-2,.72,3.07,3.07,0,0,1-1.62-.45,3.38,3.38,0,0,1,0-5.77,3.09,3.09,0,0,1,1.63-.45,3.23,3.23,0,0,1,1.09.18,3.11,3.11,0,0,1,.95.56.22.22,0,0,1,.09.19.23.23,0,0,1,0,.12.2.2,0,0,1-.09.08.17.17,0,0,1-.07.1.23.23,0,0,1-.12,0,.3.3,0,0,1-.21-.08,2.08,2.08,0,0,0-.71-.42,2.72,2.72,0,0,0-.89-.13,2.43,2.43,0,0,0-1.3.37,2.74,2.74,0,0,0-1,1,2.69,2.69,0,0,0-.35,1.35A2.75,2.75,0,0,0,79,55.2a2.67,2.67,0,0,0,.95,1,2.46,2.46,0,0,0,1.31.37,2.6,2.6,0,0,0,1.5-.47V54.42h-1.3a.33.33,0,0,1-.23-.08.27.27,0,0,1-.09-.21.26.26,0,0,1,.09-.2.34.34,0,0,1,.23-.08H83A.32.32,0,0,1,83.25,53.93Z"/><path class="cls-9" d="M44.08,67a.32.32,0,0,1-.09-.23V60.9a.31.31,0,0,1,.32-.32H46a2.17,2.17,0,0,1,1.09.27,1.92,1.92,0,0,1,.75.75,2.22,2.22,0,0,1,.27,1.1,2.17,2.17,0,0,1-.27,1.08,1.9,1.9,0,0,1-.75.74,2.2,2.2,0,0,1-1.09.27H44.63v2a.33.33,0,0,1-.56.23ZM46,64.16a1.52,1.52,0,0,0,.76-.19,1.34,1.34,0,0,0,.52-.52,1.52,1.52,0,0,0,.19-.76,1.56,1.56,0,0,0-.19-.77,1.36,1.36,0,0,0-.52-.53A1.49,1.49,0,0,0,46,61.2H44.63v3Z"/><path class="cls-9" d="M53.65,66.76a.33.33,0,0,1-.63.12l-.56-1.35H49.23l-.56,1.35a.28.28,0,0,1-.3.2.3.3,0,0,1-.23-.1.33.33,0,0,1-.09-.23.36.36,0,0,1,0-.14l2.45-5.81a.32.32,0,0,1,.32-.22.31.31,0,0,1,.31.22l2.46,5.82A.26.26,0,0,1,53.65,66.76ZM49.47,65h2.77l-1.38-3.34Z"/><path class="cls-9" d="M58.47,60.67a.31.31,0,0,1,.08.21.38.38,0,0,1-.06.21l-2.27,3.59v2.08a.32.32,0,0,1-.09.23.31.31,0,0,1-.23.1.33.33,0,0,1-.32-.32V64.68L53.3,61.09a.4.4,0,0,1-.07-.21.28.28,0,0,1,.09-.21.31.31,0,0,1,.22-.09.3.3,0,0,1,.15,0,.42.42,0,0,1,.12.12l2.07,3.34L58,60.75a.5.5,0,0,1,.13-.13.31.31,0,0,1,.17,0A.26.26,0,0,1,58.47,60.67Z"/><path class="cls-9" d="M65.83,60.67a.32.32,0,0,1,.09.23v5.86a.32.32,0,0,1-.09.23.3.3,0,0,1-.23.1.32.32,0,0,1-.24-.1.31.31,0,0,1-.1-.23V62L63,66.78a.32.32,0,0,1-.28.16.31.31,0,0,1-.3-.2l-2.31-4.61v4.64A.32.32,0,0,1,60,67a.31.31,0,0,1-.23.1.33.33,0,0,1-.32-.32V60.9a.31.31,0,0,1,.1-.23.34.34,0,0,1,.52.07L62.7,66l2.62-5.3a.32.32,0,0,1,.29-.17A.31.31,0,0,1,65.83,60.67Z"/><path class="cls-9" d="M67.69,67a.31.31,0,0,1-.1-.23V60.9a.31.31,0,0,1,.1-.23.32.32,0,0,1,.23-.09h3.91a.32.32,0,0,1,.23.09.31.31,0,0,1,.09.22.29.29,0,0,1-.09.22.32.32,0,0,1-.23.09H68.24v2.3h2.61a.32.32,0,0,1,.23.09.31.31,0,0,1,.09.22.3.3,0,0,1-.1.22.32.32,0,0,1-.23.09H68.24v2.32h3.58a.32.32,0,0,1,.23.09.29.29,0,0,1,.09.22.31.31,0,0,1-.09.22.32.32,0,0,1-.23.09H67.91A.31.31,0,0,1,67.69,67Z"/><path class="cls-9" d="M73.45,67a.31.31,0,0,1-.09-.23V60.9a.33.33,0,0,1,.57-.21l4,5.23v-5a.31.31,0,0,1,.1-.23.32.32,0,0,1,.55.23v5.86a.32.32,0,0,1-.09.23.31.31,0,0,1-.23.1A.27.27,0,0,1,78,67l-4-5.23v5a.32.32,0,0,1-.09.23.31.31,0,0,1-.23.1A.32.32,0,0,1,73.45,67Z"/><path class="cls-9" d="M84.64,60.66a.29.29,0,0,1,.08.22.28.28,0,0,1-.08.21.29.29,0,0,1-.22.08h-2v5.59a.32.32,0,0,1-.09.23.31.31,0,0,1-.23.1.33.33,0,0,1-.32-.32V61.17h-2a.29.29,0,0,1-.22-.08.28.28,0,0,1-.08-.21.29.29,0,0,1,.3-.3h4.61A.29.29,0,0,1,84.64,60.66Z"/></g><circle class="cls-10" cx="64" cy="87.22" r="14.6"/><path class="cls-11" d="M60,95l-6.21-5.61a1.05,1.05,0,0,1-.37-.72,1,1,0,0,1,1-1.06,1.06,1.06,0,0,1,.75.3l4.94,4.46a.66.66,0,0,0,.93,0L72.76,79.49a1,1,0,0,1,1.49-.07,1.06,1.06,0,0,1,.07,1.49L61.47,95A1.06,1.06,0,0,1,60,95Z"/></g><path class="cls-9" d="M45.81,116a3.38,3.38,0,0,1,0-5.77,3.09,3.09,0,0,1,1.63-.45,3.23,3.23,0,0,1,1.09.18,3.11,3.11,0,0,1,.95.56.22.22,0,0,1,.09.19.23.23,0,0,1,0,.12.2.2,0,0,1-.09.08.15.15,0,0,1-.07.09.25.25,0,0,1-.12,0A.3.3,0,0,1,49,111a2.08,2.08,0,0,0-.71-.42,2.72,2.72,0,0,0-.89-.13,2.43,2.43,0,0,0-1.3.37,2.74,2.74,0,0,0-1,1,2.69,2.69,0,0,0-.35,1.35,2.75,2.75,0,0,0,.35,1.37,2.67,2.67,0,0,0,.95,1,2.46,2.46,0,0,0,1.31.37,2.57,2.57,0,0,0,1.64-.58.31.31,0,0,1,.18-.07.31.31,0,0,1,.31.32.33.33,0,0,1-.09.23,2.91,2.91,0,0,1-2,.72A3.07,3.07,0,0,1,45.81,116Z"/><path class="cls-9" d="M51,116.31a.31.31,0,0,1-.1-.23v-5.86a.33.33,0,0,1,.32-.32.31.31,0,0,1,.32.32v5.56h3.26a.32.32,0,0,1,.23.09.31.31,0,0,1,0,.44.32.32,0,0,1-.23.09H51.26A.31.31,0,0,1,51,116.31Z"/><path class="cls-9" d="M56.3,116.31a.31.31,0,0,1-.1-.23v-5.86a.31.31,0,0,1,.1-.23.32.32,0,0,1,.23-.09h3.91a.32.32,0,0,1,.23.09.31.31,0,0,1,.09.22.29.29,0,0,1-.09.22.32.32,0,0,1-.23.09H56.86v2.3h2.61a.32.32,0,0,1,.23.09.31.31,0,0,1,.09.22.3.3,0,0,1-.1.22.32.32,0,0,1-.23.09H56.86v2.32h3.58a.32.32,0,0,1,.23.09.29.29,0,0,1,.09.22.31.31,0,0,1-.09.22.32.32,0,0,1-.23.09H56.53A.31.31,0,0,1,56.3,116.31Z"/><path class="cls-9" d="M66.89,116.08a.33.33,0,0,1-.32.32.32.32,0,0,1-.31-.2l-.56-1.35H62.47l-.56,1.35a.28.28,0,0,1-.3.2.3.3,0,0,1-.23-.1.33.33,0,0,1-.09-.23.36.36,0,0,1,0-.14l2.45-5.81a.32.32,0,0,1,.32-.22.31.31,0,0,1,.31.22l2.46,5.82A.26.26,0,0,1,66.89,116.08ZM62.7,114.3h2.77L64.09,111Z"/><path class="cls-9" d="M72,116.13a.25.25,0,0,1-.09.2.37.37,0,0,1-.24.07.31.31,0,0,1-.17,0,.36.36,0,0,1-.12-.12l-1.5-2.38H68.48v2.22a.32.32,0,1,1-.65,0v-5.86a.31.31,0,0,1,.32-.32h1.56a2.26,2.26,0,0,1,1.08.25,1.88,1.88,0,0,1,.75.71,2,2,0,0,1,.27,1,1.87,1.87,0,0,1-1.28,1.82l1.37,2.18A.45.45,0,0,1,72,116.13Zm-2.26-2.9a1.65,1.65,0,0,0,.75-.17,1.29,1.29,0,0,0,.52-.47,1.26,1.26,0,0,0,.19-.68,1.38,1.38,0,0,0-.19-.72,1.29,1.29,0,0,0-.52-.49,1.61,1.61,0,0,0-.76-.17H68.48v2.71Z"/><path class="cls-9" d="M73.07,116.31a.31.31,0,0,1-.1-.23v-5.86a.31.31,0,0,1,.1-.23.32.32,0,0,1,.23-.09h3.91a.32.32,0,0,1,.23.09.31.31,0,0,1,.09.22.29.29,0,0,1-.09.22.32.32,0,0,1-.23.09H73.62v2.3h2.61a.32.32,0,0,1,.23.09.31.31,0,0,1,.09.22.3.3,0,0,1-.1.22.32.32,0,0,1-.23.09H73.62v2.32h3.58a.32.32,0,0,1,.23.09.29.29,0,0,1,.09.22.31.31,0,0,1-.09.22.32.32,0,0,1-.23.09H73.3A.31.31,0,0,1,73.07,116.31Z"/><path class="cls-9" d="M78.83,116.31a.31.31,0,0,1-.09-.23v-5.86a.31.31,0,0,1,.32-.32h1.5a3.38,3.38,0,0,1,1.68.42,3,3,0,0,1,1.15,1.15,3.63,3.63,0,0,1,0,3.36A3,3,0,0,1,82.25,116a3.38,3.38,0,0,1-1.68.42h-1.5A.32.32,0,0,1,78.83,116.31Zm1.73-.49a2.62,2.62,0,0,0,1.35-.35,2.44,2.44,0,0,0,.92-1,3,3,0,0,0,0-2.75,2.42,2.42,0,0,0-.92-.95,2.65,2.65,0,0,0-1.35-.34H79.39v5.34Z"/></g></g></g></svg>