<svg xmlns="http://www.w3.org/2000/svg" viewBox="0 0 121.7 39.8"><title>appstore</title><path d="M121.7,5.4v29a5.4,5.4,0,0,1-5.4,5.4H5.4A5.4,5.4,0,0,1,0,34.4V30.5l9-9V9a2.2,2.2,0,0,1,2.1-2.1H21a2.1,2.1,0,0,1,1.8.9L30.5,0h85.8A5.4,5.4,0,0,1,121.7,5.4Z" transform="translate(0 0)" fill="#231f20"/><path d="M22.8,7.7A2.1,2.1,0,0,0,21,6.8H11.1A2.2,2.2,0,0,0,9,9v22a2.1,2.1,0,0,0,2.1,2.1H21a2.1,2.1,0,0,0,2.1-2.1V9A2.1,2.1,0,0,0,22.8,7.7ZM16.1,31.5a1.4,1.4,0,1,1,1.4-1.4A1.4,1.4,0,0,1,16.1,31.5Zm5.4-3.6H10.6V11.7H21.5Z" transform="translate(0 0)" fill="#fff"/><path d="M32.8,6.7h-.9l-2,5.8h.8l.6-1.8h2l.6,1.8h.8Zm-1.4,3.4L32,8.5l.3-1h0l.3,1.1.6,1.7Z" transform="translate(0 0)" fill="#fff"/><path d="M37.9,8.4l-.8,2.3-.3,1.1h0l-.3-1.1-.8-2.3h-.8l1.6,4.2H37l1.6-4.2Z" transform="translate(0 0)" fill="#fff"/><path d="M42.2,11.5V10c0-.8-.3-1.7-1.6-1.7a2.7,2.7,0,0,0-1.4.4l.2.5a2,2,0,0,1,1.1-.3.9.9,0,0,1,1,1h0c-1.6,0-2.5.5-2.5,1.5a1.2,1.2,0,0,0,1.3,1.2,1.6,1.6,0,0,0,1.3-.6h0v.5h.7A7.4,7.4,0,0,1,42.2,11.5Zm-.7-.4a.7.7,0,0,1,0,.2,1.1,1.1,0,0,1-1,.7.7.7,0,0,1-.7-.7c0-.8.9-1,1.8-.9Z" transform="translate(0 0)" fill="#fff"/><path d="M43.7,6.6a.5.5,0,0,0,0,1h0a.5.5,0,0,0,.5-.5A.5.5,0,0,0,43.7,6.6Zm-.4,1.7v4.2h.8V8.4Z" transform="translate(0 0)" fill="#fff"/><path d="M45.3,6.4v6.1h.8V6.4Z" transform="translate(0 0)" fill="#fff"/><path d="M50.2,11.5V10c0-.8-.3-1.7-1.6-1.7a2.7,2.7,0,0,0-1.4.4l.2.5a2,2,0,0,1,1.1-.3.9.9,0,0,1,1,1h0c-1.6,0-2.5.5-2.5,1.5a1.2,1.2,0,0,0,1.3,1.2,1.6,1.6,0,0,0,1.3-.6h0v.5h.7A6,6,0,0,1,50.2,11.5Zm-.7-.4a.7.7,0,0,1,0,.2,1.1,1.1,0,0,1-1,.7.7.7,0,0,1-.7-.7c0-.8.9-1,1.8-.9Z" transform="translate(0 0)" fill="#fff"/><path d="M53.6,8.3a1.5,1.5,0,0,0-1.4.8h0V6.4h-.8v5c0,.4,0,.8,0,1.1H52v-.7h0a1.5,1.5,0,0,0,1.4.8,2,2,0,0,0,1.9-2.2A1.9,1.9,0,0,0,53.6,8.3ZM53.3,12a1.2,1.2,0,0,1-1.1-.9,1.3,1.3,0,0,1,0-.3v-.7a1,1,0,0,1,0-.3,1.2,1.2,0,0,1,1.1-.9c.8,0,1.2.7,1.2,1.5S54.1,12,53.3,12Z" transform="translate(0 0)" fill="#fff"/><path d="M56.2,6.4v6.1H57V6.4Z" transform="translate(0 0)" fill="#fff"/><path d="M61.6,10.2a1.8,1.8,0,0,0-1.7-2,2,2,0,0,0-2,2.3,1.9,1.9,0,0,0,2,2.1,3.4,3.4,0,0,0,1.4-.3v-.5L60,12a1.3,1.3,0,0,1-1.4-1.4h2.9A3.2,3.2,0,0,0,61.6,10.2Zm-2.9-.2a1.3,1.3,0,0,1,1.2-1.2,1.1,1.1,0,0,1,1,1.2Z" transform="translate(0 0)" fill="#fff"/><path d="M66,8.3a2,2,0,0,0-2.1,2.2,2,2,0,0,0,2,2.1h0A2,2,0,0,0,68,10.4,2,2,0,0,0,66,8.3Zm0,3.8h0c-.7,0-1.2-.7-1.2-1.6s.4-1.6,1.3-1.6,1.2.9,1.2,1.6S66.7,12.1,66,12.1Z" transform="translate(0 0)" fill="#fff"/><path d="M71,8.3a1.5,1.5,0,0,0-1.4.8h0V8.4h-.7c0,.3,0,.7,0,1.1v3h.8V10a1,1,0,0,1,0-.4,1.1,1.1,0,0,1,1-.8c.7,0,1,.6,1,1.2v2.4h.8V10.1C72.5,8.6,71.6,8.3,71,8.3Z" transform="translate(0 0)" fill="#fff"/><path d="M77.4,9V8.4H76.4v-1l-.7.2v.8H75V9h.6v2.3a1.6,1.6,0,0,0,.3,1.1,1.1,1.1,0,0,0,.8.3h.7V12h-.4c-.4,0-.6-.3-.6-.8V9Z" transform="translate(0 0)" fill="#fff"/><path d="M80.3,8.3l-.8.2A1.3,1.3,0,0,0,79,9h0V6.4h-.8v6.1H79V10a.9.9,0,0,1,0-.4,1.1,1.1,0,0,1,1-.8c.7,0,1,.6,1,1.2v2.4h.8V10.1C81.8,8.6,80.9,8.3,80.3,8.3Z" transform="translate(0 0)" fill="#fff"/><path d="M86.4,10.2a1.8,1.8,0,0,0-1.7-2,2,2,0,0,0-2,2.3,1.9,1.9,0,0,0,2.1,2.1,3.4,3.4,0,0,0,1.4-.3v-.5l-1.2.2a1.3,1.3,0,0,1-1.4-1.4h2.9A1.7,1.7,0,0,0,86.4,10.2Zm-2.9-.2a1.3,1.3,0,0,1,1.2-1.2,1.1,1.1,0,0,1,1,1.2Z" transform="translate(0 0)" fill="#fff"/><path d="M89.4,6.6a.5.5,0,1,0,.5.5A.5.5,0,0,0,89.4,6.6ZM89,8.4v4.2h.8V8.4Z" transform="translate(0 0)" fill="#fff"/><path d="M94.1,7.2a2.4,2.4,0,0,0-1.6-.5H91v5.7h.8V10.2h.6a2.4,2.4,0,0,0,1.8-.6,1.7,1.7,0,0,0,.5-1.2A1.6,1.6,0,0,0,94.1,7.2ZM92.4,9.7h-.6V7.4h.7c.8,0,1.4.4,1.4,1.1S93.3,9.7,92.4,9.7Z" transform="translate(0 0)" fill="#fff"/><path d="M97.6,8.3l-.8.2a1.3,1.3,0,0,0-.5.5h0V6.4h-.7v6.1h.8V10a.8.8,0,0,1,.1-.4,1.1,1.1,0,0,1,1-.8c.7,0,1,.6,1,1.2v2.4H99V10.1C99,8.6,98.1,8.3,97.6,8.3Z" transform="translate(0 0)" fill="#fff"/><path d="M102,8.3a2,2,0,0,0-2.1,2.2,2,2,0,0,0,2,2.1,2,2,0,0,0,2.1-2.2A2,2,0,0,0,102,8.3Zm0,3.8h0c-.7,0-1.2-.7-1.2-1.6s.4-1.6,1.3-1.6,1.3.9,1.3,1.6S102.7,12.1,101.9,12.1Z" transform="translate(0 0)" fill="#fff"/><path d="M107,8.3a1.5,1.5,0,0,0-1.4.8h0V8.4h-.7c0,.3,0,.7,0,1.1v3h.8V10a1.2,1.2,0,0,1,.1-.4,1.1,1.1,0,0,1,1-.8c.7,0,1,.6,1,1.2v2.4h.8V10.1C108.5,8.6,107.6,8.3,107,8.3Z" transform="translate(0 0)" fill="#fff"/><path d="M113,10.2a1.8,1.8,0,0,0-1.7-2,2,2,0,0,0-2,2.3,1.9,1.9,0,0,0,2,2.1,3.4,3.4,0,0,0,1.4-.3v-.5l-1.2.2a1.3,1.3,0,0,1-1.4-1.4H113A1.7,1.7,0,0,0,113,10.2Zm-2.9-.2a1.3,1.3,0,0,1,1.2-1.2,1.1,1.1,0,0,1,1,1.2Z" transform="translate(0 0)" fill="#fff"/><path d="M37.4,16.5H34.8l-5.1,15h2.3l1.5-4.6h4.9l1.6,4.6h2.4ZM34.1,25l1.4-4c.2-.7.4-1.4.6-2.1l.6,2.1L38,25Z" transform="translate(0 0)" fill="#fff"/><path d="M52.5,21.9a4.3,4.3,0,0,0-3.3-1.5,4.2,4.2,0,0,0-3.6,1.7V20.6H43.3v.2c.1.9.1,1.9.1,3.4V35.8h2.3V30.4a4,4,0,0,0,3.1,1.3,4.7,4.7,0,0,0,3.4-1.5,6.2,6.2,0,0,0,1.5-4.4A6,6,0,0,0,52.5,21.9Zm-4,8a2.8,2.8,0,0,1-2.7-2.1,2.9,2.9,0,0,1-.1-.7V25.2a2.9,2.9,0,0,1,.1-.6v-.2a2.9,2.9,0,0,1,2.7-2.2c2,0,2.9,1.9,2.9,3.7S50.3,29.9,48.5,29.9Z" transform="translate(0 0)" fill="#fff"/><path d="M64.2,21.9a4.3,4.3,0,0,0-3.3-1.5,4.3,4.3,0,0,0-3.6,1.7V20.6H55v.2c.1.9.1,1.9.1,3.4V35.8h2.3V30.4a4,4,0,0,0,3.1,1.3A4.7,4.7,0,0,0,64,30.3a6.2,6.2,0,0,0,1.5-4.4A6.1,6.1,0,0,0,64.2,21.9Zm-4,8a2.7,2.7,0,0,1-2.7-2.1,2.5,2.5,0,0,1-.1-.7V25.2a2.9,2.9,0,0,1,.1-.6v-.2a2.9,2.9,0,0,1,2.7-2.2c2,0,2.9,1.9,2.9,3.7S62,29.9,60.2,29.9Z" transform="translate(0 0)" fill="#fff"/><path d="M75.5,22.8c-2.1-.8-2.8-1.5-2.8-2.7s.8-2,2.6-2a5.2,5.2,0,0,1,2.7.7h.2l.6-1.9h-.1a6.6,6.6,0,0,0-3.3-.7c-2.9,0-4.9,1.7-4.9,4.2s1.3,3.4,4,4.3S77,26.2,77,27.5s-1.1,2.3-2.9,2.3a6.2,6.2,0,0,1-3.3-.9h-.2l-.6,1.9h.1a7.8,7.8,0,0,0,3.8,1c3.9,0,5.3-2.4,5.3-4.4S78.2,23.9,75.5,22.8Z" transform="translate(0 0)" fill="#fff"/><path d="M83.4,18l-2.2.7v1.9H79.5v1.8h1.6V28a4.3,4.3,0,0,0,.8,2.9,2.9,2.9,0,0,0,2.2.9,5.3,5.3,0,0,0,1.8-.3H86V29.6H84.7c-.9,0-1.3-.6-1.3-1.9V22.4h2.7V20.6H83.4Z" transform="translate(0 0)" fill="#fff"/><path d="M95.6,21.9a5.1,5.1,0,0,0-3.8-1.6c-3.2,0-5.4,2.4-5.4,5.8s2.1,5.6,5.2,5.6h0c2.6,0,5.4-1.8,5.4-5.8A5.8,5.8,0,0,0,95.6,21.9Zm-3.9,8h0c-1.7,0-3-1.6-3-3.9s.9-3.9,3-3.9,3,2,3,3.8S93.4,29.9,91.7,29.9Z" transform="translate(0 0)" fill="#fff"/><path d="M104,20.5h-.7a3.2,3.2,0,0,0-2.8,1.8V20.6h-2v.2c.1.9.1,1.9.1,3.3v7.4h2.3V25.7a5.9,5.9,0,0,1,.1-.9,2.5,2.5,0,0,1,2.4-2.3h.9Z" transform="translate(0 0)" fill="#fff"/><path d="M109.1,20.3c-3,0-5.1,2.4-5.1,5.9s2.1,5.5,5.3,5.5a8.8,8.8,0,0,0,3.6-.7h.1l-.4-1.7h-.2a7.1,7.1,0,0,1-2.8.5,3.2,3.2,0,0,1-3.4-3.3h7.3v-.2a4.7,4.7,0,0,0,.1-.9C113.6,23.1,112.4,20.3,109.1,20.3Zm-2.9,4.5a2.9,2.9,0,0,1,2.7-2.7,2.2,2.2,0,0,1,1.7.6,3.2,3.2,0,0,1,.8,2.1Z" transform="translate(0 0)" fill="#fff"/><path d="M30.5,0,0,30.5V5.4A5.4,5.4,0,0,1,5.4,0Z" transform="translate(0 0)" fill="#ed147e"/><path d="M3,14.2v.8a1.2,1.2,0,0,0-1,.3,1,1,0,0,0,0,1.5,1,1,0,0,0,1.5,0,1.4,1.4,0,0,0,.3-.9h.8a2.2,2.2,0,0,1-.6,1.5,1.8,1.8,0,1,1-2.6-2.6A2.1,2.1,0,0,1,3,14.2Z" transform="translate(0 0)" fill="#fff"/><path d="M6.7,12.2a1.9,1.9,0,0,1-.1,2.7A1.8,1.8,0,1,1,4,12.3,1.8,1.8,0,0,1,6.7,12.2ZM4.6,14.3a1,1,0,0,0,1.5,0A1,1,0,0,0,6,12.9a1,1,0,0,0-1.5,0A1,1,0,0,0,4.6,14.3Z" transform="translate(0 0)" fill="#fff"/><path d="M10.6,11,8.9,9.3l.8,2-.4.4-2-.8,1.7,1.7-.6.6L5.8,10.6l.7-.7,2.2.8L7.9,8.5l.7-.7,2.6,2.6Z" transform="translate(0 0)" fill="#fff"/><path d="M11.6,9.9,9.1,7.3l.6-.6,2.6,2.6Z" transform="translate(0 0)" fill="#fff"/><path d="M14.6,6.9l-2.7-.4,1.6,1.6-.6.6L10.3,6.1l.6-.6,2.8.4L12,4.4l.6-.6,2.6,2.6Z" transform="translate(0 0)" fill="#fff"/><path d="M16.6,2.3l1,1a2.8,2.8,0,0,1-.7,1.4,1.8,1.8,0,0,1-2.7.1A1.9,1.9,0,0,1,14.3,2a2.3,2.3,0,0,1,1.4-.7v.8a1.5,1.5,0,0,0-1,.4,1,1,0,0,0,0,1.5,1,1,0,0,0,1.5,0l.3-.6-.7-.7Z" transform="translate(0 0)" fill="#fff"/><path d="M8.2,15.5l.3.8a2.7,2.7,0,0,0-1.1.6c-.2.2-.2.3-.1.5s1.5-1.2,2.5-.2.3,1.2-.2,1.8a2.7,2.7,0,0,1-1.6.8l-.2-.8A2.3,2.3,0,0,0,9,18.3c.2-.2.3-.4.1-.6s-1.5,1.2-2.4.3-.4-1.2.2-1.8A2.7,2.7,0,0,1,8.2,15.5Z" transform="translate(0 0)" fill="#fff"/><path d="M12.1,13.5a1.9,1.9,0,0,1-.1,2.7,1.8,1.8,0,1,1-2.6-2.6A1.8,1.8,0,0,1,12.1,13.5Zm-2.1,2.1a1,1,0,0,0,1.5,0,1.1,1.1,0,1,0-1.5,0Z" transform="translate(0 0)" fill="#fff"/><path d="M15,10.6a1.9,1.9,0,0,1-.1,2.7,1.8,1.8,0,1,1-2.6-2.6A1.8,1.8,0,0,1,15,10.6Zm-2.1,2.1a1,1,0,0,0,1.5,0,1.1,1.1,0,1,0-1.5,0Z" transform="translate(0 0)" fill="#fff"/><path d="M18.4,9.8l-2.7-.4L17.3,11l-.6.6L14.1,9l.6-.6,2.8.4L15.9,7.3l.6-.6L19,9.2Z" transform="translate(0 0)" fill="#fff"/></svg>