<?xml version="1.0" encoding="UTF-8"?>
<svg width="58px" height="58px" viewBox="0 0 58 58" version="1.1" xmlns="http://www.w3.org/2000/svg" xmlns:xlink="http://www.w3.org/1999/xlink">
    <!-- Generator: Sketch 47 (45396) - http://www.bohemiancoding.com/sketch -->
    <title>Group 9</title>
    <desc>Created with Sketch.</desc>
    <defs>
        <filter x="-25.0%" y="-22.7%" width="150.0%" height="150.0%" filterUnits="objectBoundingBox" id="filter-1">
            <feOffset dx="0" dy="1" in="SourceAlpha" result="shadowOffsetOuter1"></feOffset>
            <feGaussianBlur stdDeviation="3.5" in="shadowOffsetOuter1" result="shadowBlurOuter1"></feGaussianBlur>
            <feColorMatrix values="0 0 0 0 0.029715147   0 0 0 0 0.455596301   0 0 0 0 0.381195377  0 0 0 1 0" type="matrix" in="shadowBlurOuter1" result="shadowMatrixOuter1"></feColorMatrix>
            <feMerge>
                <feMergeNode in="shadowMatrixOuter1"></feMergeNode>
                <feMergeNode in="SourceGraphic"></feMergeNode>
            </feMerge>
        </filter>
    </defs>
    <g id="Page-1" stroke="none" stroke-width="1" fill="none" fill-rule="evenodd">
        <g id="Mobile" transform="translate(-253.000000, -981.000000)">
            <g id="Group-9" filter="url(#filter-1)" transform="translate(260.000000, 987.000000)">
                <circle id="Oval-3" fill="#33D9BC" cx="22" cy="22" r="22"></circle>
                <g id="apply" transform="translate(8.500000, 7.000000)" fill-rule="nonzero" fill="#146557">
                    <path d="M19.1199829,1.0354068 L19.1199829,3.49351521 L18.3069033,3.49351521 C13.4342245,3.49351521 8.56154569,3.49351521 3.6888669,3.49351521 C2.67827386,3.49351521 2.56007285,3.61139061 2.56007285,4.6148557 C2.56007285,11.8834996 2.56007285,19.1523128 2.56007285,26.4212954 C2.56007285,27.3602338 2.70130003,27.4984326 3.67198104,27.4984326 C10.2216473,27.4984326 16.7713136,27.4984326 23.3209798,27.4984326 C24.3008713,27.4984326 24.4497738,27.3460075 24.4497738,26.358293 C24.4497738,21.7225383 24.4497738,17.0867836 24.4497738,12.4510289 L24.4497738,11.6777257 L26.9432523,11.6777257 C26.9555329,11.9114442 26.9785591,12.1482111 26.9785591,12.3854861 C26.9785591,17.0664603 26.9345535,21.7479425 26.9995385,26.4279004 C27.0317751,28.7259625 25.3708207,30.0215757 23.4345756,29.9997281 C16.7941692,29.924193 10.1534216,29.9230075 3.51233292,29.9961715 C1.49728717,30.0170029 -0.0122062294,28.6040225 7.43948149e-05,26.5147827 C0.044079965,19.1109886 0.0154251751,11.7071946 0.0179836385,4.30340046 C0.0179836385,2.37268281 1.29721533,1.01864004 3.1996887,1.01101878 C8.38978751,0.990695441 13.5798863,1.0044137 18.7699851,1.00593795 C18.858508,1.00695412 18.9495893,1.02168854 19.1199829,1.0354068 Z" id="Shape"></path>
                    <polygon id="Shape" points="15.9211912 18 12 14.087651 23.0089141 3 27 6.9432964"></polygon>
                    <path d="M27.9589644,6 L24,2.06918758 C24.5068432,1.54507926 24.9942308,0.903071334 25.6188054,0.445838838 C26.023382,0.148612946 26.6289998,0 27.1443236,0 C28.640908,0.00297225892 30.2871507,2.02163144 29.9574033,3.41809775 C29.857631,3.8406539 29.587747,4.25181638 29.3088834,4.59659841 C28.892833,5.10634082 28.3989602,5.54970277 27.9589644,6 Z" id="Shape"></path>
                    <polygon id="Shape" points="9 20 10.3629449 15 14 18.7722438"></polygon>
                </g>
            </g>
        </g>
    </g>
</svg>