<svg xmlns="http://www.w3.org/2000/svg" xmlns:xlink="http://www.w3.org/1999/xlink" viewBox="0 0 2560 910"><defs><style>.cls-1,.cls-10,.cls-32,.cls-33{fill:none;}.cls-2{isolation:isolate;}.cls-3{clip-path:url(#clip-path);}.cls-4{fill:#eeece0;}.cls-5{fill:#d1d9d3;}.cls-6{fill:#cfc9be;}.cls-7{fill:#aba79f;}.cls-8{fill:#27b59c;}.cls-9{fill:#c59966;}.cls-10{stroke:#f8f8f9;stroke-miterlimit:10;stroke-width:20px;}.cls-11{fill:#fff;}.cls-12{fill:#baa4c5;}.cls-13{fill:#8b7b94;}.cls-14{fill:#c2c2c1;}.cls-15{fill:#1d1d1b;}.cls-16{fill:#b88a5c;}.cls-17{fill:#e8e8e8;}.cls-18{fill:#52c4b0;}.cls-19{fill:#75d0c0;}.cls-20{fill:#0f3041;}.cls-21{fill:#081928;fill-rule:evenodd;}.cls-22{fill:#d45846;}.cls-23{fill:#ea604e;}.cls-24{fill:#c8eaf5;}.cls-25{fill:#efdab9;}.cls-26{fill:#939292;}.cls-27,.cls-31{fill:#aee0e8;}.cls-28{fill:#5a5b5b;}.cls-29{fill:#bbc2c7;}.cls-29,.cls-30,.cls-31{mix-blend-mode:multiply;}.cls-32{stroke:#adadad;}.cls-32,.cls-33{stroke-linecap:round;stroke-linejoin:round;stroke-width:5px;}.cls-33{stroke:#27b59c;}.cls-34{fill:url(#linear-gradient);}.cls-35{fill:#ce3a34;}</style><clipPath id="clip-path"><rect class="cls-1" width="2560" height="910"/></clipPath><linearGradient id="linear-gradient" x1="1448.82" y1="130.25" x2="1518.28" y2="130.25" gradientUnits="userSpaceOnUse"><stop offset="0" stop-color="#42b584"/><stop offset="1" stop-color="#25a8ae"/></linearGradient></defs><title>bannercl</title><g class="cls-2"><g id="Layer_2" data-name="Layer 2"><g class="cls-3"><rect id="_Rectangle_" data-name="&lt;Rectangle&gt;" class="cls-4" x="-2" y="-3" width="2566" height="914"/><ellipse id="_Path_" data-name="&lt;Path&gt;" class="cls-5" cx="1025.32" cy="553.8" rx="330.69" ry="342.2"/><g id="_Group_" data-name="&lt;Group&gt;"><g id="_Group_2" data-name="&lt;Group&gt;"><rect id="_Rectangle_2" data-name="&lt;Rectangle&gt;" class="cls-6" x="119.62" y="550.36" width="188.9" height="173.56"/><rect id="_Rectangle_3" data-name="&lt;Rectangle&gt;" class="cls-7" x="119.62" y="723.91" width="269.6" height="36.65"/><g id="_Group_3" data-name="&lt;Group&gt;"><rect id="_Rectangle_4" data-name="&lt;Rectangle&gt;" class="cls-7" x="119.62" y="760.56" width="20.89" height="130.31"/><rect id="_Rectangle_5" data-name="&lt;Rectangle&gt;" class="cls-6" x="202.53" y="760.56" width="20.89" height="130.31"/><rect id="_Rectangle_6" data-name="&lt;Rectangle&gt;" class="cls-7" x="285.43" y="760.56" width="20.89" height="130.31"/><rect id="_Rectangle_7" data-name="&lt;Rectangle&gt;" class="cls-6" x="368.34" y="760.56" width="20.89" height="130.31"/></g></g><g id="_Group_4" data-name="&lt;Group&gt;"><rect id="_Rectangle_8" data-name="&lt;Rectangle&gt;" class="cls-6" x="420.48" y="550.36" width="188.9" height="173.56"/><rect id="_Rectangle_9" data-name="&lt;Rectangle&gt;" class="cls-7" x="420.48" y="723.91" width="269.6" height="36.65"/><g id="_Group_5" data-name="&lt;Group&gt;"><rect id="_Rectangle_10" data-name="&lt;Rectangle&gt;" class="cls-7" x="420.48" y="760.56" width="20.89" height="130.31"/><rect id="_Rectangle_11" data-name="&lt;Rectangle&gt;" class="cls-6" x="503.39" y="760.56" width="20.89" height="130.31"/><rect id="_Rectangle_12" data-name="&lt;Rectangle&gt;" class="cls-7" x="586.29" y="760.56" width="20.89" height="130.31"/><rect id="_Rectangle_13" data-name="&lt;Rectangle&gt;" class="cls-6" x="669.2" y="760.56" width="20.89" height="130.31"/></g></g><g id="_Group_6" data-name="&lt;Group&gt;"><g id="_Group_7" data-name="&lt;Group&gt;"><rect id="_Rectangle_14" data-name="&lt;Rectangle&gt;" class="cls-6" x="1751.38" y="550.36" width="188.9" height="173.56" transform="translate(3691.65 1274.27) rotate(-180)"/><rect id="_Rectangle_15" data-name="&lt;Rectangle&gt;" class="cls-7" x="1670.68" y="723.91" width="269.6" height="36.65" transform="translate(3610.95 1484.48) rotate(-180)"/><g id="_Group_8" data-name="&lt;Group&gt;"><rect id="_Rectangle_16" data-name="&lt;Rectangle&gt;" class="cls-7" x="1919.39" y="760.56" width="20.89" height="130.31" transform="translate(3859.67 1651.44) rotate(-180)"/><rect id="_Rectangle_17" data-name="&lt;Rectangle&gt;" class="cls-6" x="1836.48" y="760.56" width="20.89" height="130.31" transform="translate(3693.86 1651.44) rotate(-180)"/><rect id="_Rectangle_18" data-name="&lt;Rectangle&gt;" class="cls-7" x="1753.58" y="760.56" width="20.89" height="130.31" transform="translate(3528.05 1651.44) rotate(-180)"/><rect id="_Rectangle_19" data-name="&lt;Rectangle&gt;" class="cls-6" x="1670.68" y="760.56" width="20.89" height="130.31" transform="translate(3362.24 1651.44) rotate(-180)"/></g></g><g id="_Group_9" data-name="&lt;Group&gt;"><rect id="_Rectangle_20" data-name="&lt;Rectangle&gt;" class="cls-6" x="1450.52" y="550.36" width="188.9" height="173.56" transform="translate(3089.93 1274.27) rotate(-180)"/><rect id="_Rectangle_21" data-name="&lt;Rectangle&gt;" class="cls-7" x="1369.81" y="723.91" width="269.6" height="36.65" transform="translate(3009.23 1484.48) rotate(-180)"/><g id="_Group_10" data-name="&lt;Group&gt;"><rect id="_Rectangle_22" data-name="&lt;Rectangle&gt;" class="cls-7" x="1618.53" y="760.56" width="20.89" height="130.31" transform="translate(3257.94 1651.44) rotate(-180)"/><rect id="_Rectangle_23" data-name="&lt;Rectangle&gt;" class="cls-6" x="1535.62" y="760.56" width="20.89" height="130.31" transform="translate(3092.13 1651.44) rotate(-180)"/><rect id="_Rectangle_24" data-name="&lt;Rectangle&gt;" class="cls-7" x="1452.72" y="760.56" width="20.89" height="130.31" transform="translate(2926.32 1651.44) rotate(-180)"/><rect id="_Rectangle_25" data-name="&lt;Rectangle&gt;" class="cls-6" x="1369.81" y="760.56" width="20.89" height="130.31" transform="translate(2760.51 1651.44) rotate(-180)"/></g></g></g></g><rect id="_Rectangle_26" data-name="&lt;Rectangle&gt;" class="cls-8" x="-2" y="892.09" width="2563" height="28.91"/><g id="_Group_11" data-name="&lt;Group&gt;"><g id="_Group_12" data-name="&lt;Group&gt;"><g id="_Group_13" data-name="&lt;Group&gt;"><polygon id="_Path_2" data-name="&lt;Path&gt;" class="cls-9" points="766.23 262.35 740.81 262.35 740.81 313.81 777.58 313.81 766.23 262.35"/></g><path id="_Path_3" data-name="&lt;Path&gt;" class="cls-10" d="M759.19,311.89c0,57.61,45.13,104.31,100.8,104.31s100.8-46.7,100.8-104.31"/></g><g id="_Group_14" data-name="&lt;Group&gt;"><g id="_Group_15" data-name="&lt;Group&gt;"><polygon id="_Path_4" data-name="&lt;Path&gt;" class="cls-9" points="1284.41 262.35 1309.83 262.35 1309.83 313.81 1273.05 313.81 1284.41 262.35"/></g><path id="_Path_5" data-name="&lt;Path&gt;" class="cls-10" d="M1291.44,311.89c0,57.61-45.13,104.31-100.8,104.31s-100.8-46.7-100.8-104.31"/></g><g id="_Group_16" data-name="&lt;Group&gt;"><g id="_Group_17" data-name="&lt;Group&gt;"><g id="_Group_18" data-name="&lt;Group&gt;"><rect id="_Rectangle_27" data-name="&lt;Rectangle&gt;" class="cls-11" x="974.49" y="831.8" width="44.63" height="65.26"/></g><g id="_Group_19" data-name="&lt;Group&gt;"><rect id="_Rectangle_28" data-name="&lt;Rectangle&gt;" class="cls-11" x="1031.2" y="831.8" width="44.63" height="65.26"/></g><g id="_Group_20" data-name="&lt;Group&gt;"><polygon id="_Path_6" data-name="&lt;Path&gt;" class="cls-12" points="1031.01 607.8 1019.33 607.8 974.49 607.8 974.49 681.26 974.49 855.5 1019.33 855.5 1019.33 664.95 1031.01 664.95 1031.01 855.5 1075.84 855.5 1075.84 681.26 1075.84 607.8 1031.01 607.8"/></g><g id="_Group_21" data-name="&lt;Group&gt;"><path id="_Path_7" data-name="&lt;Path&gt;" class="cls-13" d="M1031.2,649.68h-12.09a2.67,2.67,0,0,1-2.63-2.72V607.8a2.63,2.63,0,1,1,5.26,0v36.44h9.46a2.72,2.72,0,0,1,0,5.44Z"/></g><g id="_Group_22" data-name="&lt;Group&gt;"><g id="_Group_23" data-name="&lt;Group&gt;"><path id="_Path_8" data-name="&lt;Path&gt;" class="cls-14" d="M1061.4,875.16h-15.77a2.72,2.72,0,0,1,0-5.44h15.77a2.72,2.72,0,0,1,0,5.44Z"/></g><g id="_Group_24" data-name="&lt;Group&gt;"><path id="_Path_9" data-name="&lt;Path&gt;" class="cls-14" d="M1061.4,885.07h-15.77a2.72,2.72,0,0,1,0-5.44h15.77a2.72,2.72,0,0,1,0,5.44Z"/></g></g><g id="_Group_25" data-name="&lt;Group&gt;"><g id="_Group_26" data-name="&lt;Group&gt;"><path id="_Path_10" data-name="&lt;Path&gt;" class="cls-14" d="M1004.68,875.16H988.92a2.72,2.72,0,0,1,0-5.44h15.77a2.72,2.72,0,0,1,0,5.44Z"/></g><g id="_Group_27" data-name="&lt;Group&gt;"><path id="_Path_11" data-name="&lt;Path&gt;" class="cls-14" d="M1004.68,885.07H988.92a2.72,2.72,0,0,1,0-5.44h15.77a2.72,2.72,0,0,1,0,5.44Z"/></g></g></g><g id="_Group_28" data-name="&lt;Group&gt;"><polygon id="_Path_12" data-name="&lt;Path&gt;" class="cls-11" points="1076.47 607.8 974.49 607.8 942.95 311.09 1108 311.09 1076.47 607.8"/></g><g id="_Group_29" data-name="&lt;Group&gt;"><rect id="_Rectangle_29" data-name="&lt;Rectangle&gt;" class="cls-9" x="1014.53" y="244.42" width="25.67" height="66.67"/></g><g id="_Group_30" data-name="&lt;Group&gt;"><g id="_Group_31" data-name="&lt;Group&gt;"><path id="_Path_13" data-name="&lt;Path&gt;" class="cls-15" d="M1083.55,150.09c0,29.91-23.65,54.39-52.56,54.39h-7.27c-28.91,0-52.56-24.47-52.56-54.39v-39c0-29.91,23.65-54.39,52.56-54.39H1031c28.91,0,52.56,24.47,52.56,54.39Z"/></g><g id="_Group_32" data-name="&lt;Group&gt;"><path id="_Compound_Path_" data-name="&lt;Compound Path&gt;" class="cls-15" d="M1031,207.2h-7.27c-30.43,0-55.18-25.62-55.18-57.1v-39c0-31.49,24.76-57.1,55.18-57.1H1031c30.43,0,55.18,25.62,55.18,57.1v39C1086.18,181.58,1061.43,207.2,1031,207.2Zm-7.27-147.81c-27.53,0-49.93,23.18-49.93,51.67v39c0,28.49,22.4,51.67,49.93,51.67H1031c27.53,0,49.93-23.18,49.93-51.67v-39c0-28.49-22.4-51.67-49.93-51.67Z"/></g></g><g id="_Group_33" data-name="&lt;Group&gt;"><g id="_Group_34" data-name="&lt;Group&gt;"><g id="_Group_35" data-name="&lt;Group&gt;"><path id="_Path_14" data-name="&lt;Path&gt;" class="cls-9" d="M1100.88,162c0,9.9-7.76,17.93-17.32,17.93s-17.32-8-17.32-17.93,17.43-27.94,27-27.94C1100.88,134.08,1100.88,134.5,1100.88,162Z"/></g><g id="_Group_36" data-name="&lt;Group&gt;"><path id="_Path_15" data-name="&lt;Path&gt;" class="cls-9" d="M953.85,162c0,9.9,7.76,17.93,17.32,17.93s17.32-8,17.32-17.93-17.43-27.94-27-27.94C953.85,134.08,953.85,134.5,953.85,162Z"/></g></g><g id="_Group_37" data-name="&lt;Group&gt;"><path id="_Path_16" data-name="&lt;Path&gt;" class="cls-9" d="M1053.12,261.6c-3.74,4.56-11.07,8.29-16.28,8.29h-19c-5.21,0-12.54-3.73-16.28-8.29l-14.77-18c-3.74-4.56-6.8-13.19-6.8-19.17V114.09a10.73,10.73,0,0,1,10.51-10.88h73.63a10.73,10.73,0,0,1,10.51,10.88V224.42c0,6-3.06,14.61-6.8,19.17Z"/></g><g id="_Group_38" data-name="&lt;Group&gt;"><path id="_Path_17" data-name="&lt;Path&gt;" class="cls-16" d="M1093.17,163.77a2.67,2.67,0,0,1-2.63-2.72V143.44a2.63,2.63,0,1,1,5.26,0v17.61A2.67,2.67,0,0,1,1093.17,163.77Z"/></g><g id="_Group_39" data-name="&lt;Group&gt;"><path id="_Path_18" data-name="&lt;Path&gt;" class="cls-16" d="M961.61,163.77a2.67,2.67,0,0,1-2.63-2.72V143.44a2.63,2.63,0,1,1,5.26,0v17.61A2.67,2.67,0,0,1,961.61,163.77Z"/></g><g id="_Group_40" data-name="&lt;Group&gt;"><path id="_Path_19" data-name="&lt;Path&gt;" class="cls-16" d="M1066.59,103.21h-6.26v149.6l9.12-11.12a27.16,27.16,0,0,0,5.24-14.78V111.6A8.27,8.27,0,0,0,1066.59,103.21Z"/></g><g id="_Group_41" data-name="&lt;Group&gt;"><g id="_Group_42" data-name="&lt;Group&gt;"><path id="_Path_20" data-name="&lt;Path&gt;" class="cls-15" d="M1060.33,139.59h-24a2.72,2.72,0,0,1,0-5.44h24a2.72,2.72,0,0,1,0,5.44Z"/></g><g id="_Group_43" data-name="&lt;Group&gt;"><path id="_Path_21" data-name="&lt;Path&gt;" class="cls-15" d="M1018.44,139.59h-24a2.72,2.72,0,0,1,0-5.44h24a2.72,2.72,0,0,1,0,5.44Z"/></g><g id="_Group_44" data-name="&lt;Group&gt;"><path id="_Path_22" data-name="&lt;Path&gt;" class="cls-15" d="M1036.28,154.3a2.66,2.66,0,0,1-2.61-2.45,2.7,2.7,0,0,1,2.35-3l11.35-1.19a2.65,2.65,0,0,1,2.88,2.43,2.7,2.7,0,0,1-2.35,3l-11.35,1.19Z"/></g><g id="_Group_45" data-name="&lt;Group&gt;"><path id="_Path_23" data-name="&lt;Path&gt;" class="cls-15" d="M1018.44,154.3h-.27l-11.35-1.19a2.7,2.7,0,0,1-2.35-3,2.65,2.65,0,0,1,2.88-2.43l11.35,1.19a2.7,2.7,0,0,1,2.35,3A2.66,2.66,0,0,1,1018.44,154.3Z"/></g><g id="_Group_46" data-name="&lt;Group&gt;"><path id="_Path_24" data-name="&lt;Path&gt;" class="cls-15" d="M1027.36,180.62a2.67,2.67,0,0,1-2.63-2.72V162.38a2.63,2.63,0,1,1,5.26,0V177.9A2.67,2.67,0,0,1,1027.36,180.62Z"/></g><g id="_Group_47" data-name="&lt;Group&gt;"><path id="_Path_25" data-name="&lt;Path&gt;" class="cls-15" d="M1027.36,222.4a14,14,0,0,1-13.7-14.18,2.63,2.63,0,1,1,5.26,0,8.45,8.45,0,1,0,16.89,0,2.63,2.63,0,1,1,5.26,0A14,14,0,0,1,1027.36,222.4Z"/></g></g></g><g id="_Group_48" data-name="&lt;Group&gt;"><polygon id="_Path_26" data-name="&lt;Path&gt;" class="cls-17" points="1072.19 363.57 1027.36 325.5 982.53 363.57 982.53 311.09 1072.19 311.09 1072.19 363.57"/></g><g id="_Group_49" data-name="&lt;Group&gt;"><polygon id="_Path_27" data-name="&lt;Path&gt;" class="cls-18" points="1046.67 556.41 1027.36 572.72 1008.05 556.41 1018.56 346.17 1036.16 346.17 1046.67 556.41"/></g><g id="_Group_50" data-name="&lt;Group&gt;"><ellipse id="_Path_28" data-name="&lt;Path&gt;" class="cls-19" cx="1027.36" cy="337.33" rx="16.16" ry="16.72"/></g></g><g id="_Group_51" data-name="&lt;Group&gt;"><g id="_Group_52" data-name="&lt;Group&gt;"><path id="_Path_29" data-name="&lt;Path&gt;" class="cls-20" d="M947.88,455.82a3.17,3.17,0,1,1-6.32.33l-2.16-41.9a18.82,18.82,0,0,1,4.21-12.16,25.35,25.35,0,0,1,11-8.32l40-14.51a3.14,3.14,0,0,1,4,2,3.3,3.3,0,0,1-1.95,4.17L956.7,400a18.74,18.74,0,0,0-8.11,6.19,12.29,12.29,0,0,0-2.87,7.77Z"/><path id="_Path_30" data-name="&lt;Path&gt;" class="cls-21" d="M944.72,472.58c8.84,0,16-7.46,16-16.6s-7.21-16.6-16-16.6-16,7.46-16,16.6S935.88,472.58,944.72,472.58Z"/><path id="_Path_31" data-name="&lt;Path&gt;" class="cls-21" d="M968.55,385l24.14-8.76a6.49,6.49,0,0,1,8.32,4.14h0a6.83,6.83,0,0,1-4,8.61l-24.14,8.76a6.49,6.49,0,0,1-8.32-4.14h0A6.83,6.83,0,0,1,968.55,385Z"/></g><g id="_Group_53" data-name="&lt;Group&gt;"><g id="_Group_54" data-name="&lt;Group&gt;"><g id="_Group_55" data-name="&lt;Group&gt;"><g id="_Group_56" data-name="&lt;Group&gt;"><polygon id="_Path_32" data-name="&lt;Path&gt;" class="cls-22" points="1026.42 463.46 895.3 463.46 900.04 566.57 1026.42 566.57 1154.69 566.57 1159.42 463.46 1026.42 463.46"/><polygon id="_Path_33" data-name="&lt;Path&gt;" class="cls-23" points="1026.42 451.46 895.3 451.46 895.3 463.46 1026.42 463.46 1159.42 463.46 1159.42 451.46 1026.42 451.46"/></g><g id="_Group_57" data-name="&lt;Group&gt;"><polygon id="_Path_34" data-name="&lt;Path&gt;" class="cls-23" points="1026.42 515.02 935.78 515.02 945.25 881.66 1026.42 881.66 1108.53 881.66 1118.94 515.02 1026.42 515.02"/><polygon id="_Path_35" data-name="&lt;Path&gt;" class="cls-22" points="1026.42 875.72 910.72 875.72 910.72 897.06 1026.42 897.06 1144.01 897.06 1144.01 875.72 1026.42 875.72"/></g></g></g></g></g></g></g></g><g id="Layer_3" data-name="Layer 3"><g class="cls-3"><rect id="_Rectangle_30" data-name="&lt;Rectangle&gt;" class="cls-24" x="1" y="-0.02" width="2560" height="914.02"/><rect id="_Rectangle_31" data-name="&lt;Rectangle&gt;" class="cls-1" x="43.94" y="79.29" width="2290.27" height="1085.71"/><circle class="cls-11" cx="1297" cy="901" r="768"/><circle class="cls-11" cx="2092" cy="941" r="467"/><circle class="cls-11" cx="469" cy="941" r="467"/><polygon class="cls-25" points="3.44 896.31 355.14 504.81 640 787 1297 216 1934 764 2187 528 2535 903 1639 1185 690 1132 43 989 3.44 896.31"/><polygon class="cls-26" points="-16 971.32 428.19 551.86 822.92 908.54 1406.92 296 1984.27 803.91 2185.92 605.12 2539.75 927.57 1996.64 1311.83 1378.39 1328 -16 971.32"/><g id="_Group_58" data-name="&lt;Group&gt;"><polygon id="_Path_36" data-name="&lt;Path&gt;" class="cls-9" points="1395.22 249.9 1379.47 249.9 1379.47 280.71 1402.26 280.71 1395.22 249.9"/></g><g id="_Group_59" data-name="&lt;Group&gt;"><g id="_Group_60" data-name="&lt;Group&gt;"><path id="_Path_37" data-name="&lt;Path&gt;" class="cls-8" d="M1251.42,279.61c-47.49,267.13-231.1,237.31-231.1,237.31L910.5,389.34c128.31,53.18,183.35-109.72,183.35-109.72Z"/><g id="_Group_61" data-name="&lt;Group&gt;"><g id="_Group_62" data-name="&lt;Group&gt;"><g id="_Group_63" data-name="&lt;Group&gt;"><g id="_Group_64" data-name="&lt;Group&gt;"><g id="_Group_65" data-name="&lt;Group&gt;"><path id="_Path_38" data-name="&lt;Path&gt;" class="cls-6" d="M1314.95,365.83a86.31,86.31,0,0,1-86.21-86.22h22.54a63.67,63.67,0,1,0,127.35,0h22.54A86.31,86.31,0,0,1,1314.95,365.83Z"/></g></g></g><g id="_Group_66" data-name="&lt;Group&gt;"><g id="_Group_67" data-name="&lt;Group&gt;"><g id="_Group_68" data-name="&lt;Group&gt;"><g id="_Group_69" data-name="&lt;Group&gt;"><rect id="_Rectangle_32" data-name="&lt;Rectangle&gt;" class="cls-27" x="1123.96" y="760" width="42.6" height="60.21"/></g><g id="_Group_70" data-name="&lt;Group&gt;"><rect id="_Rectangle_33" data-name="&lt;Rectangle&gt;" class="cls-27" x="1209.44" y="650.76" width="42.6" height="60.21"/></g><g id="_Group_71" data-name="&lt;Group&gt;"><polygon id="_Path_39" data-name="&lt;Path&gt;" class="cls-28" points="1177.92 553.34 1166.77 553.34 1123.96 553.34 1123.96 621.12 1123.96 781.87 1166.77 781.87 1166.77 606.07 1251.42 605.98 1251.42 553.34 1177.92 553.34"/></g><g id="_Group_72" data-name="&lt;Group&gt;"><path id="_Path_40" data-name="&lt;Path&gt;" class="cls-29" d="M1178.1,592h-11.54a2.51,2.51,0,0,1-2.51-2.51V553.34a2.51,2.51,0,0,1,5,0V587h9a2.51,2.51,0,0,1,0,5Z"/></g><g id="_Group_73" data-name="&lt;Group&gt;" class="cls-30"><g id="_Group_74" data-name="&lt;Group&gt;"><path id="_Path_41" data-name="&lt;Path&gt;" class="cls-27" d="M1238.27,690.76h-15.05a2.51,2.51,0,1,1,0-5h15.05a2.51,2.51,0,0,1,0,5Z"/></g><g id="_Group_75" data-name="&lt;Group&gt;"><path id="_Path_42" data-name="&lt;Path&gt;" class="cls-27" d="M1238.27,699.9h-15.05a2.51,2.51,0,1,1,0-5h15.05a2.51,2.51,0,0,1,0,5Z"/></g></g><g id="_Group_76" data-name="&lt;Group&gt;"><g id="_Group_77" data-name="&lt;Group&gt;"><path id="_Path_43" data-name="&lt;Path&gt;" class="cls-31" d="M1152.79,800h-15.05a2.51,2.51,0,1,1,0-5h15.05a2.51,2.51,0,1,1,0,5Z"/></g><g id="_Group_78" data-name="&lt;Group&gt;"><path id="_Path_44" data-name="&lt;Path&gt;" class="cls-31" d="M1152.79,809.14h-15.05a2.51,2.51,0,1,1,0-5h15.05a2.51,2.51,0,1,1,0,5Z"/></g></g></g><g id="_Group_79" data-name="&lt;Group&gt;"><polygon id="_Path_45" data-name="&lt;Path&gt;" class="cls-9" points="1114.72 553.34 1092.26 553.34 1092.26 509.4 1124.75 509.4 1114.72 553.34"/></g><g id="_Group_80" data-name="&lt;Group&gt;"><rect id="_Rectangle_34" data-name="&lt;Rectangle&gt;" class="cls-6" x="1092.25" y="279.61" width="32.5" height="237.31"/></g><g id="_Group_81" data-name="&lt;Group&gt;"><polygon id="_Path_46" data-name="&lt;Path&gt;" class="cls-27" points="1221.32 553.34 1123.96 553.34 1093.86 279.61 1251.42 279.61 1221.32 553.34"/></g><g id="_Group_82" data-name="&lt;Group&gt;"><rect id="_Rectangle_35" data-name="&lt;Rectangle&gt;" class="cls-9" x="1162.18" y="218.11" width="24.51" height="61.51"/></g><g id="_Group_83" data-name="&lt;Group&gt;"><g id="_Group_84" data-name="&lt;Group&gt;"><rect id="_Path_47" data-name="&lt;Path&gt;" class="cls-15" x="1120.79" y="44.89" width="107.29" height="136.36" rx="50.17" ry="50.17"/></g><g id="_Group_85" data-name="&lt;Group&gt;"><path id="_Compound_Path_2" data-name="&lt;Compound Path&gt;" class="cls-15" d="M1177.91,183.76H1171a52.74,52.74,0,0,1-52.68-52.68v-36A52.74,52.74,0,0,1,1171,42.38h6.94a52.74,52.74,0,0,1,52.68,52.68v36A52.74,52.74,0,0,1,1177.91,183.76ZM1171,47.4a47.72,47.72,0,0,0-47.66,47.66v36A47.72,47.72,0,0,0,1171,178.74h6.94a47.72,47.72,0,0,0,47.66-47.66v-36a47.72,47.72,0,0,0-47.66-47.66Z"/></g></g><g id="_Group_86" data-name="&lt;Group&gt;"><g id="_Group_87" data-name="&lt;Group&gt;"><g id="_Group_88" data-name="&lt;Group&gt;"><path id="_Path_48" data-name="&lt;Path&gt;" class="cls-9" d="M1244.62,142.08a16.54,16.54,0,1,1-33.08,0c0-9.13,16.64-25.78,25.77-25.78C1244.62,116.3,1244.62,116.69,1244.62,142.08Z"/></g><g id="_Group_89" data-name="&lt;Group&gt;"><path id="_Path_49" data-name="&lt;Path&gt;" class="cls-9" d="M1104.25,142.08a16.54,16.54,0,0,0,33.08,0c0-9.13-16.64-25.78-25.77-25.78C1104.25,116.3,1104.25,116.69,1104.25,142.08Z"/></g></g><g id="_Group_90" data-name="&lt;Group&gt;"><path id="_Path_50" data-name="&lt;Path&gt;" class="cls-9" d="M1199,233.95c-3.57,4.21-10.57,7.65-15.54,7.65h-18.1c-5,0-12-3.44-15.54-7.65l-14.1-16.61c-3.57-4.21-6.49-12.17-6.49-17.69V97.86a10.06,10.06,0,0,1,10-10h70.3a10.06,10.06,0,0,1,10,10V199.65c0,5.52-2.92,13.48-6.49,17.69Z"/></g><g id="_Group_91" data-name="&lt;Group&gt;"><path id="_Path_51" data-name="&lt;Path&gt;" class="cls-16" d="M1237.27,143.7a2.51,2.51,0,0,1-2.51-2.51V124.94a2.51,2.51,0,1,1,5,0v16.25A2.51,2.51,0,0,1,1237.27,143.7Z"/></g><g id="_Group_92" data-name="&lt;Group&gt;"><path id="_Path_52" data-name="&lt;Path&gt;" class="cls-16" d="M1111.66,143.7a2.51,2.51,0,0,1-2.51-2.51V124.94a2.51,2.51,0,1,1,5,0v16.25A2.51,2.51,0,0,1,1111.66,143.7Z"/></g><g id="_Group_93" data-name="&lt;Group&gt;"><path id="_Path_53" data-name="&lt;Path&gt;" class="cls-16" d="M1211.88,87.83h-6v138l8.7-10.26a24.53,24.53,0,0,0,5-13.64V95.56A7.76,7.76,0,0,0,1211.88,87.83Z"/></g><g id="_Group_94" data-name="&lt;Group&gt;"><g id="_Group_95" data-name="&lt;Group&gt;"><path id="_Path_54" data-name="&lt;Path&gt;" class="cls-15" d="M1205.91,121.39h-23a2.51,2.51,0,0,1,0-5h23a2.51,2.51,0,1,1,0,5Z"/></g><g id="_Group_96" data-name="&lt;Group&gt;"><path id="_Path_55" data-name="&lt;Path&gt;" class="cls-15" d="M1165.92,121.39h-23a2.51,2.51,0,1,1,0-5h23a2.51,2.51,0,0,1,0,5Z"/></g><g id="_Group_97" data-name="&lt;Group&gt;"><path id="_Path_56" data-name="&lt;Path&gt;" class="cls-15" d="M1183,135a2.51,2.51,0,0,1-.25-5l10.84-1.1a2.51,2.51,0,0,1,.5,5l-10.84,1.1Z"/></g><g id="_Group_98" data-name="&lt;Group&gt;"><path id="_Path_57" data-name="&lt;Path&gt;" class="cls-15" d="M1165.92,135h-.26l-10.84-1.1a2.51,2.51,0,0,1,.5-5l10.84,1.1a2.51,2.51,0,0,1-.25,5Z"/></g><g id="_Group_99" data-name="&lt;Group&gt;"><path id="_Path_58" data-name="&lt;Path&gt;" class="cls-15" d="M1174.44,159.24a2.51,2.51,0,0,1-2.51-2.51V142.42a2.51,2.51,0,0,1,5,0v14.31A2.51,2.51,0,0,1,1174.44,159.24Z"/></g><g id="_Group_100" data-name="&lt;Group&gt;"><path id="_Path_59" data-name="&lt;Path&gt;" class="cls-15" d="M1174.44,197.78a13.1,13.1,0,0,1-13.08-13.08,2.51,2.51,0,1,1,5,0,8.06,8.06,0,1,0,16.13,0,2.51,2.51,0,1,1,5,0A13.1,13.1,0,0,1,1174.44,197.78Z"/></g></g></g><g id="_Group_101" data-name="&lt;Group&gt;"><polygon id="_Path_60" data-name="&lt;Path&gt;" class="cls-6" points="1217.24 328.03 1174.44 292.91 1131.64 328.03 1131.64 279.61 1217.24 279.61 1217.24 328.03"/></g><g id="_Group_102" data-name="&lt;Group&gt;"><polygon id="_Path_61" data-name="&lt;Path&gt;" class="cls-11" points="1192.88 505.93 1174.44 520.98 1156 505.93 1166.04 311.97 1182.84 311.97 1192.88 505.93"/></g><g id="_Group_103" data-name="&lt;Group&gt;"><circle id="_Path_62" data-name="&lt;Path&gt;" class="cls-11" cx="1174.44" cy="303.82" r="15.43"/></g></g><rect id="_Rectangle_36" data-name="&lt;Rectangle&gt;" class="cls-28" x="1209.44" y="553.34" width="41.98" height="118.63"/></g></g><line id="_Path_63" data-name="&lt;Path&gt;" class="cls-32" x1="1386.09" y1="69.78" x2="1386.09" y2="623.42"/></g></g><g id="_Rectangle_37" data-name="&lt;Rectangle&gt;"><path class="cls-11" d="M1581,190c-65-28.67-129.94,28.67-194.91,0V70.51c65,28.67,129.94-28.67,194.91,0Z"/><path class="cls-33" d="M1581,190c-65-28.67-129.94,28.67-194.91,0V70.51c65,28.67,129.94-28.67,194.91,0Z"/></g></g><g id="_Group_104" data-name="&lt;Group&gt;"><g id="_Group_105" data-name="&lt;Group&gt;"><path id="_Compound_Path_3" data-name="&lt;Compound Path&gt;" class="cls-34" d="M1463.67,165a14.87,14.87,0,0,1-14.85-14.85V110.37a14.87,14.87,0,0,1,14.85-14.85h39.76a14.87,14.87,0,0,1,14.85,14.85v39.76A14.87,14.87,0,0,1,1503.42,165Zm0-66a11.37,11.37,0,0,0-11.36,11.36v39.76a11.37,11.37,0,0,0,11.36,11.36h39.76a11.37,11.37,0,0,0,11.36-11.36V110.37A11.37,11.37,0,0,0,1503.42,99Z"/></g><rect id="_Path_64" data-name="&lt;Path&gt;" class="cls-35" x="1463.47" y="139.06" width="40.16" height="3.8" rx="0.42" ry="0.42"/><rect id="_Path_65" data-name="&lt;Path&gt;" class="cls-35" x="1468.26" y="131.92" width="30.57" height="3.8" rx="0.42" ry="0.42"/><rect id="_Path_66" data-name="&lt;Path&gt;" class="cls-35" x="1473.06" y="124.78" width="21.38" height="3.8" rx="0.42" ry="0.42"/><rect id="_Path_67" data-name="&lt;Path&gt;" class="cls-35" x="1477.45" y="117.63" width="12.59" height="3.8" rx="0.42" ry="0.42"/></g></g></g></g></svg>