<?xml version="1.0" encoding="UTF-8"?>
<svg width="182px" height="182px" viewBox="0 0 182 182" version="1.1" xmlns="http://www.w3.org/2000/svg" xmlns:xlink="http://www.w3.org/1999/xlink">
    <!-- Generator: Sketch 46.2 (44496) - http://www.bohemiancoding.com/sketch -->
    <title>event</title>
    <desc>Created with Sketch.</desc>
    <defs>
        <rect id="path-1" x="0" y="0" width="182" height="182" rx="22"></rect>
    </defs>
    <g id="Page-1" stroke="none" stroke-width="1" fill="none" fill-rule="evenodd">
        <g id="Desktop-HD" transform="translate(-938.000000, -1424.000000)">
            <g id="event" transform="translate(938.000000, 1424.000000)">
                <g id="Path-4">
                    <g>
                        <mask id="mask-2" fill="white">
                            <use xlink:href="#path-1"></use>
                        </mask>
                        <use id="Mask" fill="#EFDAB9" xlink:href="#path-1"></use>
                        <polygon fill="#BAAB92" mask="url(#mask-2)" points="50 144 182 219.5 240 113 128.5 54.5"></polygon>
                    </g>
                </g>
                <g id="EVENT" transform="translate(99.285661, 84.285661) rotate(-17.000000) translate(-99.285661, -84.285661) translate(31.785661, 16.785661)" fill-rule="nonzero">
                    <path d="M30.3338579,135 C27.5735341,134.952713 24.950455,133.801897 23.0636014,131.810341 C16.5447106,125.441482 9.98348926,119.103997 3.62333766,112.578269 C-1.06476078,107.757179 -1.29757831,102.643267 3.47518105,97.7698871 C13.6239088,87.3119902 23.9419584,77.0841671 34.535156,67.1073335 C38.768202,63.1228748 44.6309707,61.5019008 50.1233479,59.7240583 C61.5816852,56.1208616 71.914457,49.6759792 80.135644,41.0044229 C82.8765413,38.1285012 81.7442015,34.1649583 85.0883078,31.4249893 C88.7816404,28.413115 90.8135025,27.911136 93.9988696,31.6132315 C97.1842367,35.315327 101.004561,38.4840697 104.369832,42.0711284 C105.819651,43.6084392 109.132009,45.0097974 107.608112,47.3628242 C105.77732,50.1864563 103.830119,53.8571781 99.4912468,53.7003097 C98.4756436,53.5791231 97.4631742,53.9489715 96.7715147,54.6938099 C89.5859192,61.6587692 82.2098365,68.5609811 79.2467043,78.4855253 C75.0156764,92.7455478 66.5826622,105.43713 55.0230986,114.941754 C49.4143127,119.679181 44.4404836,125.221866 39.2550023,130.398525 C36.9390631,132.943973 33.7712829,134.577895 30.3338579,135 Z" id="Shape" fill="#000000"></path>
                    <path d="M135,12.4897712 C134.902728,15.2244726 127.077743,24.7308156 124.905337,24.361848 C121.662939,23.8083965 120.355173,25.9245345 118.906902,27.6174449 C116.053592,31.0358217 113.665026,30.6125941 111.157572,27.3895531 C110.566098,26.7152992 109.938294,26.0740718 109.276982,25.468751 C104.197226,20.2597959 103.138043,20.9000633 108.866278,14.6167612 C111.946556,11.2092364 113.005739,6.18476509 116.918232,2.97257611 C121.533244,-0.825620318 123.11121,-1.21629195 127.304711,3.15705994 C130.222868,6.16306111 134.265057,8.39857101 135,12.4897712 Z" id="Shape" fill="#020201"></path>
                    <path d="M39,46.8297085 C38.8001088,47.359627 38.7801197,47.8295548 38.5602394,47.9495364 C34.9660381,49.9085854 31.9919885,52.8353069 29.9749133,56.3982383 C29.2852887,57.6580448 27.4962627,56.7681815 26.9165783,55.3084058 C25.815145,52.5147287 23.6196816,50.2931208 20.8398865,49.1593505 C18.1213664,47.8995441 18.6110998,45.979839 21.0297831,44.8900065 C23.6714817,43.8668715 25.7585109,41.7753959 26.7766545,39.1308913 C27.5462355,37.1311986 29.505169,35.8913891 30.774478,38.4110019 C32.1463071,41.6127314 34.7409358,44.1327726 37.980555,45.4099266 C38.4403047,45.6398913 38.7001632,46.4197715 39,46.8297085 Z" id="Shape" fill="#F4BA3F"></path>
                    <path d="M110.039632,95 C108.939839,94.8165206 108.030333,94.0405667 107.67382,92.9815827 C106.667091,90.0750618 104.653633,88.4098675 101.895197,87.1483567 C99.3481733,85.9776746 99.3884424,83.8987048 101.895197,82.7482069 C104.511816,81.6310547 106.594147,79.5399767 107.704021,76.9149809 C108.871827,74.3717751 110.996024,74.3515909 112.093359,76.9149809 C113.274671,79.6978811 115.530101,81.8824087 118.345144,82.9702328 C119.91564,83.6665868 120.831764,85.442794 118.939114,86.4217264 C115.596576,87.9507617 112.928475,90.654156 111.438985,94.0210676 C111.30811,94.4953957 110.432256,94.7376057 110.039632,95 Z" id="Shape" fill="#F4BA3E"></path>
                    <path d="M64.856038,7 C65.4658908,7.25173056 66.1557243,7.31214589 66.3156858,7.634361 C67.9218091,11.0960681 70.6808486,13.8820018 74.113804,15.5084928 C75.7534084,16.334169 74.9036134,18.327875 73.3039994,19.0025129 C70.4976127,20.0487213 68.2632149,22.2442411 67.1554831,25.0440463 C66.0857412,27.6419056 64.0162406,27.6620441 62.9265036,25.0440463 C61.8373766,22.2424738 59.6106409,20.0437575 56.80798,19.0025129 C54.9684239,18.2473213 54.118629,16.424792 56.2781079,15.2970391 C59.4773359,13.615479 62.0867062,11.6419115 63.3563998,8.10761445 C63.5263588,7.60415334 64.346161,7.30207667 64.856038,7 Z" id="Shape" fill="#F4BA3E"></path>
                    <path d="M127.59499,27.1561136 C130.245714,26.8545961 131.535256,26.8649933 131.924165,28.341389 C132.313074,29.8177847 131.136112,30.6391598 129.989853,30.8886915 C123.255581,32.3546901 117.974602,36.2120338 113.103001,40.8803555 C112.079555,41.9200708 110.790014,42.5542972 109.520941,41.3274331 C109.166438,40.9550969 108.978686,40.4507752 109.001928,39.9333034 C109.025169,39.4158317 109.257348,38.9309749 109.643755,38.5929819 C114.955437,32.7289876 121.290565,28.6533036 127.59499,27.1561136 Z" id="Shape" fill="#F64850"></path>
                    <path d="M107.971536,6.93673551 C106.330519,13.7283995 102.259133,19.8562166 96.6817498,25.1261393 C95.7366067,26.0146728 94.6045122,26.464046 93.5658934,25.2997608 C92.5272745,24.1354755 93.0777425,22.9916163 93.9397961,22.1030828 C98.7486013,17.139551 102.581105,11.6857938 104.20135,4.81242558 C104.450619,3.7094185 105.302286,2.60641142 106.870601,3.1374889 C107.82613,3.46430581 108.096171,4.25070901 107.971536,6.93673551 Z" id="Shape" fill="#F64850"></path>
                    <path d="M108,29.1341818 C106.786886,31.4103427 105.416903,33.5039814 102.844263,33.9871288 C102.295397,34.0571096 101.749095,33.8386862 101.390892,33.4060389 C101.032689,32.9733916 100.910725,32.3846673 101.066423,31.8398071 C102.007633,29.5314363 103.513568,27.4807441 106.148955,27.0190699 C107.487564,26.8365476 107.8013,27.9961013 108,29.1341818 Z" id="Shape" fill="#F64851"></path>
                    <path d="M43.115937,82.9093579 C42.2374633,85.1156558 43.6874741,86.3869036 45.0422288,87.752707 C48.6513799,91.4088578 52.2181948,95.1070332 55.7955939,98.7947025 C56.1286932,99.4344932 56.0498215,100.209169 55.5944975,100.769864 C49.9637984,106.852943 44.5553638,113.156651 37.7180864,118 C36.5068113,117.44667 35.1350303,117.345942 33.8549189,117.716333 C32.5058891,117.607501 31.4349762,116.544464 31.3253379,115.205356 C32.2673157,112.715391 30.5844565,111.339082 29.0709415,109.847204 C24.6044847,105.392584 20.2650362,100.769864 15.5974831,96.5673923 C13.3113346,94.4661562 13.5971032,93.2369331 15.7033233,91.3143021 C20.3073723,87.0277806 24.8161651,82.6151849 29.0921095,78.0029717 C31.367674,75.5550317 32.9870292,75.1452907 35.2202575,77.9294285 C36.4374199,79.4423184 37.7604225,81.5330483 40.4170117,80.3878747 C41.7872167,80.526582 42.8934918,81.5601246 43.115937,82.9093579 Z" id="Shape" fill="#F4B93D"></path>
                    <path d="M42.2411128,81.622925 L39.4687476,79.1426181 C40.9632257,76.2815171 38.3857924,75.025926 36.7938484,73.6880011 C34.0106536,71.3517783 34.6279381,69.8697692 37.5302579,68.3363014 C44.0279888,64.919447 51.0563678,62.8919762 58.3338264,60 C58.7236902,63.7461898 59.1135541,67.0910021 59.4167815,70.4358144 C59.5575657,72.1957002 59.5792248,73.9247109 61.7776238,74.5525064 C70.127208,75.5302208 70.343799,75.9007231 66.9216608,83.8150636 C65.8602343,86.3311994 64.5853697,88.7611866 63.1096586,91.081025 C62.1025103,92.6350763 61.095362,94.3949621 58.6045652,93.9215426 C54.8575403,90.4841047 51.0888564,87.0672503 47.3743202,83.6298124 C45.955649,82.2301371 44.5911255,80.861337 42.2411128,81.622925 Z" id="Shape" fill="#00B66B"></path>
                    <path d="M32.4038701,115.665052 L35,118.209838 L34.9022378,121.180529 C33.5009794,126.632121 30.220514,128.761649 24.9413545,127.760771 C18.8909597,121.936512 12.7536651,116.208081 6.83361997,110.266698 C3.21641806,106.667796 5.30201196,99.3741627 10.0271856,98.096446 C11.8738052,97.5960069 12.5472782,99.1612099 13.5031754,100.076907 C18.1414494,104.538268 22.7145485,109.063515 27.2985101,113.578114 C28.7214934,114.919717 30.0467145,116.506215 32.4038701,115.665052 Z" id="Shape" fill="#00B66B"></path>
                    <path d="M37,116.83253 C42.2555509,109.809007 49.7329606,104.775998 55.2555619,98 C59.96633,100.547445 60.2867904,103.09489 55.9071647,106.591181 C51.8523466,109.871272 48.1028754,113.487956 44.7017321,117.399775 C41.5291739,121.030142 39.2325409,120.875439 37,116.83253 Z" id="Shape" fill="#ED9225"></path>
                    <path d="M59,95.8299678 C64.1012647,91.2856864 65.417391,84.6288092 67.5395171,78.401053 C68.172074,76.5415286 67.1110109,76.2004324 65.764277,76.1234107 C64.4175431,76.0463889 63.0299991,76.3874851 61.9791386,75.1331314 C74.762908,74.6820042 74.7731105,74.6820042 70.2839976,87.0384887 C69.3759667,89.7915959 68.3338598,92.4911094 67.1620235,95.1257693 C64.0910622,101.496566 63.3870877,101.507569 59,95.8299678 Z" id="Shape" fill="#00874F"></path>
                    <path d="M77.9284298,60 C74.66359,57.7949152 73.9773498,52.4984914 76.63913,49.8291782 C78.7186458,47.7190492 81.1204865,45.9676421 82.8776773,43.6465002 C85.9137704,39.6267045 88.2012377,40.4813067 90.4679099,44.2267857 C91.5076678,45.6616734 90.8630179,46.9488521 89.9064406,47.9511634 C86.0281437,52.0553643 82.4305814,56.4655339 77.9284298,60 Z" id="Shape" fill="#00B56B"></path>
                    <path d="M78,59.0348398 C79.9040032,54.7477971 83.7921782,52.1816096 86.7584148,48.8204071 C88.0511328,47.351139 89.9952203,46.324664 90.0653678,44 C95.2462608,48.5788836 95.2462608,48.5788836 90.4461684,53.3892272 C89.4165487,54.2229432 88.4882239,55.1754632 87.6803532,56.2271287 C85.3254019,60.2525209 82.0585332,60.8261393 78,59.0348398 Z" id="Shape" fill="#00874F"></path>
                    <path d="M68.2065957,70.8485178 C65.1855783,71.3714988 63.2442746,70.6229182 63.6368978,67.3004506 C64.0622396,63.6908562 60.594068,59.3326812 66.4506975,56.7280307 C69.2972157,55.4667235 70.1915242,55.7025777 70.4205544,58.5635915 C70.616866,61.0246785 70.2460552,63.8549287 73.8560074,64.6445275 C74.4449422,69.6795014 73.3543222,70.9202995 68.2065957,70.8485178 Z" id="Shape" fill="#EFB53B"></path>
                    <path d="M25,126.786779 C29.1158959,126.698782 31.4598002,123.486886 33.6255678,120 C35.3694326,122.199928 39.2509381,123.651881 35.2569252,127.809745 C31.0191462,132.220602 29.0315154,132.220602 25,126.786779 Z" id="Shape" fill="#00854E"></path>
                    <path d="M88.8654858,34 C89.5995258,34.6444327 90.2531231,35.1409628 90.8765543,35.7325731 C93.832825,38.8103555 96.7756885,41.8987023 99.705145,44.9976136 C100.650347,45.9906739 101.796656,46.9097828 100.217967,48.3993731 C98.8504409,49.6882385 98.1063455,48.6317914 97.3220288,47.7549404 C94.3054261,44.5855993 91.1882699,41.3423069 88.1515565,38.0990145 C87.4979592,37.4017595 86.4421483,36.7150689 87.3571844,35.5001548 C87.8231951,34.9608263 88.3274032,34.4593414 88.8654858,34 L88.8654858,34 Z" id="Shape" fill="#006C3C"></path>
                    <path d="M68,70.9756747 C72.0664979,70.7906157 72.5473691,67.1935309 73.415028,64.0359613 C75.5057724,64.2557189 79.1123065,63.1916295 78.9973155,65.794022 C78.8614172,68.8821945 77.1574605,72.9881916 72.5578228,71.7853079 C71.0629405,71.3342266 69.5157897,71.2069985 68,70.9756747 Z" id="Shape" fill="#E38C23"></path>
                    <path d="M125.991778,8 C127.435304,10.5910468 133.805149,10.8789409 129.566224,16.1717629 C125.327298,21.464585 122.749573,18.3198958 120,14.920531 C121.145656,11.9308616 123.574445,9.93774867 125.991778,8 Z" id="Shape" fill="#60462A"></path>
                    <path d="M127,7.6553577 C126.402132,11.3335546 123.339581,13.0140087 120.61867,15 C117.983169,12.9435002 114.774202,11.3570574 119.178905,7.59660056 C122.253657,4.95252934 124.425506,3.37783803 127,7.6553577 Z" id="Shape" fill="#7C6145"></path>
                    <path d="M120,20.2592795 C119.116302,22.0623547 117.863463,24.2903585 116.185555,23.968791 C114.194437,23.5898006 111.923668,21.6718799 112.00197,19.3749687 C112.0579,17.7901001 113.903599,15.6654573 115.905903,16.0444476 C117.908208,16.423438 119.250534,18.180575 120,20.2592795 Z" id="Shape" fill="#47321C"></path>
                </g>
            </g>
        </g>
    </g>
</svg>