<?xml version="1.0" encoding="UTF-8"?>
<svg width="182px" height="182px" viewBox="0 0 182 182" version="1.1" xmlns="http://www.w3.org/2000/svg" xmlns:xlink="http://www.w3.org/1999/xlink">
    <!-- Generator: Sketch 46.2 (44496) - http://www.bohemiancoding.com/sketch -->
    <title>incentive</title>
    <desc>Created with Sketch.</desc>
    <defs>
        <rect id="path-1" x="0" y="0" width="182" height="182" rx="22"></rect>
    </defs>
    <g id="Page-1" stroke="none" stroke-width="1" fill="none" fill-rule="evenodd">
        <g id="Desktop-HD" transform="translate(-322.000000, -1607.000000)">
            <g id="incentive" transform="translate(322.000000, 1607.000000)">
                <g id="Path-5">
                    <mask id="mask-2" fill="white">
                        <use xlink:href="#path-1"></use>
                    </mask>
                    <use id="Mask" fill="#EFDAB9" xlink:href="#path-1"></use>
                    <polygon fill="#BAAB92" mask="url(#mask-2)" points="50.5 153 155.5 233.5 224 201 217 131 139 62"></polygon>
                </g>
                <g id="incentives" transform="translate(42.000000, 24.000000)" fill-rule="nonzero">
                    <rect id="Rectangle-path" fill="#9ECCA6" x="3" y="38" width="94" height="32"></rect>
                    <path d="M96.3555318,72 L1.64438589,72 C0.736216639,72 1.11218656e-16,71.2610798 0,70.3495756 L0,38.6504244 C-1.11218656e-16,37.7389202 0.736216639,37 1.64438589,37 L96.3555318,37 C97.263701,37 97.9999177,37.7389202 97.9999177,38.6504244 L97.9999177,70.3330714 C98.0043075,70.7736437 97.8330001,71.197688 97.5241408,71.5107814 C97.2152816,71.8238748 96.7945141,72.000022 96.3555318,72 Z M3.32165949,68.6661427 L94.694702,68.6661427 L94.694702,40.317353 L3.32165949,40.317353 L3.32165949,68.6661427 Z" id="Shape" fill="#000000"></path>
                    <rect id="Rectangle-path" fill="#9ECCA6" x="10" y="69" width="78" height="59"></rect>
                    <path d="M89.3339207,130 L9.66599592,130 C8.74589178,130 8,129.273595 8,128.37753 L8,69.6224703 C8,68.7264047 8.74589178,68 9.66599592,68 L89.3339207,68 C90.2540248,68 90.9999166,68.7264047 90.9999166,69.6224703 L90.9999166,128.361305 C91.0043641,128.794415 90.8308054,129.211277 90.5178872,129.519068 C90.204969,129.826858 89.778672,130.000022 89.3339207,130 L89.3339207,130 Z M11.3486518,126.72261 L87.6512648,126.72261 L87.6512648,71.2611654 L11.3486518,71.2611654 L11.3486518,126.72261 Z" id="Shape" fill="#000000"></path>
                    <path d="M48.9801081,134.999671 C47.8865246,134.999671 47,134.270005 47,133.369916 L47,18.6460522 C47,17.7369627 47.8953898,17 48.9999092,17 C50.1044285,17 50.9998184,17.7369627 50.9998184,18.6460522 L50.9998184,133.348186 C51.0070827,133.789887 50.7961908,134.215095 50.4154414,134.526428 C50.034692,134.83776 49.5167039,135.008546 48.9801081,134.999671 Z" id="Shape" fill="#C61E47"></path>
                    <path d="M48.7048712,33.9779942 C48.1053466,33.9877226 47.5461479,33.6817726 47.2381621,33.1755251 C46.9301764,32.6692776 46.9202582,32.0397493 47.2121481,31.5243503 L59.3272458,9.3315261 C59.4670139,9.06195535 59.6291449,8.78138172 59.7968666,8.47330087 C63.9546881,1.4122967 72.6272266,-1.74191301 80.4523444,0.96088581 C88.2774622,3.66368463 93.0440121,11.4597609 91.8048875,19.5288841 C90.5657628,27.5980073 83.6711035,33.6600816 75.3838036,33.9669913 L74.8247313,33.9669913 L74.2656589,33.9669913 L48.7160527,34 L48.7048712,33.9779942 Z M74.7520519,3.3129466 C69.8261912,3.31923424 65.2720015,5.89173196 62.7823129,10.074221 C62.6145912,10.3547946 62.4804139,10.6243654 62.3518272,10.855426 L51.5617309,30.6606236 L74.3495198,30.6331164 L74.8247313,30.6331164 L75.2328541,30.6331164 C80.1445656,30.4744854 84.6039623,27.7692171 86.9543933,23.5223097 C89.3048242,19.2754022 89.1950622,14.1214751 86.6658836,9.97519502 C84.1783707,5.83043293 79.6437315,3.29464982 74.7520519,3.3129466 Z" id="Shape" fill="#C61E47"></path>
                    <path d="M49.2953299,34 L49.2953299,34 L23.6760664,33.9669938 L23.2120911,33.9669938 L22.6530847,33.9669938 C16.5460738,33.7585918 11.0067943,30.3864336 8.09082933,25.1019007 C5.17486436,19.8173679 5.3173847,13.4091098 8.46550217,8.25518098 C10.8170689,4.38882419 14.6346103,1.60149953 19.0765555,0.507668296 C23.5185008,-0.58616294 28.2201433,0.103308411 32.1450134,2.42408949 C34.6388599,3.88822927 36.7142264,5.9513615 38.1766925,8.42021187 C38.3779348,8.76127571 38.5344566,9.05283028 38.6909784,9.34438486 L50.787877,31.5410397 C51.0797323,32.0564 51.0698154,32.6858809 50.7618659,33.1920903 C50.4539165,33.6982996 49.8947838,34.0042267 49.2953299,33.994499 L49.2953299,34 Z M23.5810353,30.6333698 L46.4388071,30.660875 L35.2586791,10.1310321 C32.7926718,5.95386262 28.266416,3.37078975 23.357415,3.33914192 C18.448414,3.3074941 13.8881558,5.83198715 11.3667454,9.97700327 C8.84160753,14.11549 8.72685805,19.2590409 11.0649977,23.5025957 C13.4031373,27.7461506 17.8460268,30.4578617 22.7481158,30.6333698 L23.206501,30.6333698 L23.5810353,30.6333698 Z" id="Shape" fill="#C61E47"></path>
                </g>
            </g>
        </g>
    </g>
</svg>