<?xml version="1.0" encoding="UTF-8"?>
<svg width="198px" height="257px" viewBox="0 0 198 257" version="1.1" xmlns="http://www.w3.org/2000/svg" xmlns:xlink="http://www.w3.org/1999/xlink">
    <!-- Generator: Sketch 46.2 (44496) - http://www.bohemiancoding.com/sketch -->
    <title>leader</title>
    <desc>Created with Sketch.</desc>
    <defs></defs>
    <g id="Page-1" stroke="none" stroke-width="1" fill="none" fill-rule="evenodd">
        <g id="Desktop-HD" transform="translate(-920.000000, -692.000000)">
            <g id="leader" transform="translate(860.000000, 691.000000)">
                <path d="M73.2369883,1 C100.922132,20.5441057 61.1886606,64.2768122 60.0556858,88.8199545 C59.5883888,98.9066631 62.0571277,107.663841 67.6514664,116 L142.546834,116 C146.611436,106.693283 148.573202,95.170681 150.076487,85.0972677 C157.619366,34.4598636 117.788909,10.9315966 73.2369883,1 Z" id="Shape" fill="#FCD875" fill-rule="nonzero"></path>
                <path d="M141.803059,117 L67.4172178,117 C67.1503246,116.999308 66.901092,116.864462 66.7516902,116.639921 C61.2169535,108.514817 58.5139801,98.7454788 59.0718523,88.8827339 C59.4702932,80.2141697 64.4442361,69.3984688 69.7071581,57.9470732 C79.6550439,36.3112259 89.9444504,13.9374393 72.5050009,1.49027018 C72.1889977,1.26785633 72.0718454,0.849716679 72.2252372,0.491737726 C72.3786289,0.133758772 72.7598056,-0.0642704021 73.1355007,0.0188369654 C112.659957,8.90967208 158.077836,30.9322707 150.073991,85.2863911 C148.580932,95.4130523 146.64127,107.015592 142.538642,116.493222 C142.415735,116.796633 142.126166,116.996131 141.803059,117 L141.803059,117 Z M67.8506864,115.364086 L141.268886,115.364086 C145.148211,106.157627 147.022197,94.9151656 148.480227,85.0596748 C156.085631,33.4928312 114.209936,11.665831 76.2048088,2.42825328 C90.758846,16.0045585 80.3774916,38.5828343 71.1564319,58.6316675 C65.959187,69.9319189 61.0509211,80.6053665 60.6699942,88.9538606 C60.2277686,98.7826788 62.5089519,107.184518 67.8463079,115.368532 L67.8506864,115.364086 Z" id="Shape"></path>
                <path d="M118.612095,42 C102.533108,53.1863909 130.290939,84.3972586 130.953852,98.4386244 C131.294054,103.967311 129.745746,109.448541 126.558158,114 L83.0194278,114 C80.6569645,108.682169 79.5179991,102.082242 78.6459788,96.3106107 C74.2591825,67.3290907 92.7228787,47.6835149 118.612095,42 Z" id="Shape" fill="#D2B460" fill-rule="nonzero"></path>
                <path d="M126.81562,115 L83.7727647,115 C83.4520623,115.000331 83.1617619,114.811541 83.0338315,114.519451 C80.6410956,109.119836 79.5151023,102.527588 78.6354199,96.7741142 C74.5624908,69.7804072 90.3176011,48.2824249 118.770926,42.0178229 C119.146471,41.9385668 119.526984,42.129352 119.685795,42.4765281 C119.841604,42.8278587 119.725535,43.2395823 119.408695,43.4594677 C109.692604,50.2351984 117.420613,65.4729472 124.246948,78.915193 C128.09116,86.4903812 131.724248,93.6418132 131.957364,98.7312563 C132.286508,104.386176 130.7027,109.988063 127.457789,114.646141 C127.313035,114.859318 127.074338,114.990849 126.81562,115 Z M84.3269645,113.392347 L126.375779,113.392347 C129.276752,109.097426 130.668343,103.971124 130.33435,98.8098914 C130.110031,94.0655694 126.556114,87.0583019 122.795472,79.6447526 C116.307815,66.8621686 109.032842,52.5243556 116.026317,44.3506664 C90.423163,51.253087 76.4406126,71.4361144 80.2276449,96.5425773 C81.07214,102.020828 82.1365556,108.263587 84.3049725,113.396716 L84.3269645,113.392347 Z" id="Shape"></path>
                <rect id="Rectangle" fill="#27B59C" x="192" y="173" width="66" height="78"></rect>
                <path d="M85,151 L85,213.953751 C84.9999997,224.470972 93.6766583,232.997551 104.38149,233 L107.613995,233 C118.32059,233 127,224.472704 127,213.953751 L127,151 L85,151 Z" id="Shape" fill="#939292" fill-rule="nonzero"></path>
                <path d="M107.559578,233 L104.44911,233 C93.7109316,232.987866 85.0095767,224.168796 85,213.287775 L85,150.809971 C85,150.362636 85.3578758,150 85.799338,150 L126.200662,150 C126.642124,150 127,150.362636 127,150.809971 L127,213.287775 C126.990433,224.165364 118.294363,232.983016 107.559578,233 L107.559578,233 Z M86.598676,151.619942 L86.598676,213.287775 C86.6082552,223.275844 94.5965033,231.370352 104.453455,231.380058 L107.563922,231.380058 C117.420874,231.370352 125.409122,223.275844 125.418701,213.287775 L125.418701,151.619942 L86.598676,151.619942 Z" id="Shape" fill="#000000" fill-rule="nonzero"></path>
                <rect id="Rectangle-path" fill="#F1F2F2" fill-rule="nonzero" x="60" y="115" width="89" height="19"></rect>
                <path d="M150.184612,136 L60.8153884,136 C60.3650618,136 60,135.635195 60,135.185185 L60,114.814815 C60,114.364805 60.3650618,114 60.8153884,114 L150.184612,114 C150.634938,114 151,114.364805 151,114.814815 L151,135.185185 C151,135.635195 150.634938,136 150.184612,136 Z M61.6307767,134.37037 L149.373655,134.37037 L149.373655,115.62963 L61.6307767,115.62963 L61.6307767,134.37037 Z" id="Shape" fill="#000000" fill-rule="nonzero"></path>
                <polygon id="Shape" fill="#ADADAD" fill-rule="nonzero" points="105.502198 135 67 135 74.3865129 152 105.502198 152 136.613487 152 144 135"></polygon>
                <path d="M135.869757,150.999769 L74.134605,150.999769 C73.8215422,150.999569 73.5371636,150.811318 73.4061537,150.517552 L66.0736595,134.176249 C65.9591935,133.919581 65.9791267,133.620354 66.1265485,133.382308 C66.2739704,133.144262 66.5285817,133.000175 66.8021107,133 L143.197889,133 C143.471418,133.000175 143.72603,133.144262 143.873451,133.382308 C144.020873,133.620354 144.040807,133.919581 143.92634,134.176249 L136.615656,150.522059 C136.480758,150.820071 136.188097,151.007506 135.869757,150.999769 Z M74.649319,149.341303 L135.355043,149.341303 L141.941638,134.65396 L68.058362,134.65396 L74.649319,149.341303 Z" id="Shape" fill="#000000" fill-rule="nonzero"></path>
                <path d="M115,179 L115,160" id="Shape" fill="#B69771" fill-rule="nonzero"></path>
                <path d="M115.999933,178 C115.447685,178 115,177.655695 115,177.230972 L115,159.769028 C115,159.344305 115.447685,159 115.999933,159 C116.552181,159 116.999867,159.344305 116.999867,159.769028 L116.999867,177.218434 C117.004237,177.424556 116.90082,177.623398 116.71282,177.770342 C116.524821,177.917286 116.267981,178.000027 115.999933,178 Z" id="Shape" fill="#000000" fill-rule="nonzero"></path>
                <path d="M185.21229,183.410775 L178.72085,183.410775 L162.430345,170.951271 L126.170263,160 L126.112778,168.996319 C126.015495,176.43133 122.920122,178.461473 122.920122,178.461473 L76.0650205,178.461473 C71.0585479,178.461473 67,182.520945 67,187.528559 C67,192.536172 71.0585479,196.595645 76.0650205,196.595645 L78.8022145,196.595645 C73.9059398,196.748633 70.0159502,200.762952 70.0159502,205.662732 C70.0159502,210.562511 73.9059398,214.576831 78.8022145,214.729818 L82.4635984,214.729818 C77.4571258,214.729818 73.3985779,218.789291 73.3985779,223.796905 C73.3985779,228.804518 77.4571258,232.863991 82.4635984,232.863991 L89.1407599,232.863991 C84.1342873,232.863991 80.0757394,236.923464 80.0757394,241.931077 C80.0757394,246.938691 84.1342873,250.998164 89.1407599,250.998164 L118.038276,256.217267 C118.038276,256.217267 127.324395,258.689707 135.283925,254.846147 L143.844842,250.998164 L168.793547,239.781514 L178.689897,235.336431 L185.181336,235.336431 L185.181336,235.296624 L192,235.296624 L192,183.410775 L185.21229,183.410775 Z" id="Shape" fill="#C59966" fill-rule="nonzero"></path>
                <path d="M124.498262,257.994481 C122.105341,258.00868 119.719217,257.736029 117.390038,257.182258 L88.7108171,251.958288 L88.6888239,251.958288 C84.3735664,251.893399 80.6063141,248.992645 79.4052085,244.809981 C78.204103,240.627316 79.8508285,236.143663 83.4632234,233.760942 L82.2008099,233.760942 C77.8191176,233.757575 73.9690648,230.827364 72.7619523,226.577186 C71.5548397,222.327007 73.2823726,217.78394 76.9972027,215.439322 C72.9026541,214.776491 69.6612074,211.591379 68.8959677,207.478881 C68.130728,203.366384 70.0064312,199.211814 73.5838475,197.095509 C68.722985,195.945379 65.4894893,191.300128 66.0665136,186.296083 C66.6435379,181.292037 70.8476454,177.519989 75.8403568,177.526704 L122.15378,177.526704 C122.734402,176.985222 124.73579,174.69502 124.792972,168.831923 L124.867749,159.813141 C124.869475,159.555306 124.991774,159.313437 125.197648,159.1607 C125.40146,159.00585 125.666733,158.959586 125.91023,159.036425 L161.979189,170.025847 C162.071277,170.054875 162.157619,170.099938 162.234311,170.158998 L178.223417,182.493248 L191.190648,182.493248 C191.637641,182.493248 192,182.85888 192,183.30991 L192,235.398703 C192,235.615296 191.914729,235.823017 191.762946,235.97617 C191.611163,236.129324 191.405301,236.215365 191.190648,236.215365 L184.645451,236.215365 C184.568953,236.241617 184.488725,236.255109 184.407924,236.25531 L178.122248,236.25531 L135.099018,255.78417 C131.775526,257.317192 128.151733,258.072771 124.498262,257.994481 L124.498262,257.994481 Z M89.6785209,232.957596 C89.6785209,233.408626 89.3161616,233.774257 88.8691687,233.774257 C85.8906831,233.704689 83.1084632,235.268262 81.5989612,237.860025 C80.0894592,240.451787 80.0894592,243.665189 81.5989612,246.256952 C83.1084632,248.848715 85.8906831,250.412288 88.8691687,250.342719 L117.759525,255.593319 C119.972814,256.114427 122.23873,256.373599 124.511458,256.365597 C127.931067,256.435607 131.322053,255.723973 134.430422,254.283998 L177.629599,234.69744 C177.73336,234.650524 177.845795,234.626321 177.959498,234.626426 L184.179194,234.626426 C184.255711,234.60025 184.335927,234.58676 184.416721,234.58648 L190.390093,234.58648 L190.390093,184.135448 L177.950701,184.135448 C177.772618,184.135136 177.599554,184.075887 177.458051,183.966789 L161.367777,171.539334 L126.473258,160.887228 L126.420474,168.823047 C126.319305,176.630152 123.020315,178.90704 122.901551,179.000245 C122.770963,179.087021 122.618048,179.13331 122.461686,179.133397 L75.8359582,179.133397 C71.3016524,179.133397 67.6258713,182.842373 67.6258713,187.417628 C67.6258713,191.992882 71.3016524,195.701859 75.8359582,195.701859 L78.5587247,195.701859 C79.0057176,195.701859 79.368077,196.06749 79.368077,196.51852 C79.368077,196.96955 79.0057176,197.335181 78.5587247,197.335181 C74.0232043,197.335181 70.3464385,201.045151 70.3464385,205.621631 C70.3464385,210.198111 74.0232043,213.908081 78.5587247,213.908081 L82.2008099,213.908081 C82.6478028,213.908081 83.0101621,214.273713 83.0101621,214.724743 C83.0101621,215.175772 82.6478028,215.541404 82.2008099,215.541404 C77.6531429,215.541404 73.9665304,219.26131 73.9665304,223.850046 C73.9665304,228.438782 77.6531429,232.158688 82.2008099,232.158688 L88.8427767,232.158688 C89.0589461,232.151523 89.2689648,232.231959 89.4259782,232.382052 C89.5829916,232.532145 89.6739357,232.739406 89.6785209,232.957596 Z" id="Shape" fill="#000000" fill-rule="nonzero"></path>
                <path d="M99.2070134,200 L99.1579681,200 L78.7684855,198.253246 C78.3167892,198.21386 77.9736291,197.679068 78.0015948,197.058099 C78.0105465,196.757463 78.1084391,196.474897 78.2725944,196.275861 C78.4367498,196.076826 78.6529232,195.978592 78.8710348,196.003918 L99.2605174,197.750672 C99.6904638,197.809251 100.013674,198.316165 99.9995546,198.909755 C99.9854351,199.503346 99.6388253,199.980153 99.2070134,200 L99.2070134,200 Z" id="Shape" fill="#000000" fill-rule="nonzero"></path>
                <path d="M102.214482,218 L102.16597,218 L81.7603683,216.253029 C81.545368,216.235714 81.3442647,216.099679 81.2018046,215.875192 C81.0593446,215.650706 80.9873459,215.356391 81.0018285,215.057733 C81.0119087,214.757679 81.109091,214.476129 81.2711653,214.277428 C81.4332396,214.078728 81.6463533,213.97986 81.8618009,214.003421 L102.267403,215.750392 C102.692331,215.80807 103.012421,216.31355 102.99963,216.906711 C102.986839,217.499872 102.645542,217.977798 102.218892,218 L102.214482,218 Z" id="Shape" fill="#000000" fill-rule="nonzero"></path>
                <path d="M105.281019,235 L105.228169,235 L87.6736999,233.248328 C87.2725441,233.18795 86.9753114,232.659493 87.0016195,232.05342 C87.0279275,231.447347 87.3683112,230.981708 87.7712699,231.000552 L105.325739,232.7461 C105.717765,232.804639 106.012468,233.311203 105.999594,233.904383 C105.98672,234.497564 105.670681,234.974042 105.276954,234.993875 L105.281019,235 Z" id="Shape" fill="#000000" fill-rule="nonzero"></path>
                <path d="M149.191441,128 L104.808559,128 C104.362004,128 104,127.552285 104,127 C104,126.447715 104.362004,126 104.808559,126 L149.191441,126 C149.637996,126 150,126.447715 150,127 C150,127.552285 149.637996,128 149.191441,128 Z" id="Shape" fill="#000000" fill-rule="nonzero"></path>
                <circle id="Oval" fill="#FF8772" fill-rule="nonzero" cx="217.5" cy="222.5" r="9.5"></circle>
                <path d="M217.50872,231.999996 C213.260761,232.003462 209.429236,229.446992 207.80161,225.523218 C206.173985,221.599444 207.070976,217.081532 210.074125,214.077157 C213.077274,211.072782 217.594819,210.173946 221.519258,211.79997 C225.443696,213.425993 228.001731,217.256474 227.999999,221.504434 C227.990572,227.295392 223.299674,231.988205 217.50872,231.999996 L217.50872,231.999996 Z M217.50872,212.57678 C212.580479,212.57678 208.58535,216.571909 208.58535,221.50015 C208.58535,226.428391 212.580479,230.42352 217.50872,230.42352 C222.436962,230.42352 226.432091,226.428391 226.432091,221.50015 C226.425012,216.574844 222.434027,212.583859 217.50872,212.57678 L217.50872,212.57678 Z" id="Shape" fill="#000000" fill-rule="nonzero"></path>
                <path d="M179,237 C178.447715,237 178,236.613455 178,236.136627 L178,220.863373 C178,220.386545 178.447715,220 179,220 C179.552285,220 180,220.386545 180,220.863373 L180,236.136627 C180,236.365608 179.894643,236.58521 179.707107,236.747124 C179.51957,236.909038 179.265216,237 179,237 Z" id="Shape" fill="#000000" fill-rule="nonzero"></path>
                <rect id="Rectangle-2" fill="#41CCB3" x="192" y="173" width="66" height="10"></rect>
                <path d="M193,174.550725 L193,249.449275" id="Line" stroke="#040404" stroke-width="3" stroke-linecap="square"></path>
            </g>
        </g>
    </g>
</svg>