<?xml version="1.0" encoding="UTF-8"?>
<svg width="182px" height="183px" viewBox="0 0 182 183" version="1.1" xmlns="http://www.w3.org/2000/svg" xmlns:xlink="http://www.w3.org/1999/xlink">
    <!-- Generator: Sketch 46.2 (44496) - http://www.bohemiancoding.com/sketch -->
    <title>learning</title>
    <desc>Created with Sketch.</desc>
    <defs>
        <rect id="path-1" x="0" y="0.5" width="182" height="182" rx="22"></rect>
    </defs>
    <g id="Page-1" stroke="none" stroke-width="1" fill="none" fill-rule="evenodd">
        <g id="Desktop-HD" transform="translate(-938.000000, -1789.000000)">
            <g id="learning" transform="translate(932.000000, 1789.000000)">
                <g id="Path-8" transform="translate(6.000000, 0.000000)">
                    <mask id="mask-2" fill="white">
                        <use xlink:href="#path-1"></use>
                    </mask>
                    <use id="Mask" fill="#EFDAB9" xlink:href="#path-1"></use>
                    <polygon fill="#BAAB92" mask="url(#mask-2)" points="14.5 103 138 206.5 251.5 206.5 233 155.5 240.5 123.5 169.5 51.5"></polygon>
                </g>
                <g id="gradcap" transform="translate(97.500000, 79.500000) rotate(-18.000000) translate(-97.500000, -79.500000) translate(12.000000, 30.000000)">
                    <path d="M7,49 L11.7222222,89.4761905" id="Path-7" stroke="#000000" stroke-linecap="round"></path>
                    <path d="M6.6770645,48.5144469 L3.58930496,89.1480183" id="Path-7-Copy" stroke="#000000" stroke-linecap="round"></path>
                    <path d="M6.07142857,47.8968254 L0.674603175,75.5555556" id="Path-6" stroke="#000000" stroke-linecap="round"></path>
                    <path d="M87.7030547,37.422391 C113.156835,37.422391 133.792191,44.5258747 133.792191,53.2905834 L133.792191,68.8095238 L170,48.197577 L87.7030547,1.34920635 L5.3968254,48.197577 L41.6046342,68.8095238 L41.6046342,53.2905834 C41.6139183,44.5289116 62.2492746,37.422391 87.7030547,37.422391 Z" id="Shape" fill="#939598" fill-rule="nonzero"></path>
                    <path d="M133.044896,68.8092525 C132.839722,68.8100618 132.642713,68.7305261 132.497632,68.5883131 C132.352551,68.4461001 132.271412,68.2529858 132.272237,68.0518679 L132.272237,52.5709258 C132.272237,44.3911716 111.546445,37.4959418 87.0160829,37.4959418 C62.4857204,37.4959418 41.7506566,44.4002602 41.7506566,52.5709258 L41.7506566,68.0518679 C41.7500983,68.3221813 41.60261,68.5717128 41.3636506,68.7066325 C41.1246913,68.8415522 40.8304882,68.8414057 40.5916688,68.7062482 L4.43125033,48.1447699 C4.19371056,48.0090811 4.04761905,47.759885 4.04761905,47.4903896 C4.04761905,47.2208941 4.19371056,46.971698 4.43125033,46.8360092 L86.6297537,0.10234719 C86.8695992,-0.0341157298 87.1656573,-0.0341157298 87.4055028,0.10234719 L169.616369,46.8360092 C169.853908,46.971698 170,47.2208941 170,47.4903896 C170,47.759885 169.853908,48.0090811 169.616369,48.1447699 L133.45595,68.7062482 C133.331359,68.7773578 133.189017,68.8130267 133.044896,68.8092525 Z M87.0160829,35.9872316 C113.258657,35.9872316 133.817554,43.2581242 133.817554,52.5739553 L133.817554,66.7400777 L167.678541,47.4903896 L87.0160829,1.62923463 L6.35362471,47.4903896 L40.2053395,66.7400777 L40.2053395,52.5709258 C40.2053395,43.2702423 60.7735092,35.9872316 87.0160829,35.9872316 Z" id="Shape" fill="#000000" fill-rule="nonzero"></path>
                    <path d="M86.3492063,37.7777778 C61.0147838,37.7777778 40.4761905,44.8951363 40.4761905,53.6769648 L40.4761905,82.3015873 C40.4761905,79.0730634 43.2668272,76.0697146 48.0410953,73.5623595 C52.5720297,71.1828065 58.8833041,69.244475 66.3373226,67.9907975 C79.5922335,65.8701894 93.1061792,65.8701894 106.36109,67.9907975 C113.815109,69.2475179 120.126383,71.1828065 124.657317,73.5623595 C129.431586,76.0697146 132.222222,79.0730634 132.222222,82.3015873 L132.222222,53.6769648 C132.222222,44.8981792 111.683629,37.7777778 86.3492063,37.7777778 Z" id="Shape" fill="#BCBEC0" fill-rule="nonzero"></path>
                    <path d="M132.812183,83.6507873 C132.608122,83.651621 132.412181,83.5696924 132.267887,83.4232007 C132.123593,83.2767091 132.042894,83.0777847 132.043715,82.8706159 C132.043715,79.2194137 128.158343,76.3546242 124.90004,74.5945575 C120.415263,72.1729054 114.181454,70.2255975 106.871791,68.9585991 C100.314244,67.855134 93.6769234,67.3133473 87.0299573,67.3389632 C80.3841912,67.311489 73.7479098,67.851187 67.1911979,68.9523577 C59.884608,70.2162354 53.6507989,72.1635433 49.166022,74.5883161 C45.9046456,76.3546242 42.0131257,79.2194137 42.0131257,82.8706159 C42.0131257,83.3014927 41.669071,83.6507873 41.2446581,83.6507873 C40.8202451,83.6507873 40.4761905,83.3014927 40.4761905,82.8706159 L40.4761905,53.5143256 C40.4761905,43.9338205 60.9205023,36.4285714 87.0238095,36.4285714 C113.127117,36.4285714 133.571429,43.9182171 133.571429,53.5143256 L133.571429,82.8706159 C133.571459,83.2978629 133.23299,83.6456604 132.812183,83.6507873 Z M87.0330311,65.7817411 C93.7665022,65.7564278 100.490164,66.3055193 107.133069,67.4232217 C114.599501,68.7151856 120.993151,70.7217865 125.6224,73.2183351 C128.564094,74.8067641 130.725025,76.5637101 132.043715,78.4267595 L132.043715,53.5143256 C132.043715,45.0884742 111.43034,37.9857936 87.0330311,37.9857936 C62.635722,37.9857936 42.0131257,45.0978363 42.0131257,53.5143256 L42.0131257,78.4267595 C43.3348899,76.5543481 45.4927469,74.8098848 48.4344409,73.2183351 C53.0636897,70.7217865 59.45734,68.7151856 66.9237712,67.4232217 C73.5697138,66.3049965 80.2964818,65.7559032 87.0330311,65.7817411 L87.0330311,65.7817411 Z" id="Shape" fill="#000000" fill-rule="nonzero"></path>
                    <path d="M124.657317,73.4038724 C120.126383,70.9808805 113.815109,69.0071646 106.36109,67.7306011 C93.1061792,65.5712811 79.5922335,65.5712811 66.3373226,67.7306011 C58.8833041,69.0102631 52.5720297,70.9808805 48.0410953,73.4038724 C43.2668272,75.9569994 40.4761905,79.0151746 40.4761905,82.3026355 C40.4761905,91.2416785 61.0147838,98.4920635 86.3492063,98.4920635 C111.683629,98.4920635 132.222222,91.244777 132.222222,82.3026355 C132.222222,79.0182731 129.431586,75.9569994 124.657317,73.4038724 Z" id="Shape" fill="#808285" fill-rule="nonzero"></path>
                    <path d="M87.0268829,98.4920635 C60.9249263,98.4920635 40.4761905,91.099333 40.4761905,81.6273971 C40.4761905,78.1712956 43.2274861,74.8753699 48.4318923,72.103096 C53.0614467,69.6388525 59.4555192,67.6582167 66.9224433,66.3829707 C73.5657876,65.2797313 80.2898932,64.7377449 87.0238088,64.7627306 C93.7577245,64.7377449 100.48183,65.2797313 107.125174,66.3829707 C114.592098,67.6582167 120.986171,69.6388525 125.615725,72.103096 C130.820132,74.8753699 133.571427,78.1712956 133.571427,81.6273971 C133.577575,91.0839315 113.12884,98.4920635 87.0268829,98.4920635 Z M87.0268829,66.2998025 C80.3797383,66.271493 73.7419837,66.8031776 67.1837396,67.8892396 C59.8766673,69.1367628 53.6424465,71.0588728 49.1573736,73.4522693 C45.8957818,75.1957215 42.0040049,78.023441 42.0040049,81.6273971 C42.0040049,89.9442189 62.6187407,96.9519113 87.0176607,96.9519113 C111.416581,96.9519113 132.031316,89.9318976 132.031316,81.6273971 C132.031316,78.023441 128.145688,75.1957215 124.88717,73.4584299 C120.402097,71.0681137 114.167876,69.1460038 106.85773,67.8954002 C100.303713,66.8079339 93.6700968,66.2741906 87.0268829,66.2998025 L87.0268829,66.2998025 Z" id="Shape" fill="#000000" fill-rule="nonzero"></path>
                </g>
            </g>
        </g>
    </g>
</svg>