<?xml version="1.0" encoding="UTF-8"?>
<svg width="182px" height="182px" viewBox="0 0 182 182" version="1.1" xmlns="http://www.w3.org/2000/svg" xmlns:xlink="http://www.w3.org/1999/xlink">
    <!-- Generator: Sketch 46.2 (44496) - http://www.bohemiancoding.com/sketch -->
    <title>lor</title>
    <desc>Created with Sketch.</desc>
    <defs>
        <rect id="path-1" x="0" y="0" width="182" height="182" rx="22"></rect>
    </defs>
    <g id="Page-1" stroke="none" stroke-width="1" fill="none" fill-rule="evenodd">
        <g id="Desktop-HD" transform="translate(-939.000000, -1059.000000)">
            <g id="lor" transform="translate(939.000000, 1059.000000)">
                <g id="Path-2">
                    <mask id="mask-2" fill="white">
                        <use xlink:href="#path-1"></use>
                    </mask>
                    <use id="Mask" fill="#EFDAB9" xlink:href="#path-1"></use>
                    <polygon fill="#BAAB92" mask="url(#mask-2)" points="45.5 148.5 139.5 203 209.5 192 209.5 81 135.5 33"></polygon>
                </g>
                <g id="Group-7" transform="translate(43.000000, 34.000000)" fill-rule="nonzero">
                    <path d="M94.9999936,110.574479 C95.001759,111.482376 94.6397206,112.353689 93.993709,112.996289 C93.3476975,113.638889 92.4707686,114.000002 91.556288,114 L5.45035361,114 C4.53526294,114 3.657652,113.639098 3.01058518,112.996688 C2.36351835,112.354278 2,111.482984 2,110.574479 L2,66.4255209 C2,64.5336579 3.54477593,63 5.45035361,63 L91.556288,63 C92.4707686,62.9999983 93.3476975,63.3611109 93.993709,64.0037111 C94.6397206,64.6463113 95.001759,65.5176237 94.9999936,66.4255209 L94.9999936,110.574479 Z" id="Shape" fill="#FAF4AD"></path>
                    <path d="M5.165775,114.993335 C2.31537964,114.993337 0.00365392,112.666858 4.24605158e-06,109.794595 L4.24605158e-06,109.794595 L4.24605158e-06,65.2054048 C-0.00175144643,63.8254588 0.541025808,62.5014261 1.50874568,61.5250313 C2.47646556,60.5486365 3.78972056,59.9999989 5.15916069,60 L90.8342292,60 C93.6856949,60.003672 95.996356,62.3320615 96,65.2054048 L96,65.2054048 L96,109.794595 L96,109.794595 C96.0000023,112.66686 93.6912366,114.996322 90.8408436,115 L5.165775,115 L5.165775,114.993335 Z M3.47251339,65.2054048 L3.47251339,109.794595 C3.47074669,110.247665 3.648576,110.682692 3.96650793,111.003064 C4.28443986,111.323435 4.71615482,111.502629 5.165775,111.500848 L90.8342292,111.500848 C91.7693918,111.500848 92.5274909,110.736933 92.5274909,109.794595 L92.5274909,109.794595 L92.5274909,65.2054048 C92.5274909,64.2630672 91.7693918,63.4991517 90.8342292,63.4991517 L5.165775,63.4991517 C4.23254157,63.5100175 3.47965802,64.271641 3.47251339,65.2120698 L3.47251339,65.2054048 Z" id="Shape" fill="#333490"></path>
                    <polyline id="Shape" fill="#FAF4AD" points="5 66 5 2 94 2 94 66"></polyline>
                    <polygon id="Shape" fill="#333490" points="89.5401486 65 89.5401486 3.50971922 5.44672102 3.50971922 5.44672102 65 5.4532862 65 2 65 2 0 92.9934348 0 93 65 89.5401486 65"></polygon>
                    <path d="M45.7636933,105.529034 L2,65.5757021 L4.37373737,63 L48.1909233,103.019888 C48.5109264,103.335982 48.9436752,103.513064 49.3945085,103.512399 L49.3945085,103.512399 C49.8701298,103.512142 50.3247114,103.317193 50.6515863,102.973299 L50.6515863,102.973299 L93.6062029,63.1397668 L96,65.6888466 L53.0988761,105.47579 C52.1185661,106.452437 50.7881917,107.000796 49.401195,106.999913 L49.401195,106.999913 C48.0376973,107.007813 46.7268742,106.47634 45.7570067,105.522379 L45.7636933,105.529034 Z" id="Shape" fill="#333490"></path>
                    <polygon id="Shape" fill="#333490" points="9 44 9 41 87 41 87 44 9 44"></polygon>
                    <polygon id="Shape" fill="#333490" points="9 51 9 48 87 48 87 51 9 51"></polygon>
                    <polygon id="Shape" fill="#333490" points="32 92 32 89 64 89 64 92 32 92"></polygon>
                    <polygon id="Shape" fill="#333490" points="9 58 9 55 87 55 87 58 9 58"></polygon>
                    <polygon id="Shape" fill="#333490" points="9 64 9 61 87 61 87 64 9 64"></polygon>
                    <polygon id="Shape" fill="#333490" points="9 70 9 67 84 67 84 70 9 70"></polygon>
                    <polygon id="Shape" fill="#333490" points="18 77 18 74 80 74 80 77 18 77"></polygon>
                    <polygon id="Shape" fill="#333490" points="25 85 25 82 73 82 73 85 25 85"></polygon>
                    <polygon id="Shape" fill="#60C9E0" points="63 9 63 6 88 6 88 9 63 9"></polygon>
                    <polygon id="Shape" fill="#60C9E0" points="63 13 63 10 88 10 88 13 63 13"></polygon>
                    <polygon id="Shape" fill="#60C9E0" points="63 28 63 25 88 25 88 28 63 28"></polygon>
                    <polygon id="Shape" fill="#60C9E0" points="63 21 63 18 88 18 88 21 63 21"></polygon>
                </g>
            </g>
        </g>
    </g>
</svg>