<svg id="Layer_1" data-name="Layer 1" xmlns="http://www.w3.org/2000/svg" viewBox="0 0 200 200"><defs><style>.cls-1{fill:#1f96bc;}.cls-2{fill:#8bcb0a;}.cls-3{fill:#419b19;}.cls-4,.cls-5{fill:#fff;}.cls-5{fill-rule:evenodd;}</style></defs><title>Artboard 1 copy 2</title><circle class="cls-1" cx="100" cy="100" r="98"/><path class="cls-2" d="M30.31,116.85c41.41-20.11,82.88,17.06,125.85,0V55.5c-43,15.77-82.57-15.79-125.85,0Z"/><path class="cls-3" d="M36.79,58.68l-1,49.1c38.94-11.8,75,16,114.55,5.79l-.46-49.31C110.85,73.27,75.85,49.31,36.79,58.68Zm98,52.08c-11.1.83-21.75-1.55-32.51-3.86,5.22-2.44,8.6-8.65,8.55-16.32a29.52,29.52,0,0,0-9.52-21.11,154.91,154.91,0,0,0,32.8,4.23c.09,4.94,4.81,11,9.72,9.78l.27,18.09C139.3,102.75,134.74,105.82,134.83,110.76ZM42.53,73.95c4.89-1.27,9.62-7.74,9.86-12.62C62.54,60.49,74,62.3,83.8,65c-5.59,2.34-9.67,8.6-10,16.63a26.57,26.57,0,0,0,8,19.93C71.5,99.32,61.25,97,50.6,97.91c.24-4.88-4-7.34-8.72-6Z"/><path class="cls-4" d="M99,81.72a6.15,6.15,0,0,0-.8-.85,13.23,13.23,0,0,0-1.22-1A13.68,13.68,0,0,0,95.43,79a11,11,0,0,0-1.69-.72l0,6.19.56.27c1.07.54,2.08,1.09,3,1.64a12.15,12.15,0,0,1,2.23,1.74,6.86,6.86,0,0,1,1.41,2,6.26,6.26,0,0,1,.5,2.57,5,5,0,0,1-.58,2.57,3.66,3.66,0,0,1-1.61,1.47,5.72,5.72,0,0,1-2.39.51,11.68,11.68,0,0,1-2.92-.37l0,3.14-1.58-.42,0-3.2a20.61,20.61,0,0,1-4.21-2,18.84,18.84,0,0,1-3.62-2.9l1.62-2.46a7.71,7.71,0,0,0,1,1,15.85,15.85,0,0,0,1.49,1.2,19.44,19.44,0,0,0,1.88,1.19,15.72,15.72,0,0,0,2.12,1l.06-6.19-.37-.2-.37-.2Q90.22,86,89,85.25a9.9,9.9,0,0,1-2-1.63,6.07,6.07,0,0,1-1.16-1.84,5.68,5.68,0,0,1-.36-2.23,5.44,5.44,0,0,1,.57-2.46,4.08,4.08,0,0,1,1.47-1.58,5.19,5.19,0,0,1,2.18-.72,9.39,9.39,0,0,1,2.72.13l0-3,1.52.4,0,3A15.07,15.07,0,0,1,97.61,77a19,19,0,0,1,2.92,2.33Zm-9.91-1.8A2.77,2.77,0,0,0,89.93,82a12,12,0,0,0,2.67,1.81L92.66,78A3.79,3.79,0,0,0,90,78.1,2,2,0,0,0,89.07,79.92ZM97.7,92.13a2.93,2.93,0,0,0-1.06-2.27,16.44,16.44,0,0,0-3-2l0,5.92a5.18,5.18,0,0,0,3,.07A1.68,1.68,0,0,0,97.7,92.13Z"/><path class="cls-4" d="M123.13,92.06a5.25,5.25,0,0,0,4.93,5.12,4.71,4.71,0,0,0,4.75-4.86,5,5,0,0,0-4.92-4.81A4.47,4.47,0,0,0,123.13,92.06Z"/><path class="cls-4" d="M62.95,79.7a4.84,4.84,0,0,1-5.07,4.49,4.47,4.47,0,0,1-4.55-4.69,5.09,5.09,0,0,1,5-4.82A4.78,4.78,0,0,1,62.95,79.7Z"/><path class="cls-2" d="M43.84,135.35c41.42-20.1,82.88,17.06,125.85,0V74c-43,15.77-82.57-15.79-125.85,0Z"/><path class="cls-3" d="M50.31,77.18l-1,49.1c38.94-11.79,75,15.95,114.55,5.79l-.46-49.31C124.37,91.76,89.37,67.81,50.31,77.18Zm98,52.07c-11.1.83-21.75-1.55-32.51-3.86,5.22-2.44,8.6-8.65,8.55-16.32A29.52,29.52,0,0,0,114.87,88a154.9,154.9,0,0,0,32.8,4.23c.09,4.94,4.81,11,9.72,9.78l.27,18.09C152.82,121.24,148.26,124.31,148.35,129.25ZM56.06,92.44c4.89-1.27,9.62-7.74,9.86-12.62,10.15-.84,21.65,1,31.41,3.65-5.59,2.34-9.67,8.6-10,16.63a26.57,26.57,0,0,0,8,19.93c-10.31-2.23-20.55-4.59-31.2-3.64.24-4.88-4-7.34-8.72-6Z"/><path class="cls-4" d="M112.5,100.22a6.15,6.15,0,0,0-.8-.85,13.23,13.23,0,0,0-1.22-1,13.68,13.68,0,0,0-1.53-.93,11,11,0,0,0-1.69-.72l0,6.19.56.27c1.07.54,2.08,1.09,3,1.64a12.15,12.15,0,0,1,2.23,1.74,6.86,6.86,0,0,1,1.41,2,6.26,6.26,0,0,1,.5,2.57,5,5,0,0,1-.58,2.57,3.66,3.66,0,0,1-1.61,1.47,5.72,5.72,0,0,1-2.39.51,11.68,11.68,0,0,1-2.92-.37l0,3.14-1.58-.42,0-3.2a20.61,20.61,0,0,1-4.21-2A18.84,18.84,0,0,1,98,110l1.62-2.46a7.71,7.71,0,0,0,1,1,15.85,15.85,0,0,0,1.49,1.2,19.44,19.44,0,0,0,1.88,1.19,15.73,15.73,0,0,0,2.12,1l.06-6.19-.37-.2-.37-.2q-1.61-.85-2.79-1.62a9.9,9.9,0,0,1-2-1.63,6.07,6.07,0,0,1-1.16-1.84A5.68,5.68,0,0,1,99.07,98a5.44,5.44,0,0,1,.57-2.46A4.08,4.08,0,0,1,101.11,94a5.19,5.19,0,0,1,2.18-.72,9.39,9.39,0,0,1,2.72.13l0-3,1.52.4,0,3a15.06,15.06,0,0,1,3.6,1.71,19,19,0,0,1,2.92,2.33Zm-9.91-1.8a2.77,2.77,0,0,0,.86,2.11,12,12,0,0,0,2.67,1.81l.06-5.89a3.79,3.79,0,0,0-2.69.15A2,2,0,0,0,102.59,98.41Zm8.63,12.21a2.93,2.93,0,0,0-1.06-2.27,16.43,16.43,0,0,0-3-2l0,5.92a5.18,5.18,0,0,0,3,.07A1.68,1.68,0,0,0,111.22,110.62Z"/><path class="cls-4" d="M136.65,110.55a5.25,5.25,0,0,0,4.93,5.12,4.71,4.71,0,0,0,4.75-4.86,5,5,0,0,0-4.92-4.81A4.47,4.47,0,0,0,136.65,110.55Z"/><path class="cls-4" d="M76.47,98.2a4.84,4.84,0,0,1-5.07,4.49A4.47,4.47,0,0,1,66.85,98a5.09,5.09,0,0,1,5-4.82A4.78,4.78,0,0,1,76.47,98.2Z"/><path class="cls-5" d="M139.19,51.35c2.49,16.25-11.79,25.39-23.43,31.24,7.65,19.7,13.86,46.12,10,73.63-8.82-12.75-11.08-32.05-21.2-43.51-18.61,8.47-55.48,13.45-62.48-8.93,16.2,4.92,42.9,6.51,42.39-14.5-14.42-5.29-36.45-3-40.16-19C79.43,78.46,119.23,68.75,139.19,51.35Z"/><circle class="cls-4" cx="91.65" cy="55.7" r="11.92"/></svg>