<svg id="Layer_1" data-name="Layer 1" xmlns="http://www.w3.org/2000/svg" xmlns:xlink="http://www.w3.org/1999/xlink" viewBox="0 0 200 200"><defs><style>.cls-1{fill:#1f96bc;}.cls-2{fill:#fff;}.cls-3{fill:url(#linear-gradient);}.cls-4{fill:#d13b34;}</style><linearGradient id="linear-gradient" x1="78.65" y1="91.98" x2="116.21" y2="91.98" gradientUnits="userSpaceOnUse"><stop offset="0" stop-color="#42b787"/><stop offset="1" stop-color="#24abb1"/></linearGradient></defs><title>Artboard 1 copy</title><circle class="cls-1" cx="98.5" cy="100" r="97.5"/><path class="cls-2" d="M164.58,136.79c0,5.08-3.62,9.2-8.09,9.2h-116c-4.47,0-8.09-4.12-8.09-9.2V63.21c0-5.08,3.62-9.2,8.09-9.2h116c4.47,0,8.09,4.12,8.09,9.2Z"/><rect class="cls-1" x="37.99" y="118.56" width="24.97" height="10.17"/><rect class="cls-1" x="70.01" y="118.56" width="24.96" height="10.17"/><rect class="cls-1" x="102.03" y="118.56" width="24.96" height="10.17"/><rect class="cls-1" x="134.05" y="118.56" width="24.96" height="10.17"/><g id="_Group_" data-name="&lt;Group&gt;"><g id="_Group_2" data-name="&lt;Group&gt;"><path id="_Compound_Path_" data-name="&lt;Compound Path&gt;" class="cls-3" d="M86.68,110.76a8,8,0,0,1-8-8V81.24a8,8,0,0,1,8-8h21.5a8,8,0,0,1,8,8v21.5a8,8,0,0,1-8,8Zm0-35.67a6.15,6.15,0,0,0-6.14,6.14v21.5a6.15,6.15,0,0,0,6.14,6.14h21.5a6.15,6.15,0,0,0,6.14-6.14V81.24a6.15,6.15,0,0,0-6.14-6.14Z"/></g><g id="_Group_3" data-name="&lt;Group&gt;"><rect id="_Path_" data-name="&lt;Path&gt;" class="cls-4" x="86.57" y="96.75" width="21.71" height="2.05" rx="0.23" ry="0.23"/><rect id="_Path_2" data-name="&lt;Path&gt;" class="cls-4" x="89.16" y="92.89" width="16.53" height="2.05" rx="0.23" ry="0.23"/><rect id="_Path_3" data-name="&lt;Path&gt;" class="cls-4" x="91.76" y="89.03" width="11.56" height="2.05" rx="0.23" ry="0.23"/><rect id="_Path_4" data-name="&lt;Path&gt;" class="cls-4" x="94.13" y="85.16" width="6.81" height="2.05" rx="0.23" ry="0.23"/></g></g></svg>