<svg id="Layer_1" data-name="Layer 1" xmlns="http://www.w3.org/2000/svg" viewBox="0 0 200 200"><defs><style>.cls-1{fill:#1f96bc;}.cls-2{fill:#fff;}.cls-3{fill:#a6a8ab;}.cls-4{fill:#f0f1f1;}.cls-5{fill:#d0d2d3;}.cls-6{fill:#773249;}.cls-7{fill:#4b4b70;}.cls-8{fill:#2b2b38;}</style></defs><title>Artboard 1</title><circle class="cls-1" cx="99.62" cy="100.38" r="98.38"/><path class="cls-2" d="M162.09,130c0,4.83-3.55,8.75-7.94,8.75H40.36c-4.38,0-7.94-3.92-7.94-8.75v-70c0-4.83,3.55-8.75,7.94-8.75h113.8c4.38,0,7.94,3.92,7.94,8.75Z"/><rect class="cls-1" x="37.89" y="90.71" width="24.49" height="9.68"/><rect class="cls-1" x="69.3" y="90.71" width="24.49" height="9.68"/><rect class="cls-1" x="100.72" y="90.71" width="24.49" height="9.68"/><rect class="cls-1" x="132.14" y="90.71" width="24.49" height="9.68"/><ellipse class="cls-3" cx="143.6" cy="127.04" rx="23.23" ry="22.53"/><ellipse class="cls-4" cx="143.6" cy="127.04" rx="19.35" ry="18.77"/><path class="cls-5" d="M143.6,145.8c-10.69,0-19.35-8.4-19.35-18.77s8.66-18.77,19.35-18.77h0v-3.76h0c-12.83,0-23.23,10.09-23.23,22.53s10.4,22.53,23.23,22.53h0V145.8Z"/><path class="cls-2" d="M124.24,127c0,10.37,8.66,18.77,19.35,18.77h0V108.27h0C132.91,108.27,124.24,116.67,124.24,127Z"/><path class="cls-6" d="M144.64,111.22a.89.89,0,0,1-.9.87h-.28a.89.89,0,0,1-.9-.87v-3.46a.89.89,0,0,1,.9-.87h.28a.89.89,0,0,1,.9.87Z"/><path class="cls-7" d="M127.28,126a.89.89,0,0,1,.9.87v.28a.89.89,0,0,1-.9.87h-3.57a.89.89,0,0,1-.9-.87v-.28a.89.89,0,0,1,.9-.87Z"/><path class="cls-7" d="M159.91,128a.88.88,0,0,1-.9-.87v-.28a.88.88,0,0,1,.9-.87h3.57a.89.89,0,0,1,.9.87v.28a.89.89,0,0,1-.9.87Z"/><path class="cls-7" d="M144.64,111.22a.89.89,0,0,1-.9.87h-.28a.89.89,0,0,1-.9-.87v-3.46a.89.89,0,0,1,.9-.87h.28a.89.89,0,0,1,.9.87Z"/><path class="cls-7" d="M142.56,142.86a.89.89,0,0,1,.9-.87h.28a.89.89,0,0,1,.9.87v3.46a.89.89,0,0,1-.9.87h-.28a.89.89,0,0,1-.9-.87Z"/><path class="cls-8" d="M145.94,128.7a.85.85,0,0,1,0,1.23l-.2.2a.92.92,0,0,1-1.27,0L132.8,118.81a.85.85,0,0,1,0-1.23l.2-.2a.92.92,0,0,1,1.27,0Z"/><path class="cls-8" d="M142.83,130.12a.92.92,0,0,1-1.27,0l-.2-.2a.85.85,0,0,1,0-1.23l8.62-8.35a.92.92,0,0,1,1.27,0l.2.2a.85.85,0,0,1,0,1.23Z"/></svg>