<svg xmlns="http://www.w3.org/2000/svg" viewBox="0 0 289 289"><defs><style>.cls-1{fill:#fff;}.cls-2{fill:#22b573;}</style></defs><title>mobilebutton</title><g id="Layer_2" data-name="Layer 2"><g id="Layer_1-2" data-name="Layer 1"><circle class="cls-1" cx="144.5" cy="144.5" r="144.5"/><path class="cls-2" d="M149.72,153.73c-28,10.6-28.07-15.31-28.07-15.31s-1.13-25.18,5.14-32.44,19.51-20.18,24-20.61c16.94,1.38,27-2.92,27-2.92,10.32-4.46,11.73-12.93,7.82-14.91-1.42-.72-1.42-.72-13.38-3.38l-16.78-3.73c-4.76-1.06-12-.91-32.12,7.32-9.91,4-18.6,8.26-19,8.43a14.06,14.06,0,0,0-4.79,4.06C71.35,116,30,204.58,30,204.58L78,229c18.09-27.66,44.71-29.17,65.18-38.83,7.24-3.42,16.55-10.82,34.49-21.36,2.41-1.42,9.62-7.19,8.7-9.76C185.52,156.79,174.09,144.5,149.72,153.73Z"/><path class="cls-2" d="M252.25,87.16h-83.7a6.75,6.75,0,0,0-6.75,6.74V140.5a6.75,6.75,0,0,0,6.75,6.74h83.7A6.75,6.75,0,0,0,259,140.5V93.9A6.75,6.75,0,0,0,252.25,87.16Zm-1.79,51.55H170.34V117.2h80.13v21.51Zm0-32.88H170.34V95.69h80.13v10.13Z"/></g></g></svg>