<?xml version="1.0" encoding="utf-8"?>
<!-- Generator: Adobe Illustrator 16.0.0, SVG Export Plug-In . SVG Version: 6.00 Build 0)  -->
<!DOCTYPE svg PUBLIC "-//W3C//DTD SVG 1.1//EN" "http://www.w3.org/Graphics/SVG/1.1/DTD/svg11.dtd">
<svg version="1.1" id="Layer_1" xmlns="http://www.w3.org/2000/svg" xmlns:xlink="http://www.w3.org/1999/xlink" x="0px" y="0px"
	 width="1440px" height="494px" viewBox="0 0 1440 494" enable-background="new 0 0 1440 494" xml:space="preserve">
<g>
	<rect fill="#C8EAF5" width="1440" height="494"/>
	<g>
		<defs>
			<rect id="SVGID_1_" width="1440" height="494"/>
		</defs>
		<clipPath id="SVGID_2_">
			<use xlink:href="#SVGID_1_"  overflow="visible"/>
		</clipPath>
		<path clip-path="url(#SVGID_2_)" fill="#FFFFFF" d="M1145.837,167.453c-79.908,0-152.283,32.227-204.859,84.383
			C883.053,137.252,764.241,58.684,627.072,58.684c-136.709,0-255.188,78.041-313.323,192
			c-30.504-17.746-65.956-27.918-103.788-27.918c-114.159,0-206.703,92.545-206.703,206.701
			c0,114.158,92.544,206.703,206.703,206.703c44.676,0,86.04-14.176,119.844-38.271c62.293,98.455,172.143,163.832,297.268,163.832
			c113.881,0,215.112-54.154,279.351-138.113c52.495,75.906,140.139,125.646,239.414,125.646
			c160.663,0,290.905-130.242,290.905-290.906C1436.742,297.697,1306.5,167.453,1145.837,167.453"/>
		<rect y="333.742" clip-path="url(#SVGID_2_)" fill="#B6DEC2" width="1440" height="195.16"/>
		<polygon clip-path="url(#SVGID_2_)" fill="#ADADAD" points="1440,376.246 0,376.246 0,470.012 597.134,470.012 470.909,638.902 
			664.268,638.902 775.732,638.902 969.091,638.902 842.866,470.012 1440,470.012 		"/>
		<path clip-path="url(#SVGID_2_)" fill="#9EC3BC" d="M428.269,338.398c3.494-2.125,5.962-5.492,6.495-9.535
			c0.91-6.912-4.13-13.389-11.574-15.473c5.838-2.977,9.337-8.67,8.223-14.357c-1.338-6.82-8.826-11.156-17.06-10.105
			c3.244-3.826,4.464-8.713,2.744-13.049c-1.852-4.676-6.632-7.486-12.129-7.723c0.039-0.072,0.083-0.139,0.119-0.211
			c4.029-7.934,1.84-17.141-4.898-20.566c-4.385-2.227-9.609-1.443-13.837,1.549c-0.113-8.783-6.345-15.869-14.022-15.869
			c-5.379,0-10.044,3.479-12.403,8.578c-3.021-5.043-8.327-8.066-13.857-7.252c-7.667,1.129-12.835,9.178-11.542,17.982
			c0.02,0.109,0.047,0.215,0.064,0.324c-4.785-2.41-10.319-2.342-14.483,0.713c-6.167,4.52-7.021,13.85-1.995,20.99
			c-6.138-0.422-11.87,2.457-14.256,7.744c-2.54,5.639-0.504,12.303,4.542,16.627c-0.04,0.008-0.084,0.008-0.123,0.01
			c-8.825,1.162-15.157,8.332-14.146,16.018c0.547,4.168,3.155,7.619,6.824,9.734c-5.66,4.125-8.207,11.055-5.73,17.014
			c1.356,3.266,3.99,5.66,7.226,6.986c-0.491,2.455-0.317,4.994,0.671,7.379c2.424,5.832,8.899,8.922,15.66,8.018h100.25
			c6.762,0.904,13.235-2.188,15.658-8.021C437.267,349.705,434.414,342.451,428.269,338.398"/>
		<path clip-path="url(#SVGID_2_)" fill="#9EC3BC" d="M114.246,338.148c3.493-2.125,5.962-5.492,6.495-9.535
			c0.909-6.91-4.132-13.389-11.574-15.473c5.838-2.977,9.337-8.668,8.223-14.355c-1.338-6.822-8.826-11.158-17.06-10.105
			c3.243-3.828,4.464-8.713,2.745-13.051c-1.853-4.676-6.636-7.486-12.129-7.723c0.036-0.072,0.082-0.139,0.117-0.211
			c4.031-7.934,1.841-17.141-4.897-20.564c-4.386-2.229-9.609-1.445-13.837,1.549c-0.113-8.785-6.345-15.871-14.022-15.871
			c-5.379,0-10.044,3.479-12.402,8.58c-3.021-5.043-8.329-8.068-13.859-7.252c-7.667,1.129-12.834,9.178-11.541,17.98
			c0.017,0.109,0.047,0.215,0.063,0.324c-4.786-2.41-10.317-2.34-14.483,0.713c-6.165,4.521-7.021,13.852-1.994,20.99
			c-6.138-0.422-11.87,2.457-14.256,7.744c-2.539,5.639-0.504,12.303,4.542,16.627c-0.041,0.008-0.083,0.008-0.124,0.012
			c-8.823,1.16-15.156,8.33-14.146,16.016c0.548,4.168,3.157,7.619,6.826,9.734c-5.66,4.125-8.205,11.055-5.73,17.014
			c1.358,3.266,3.989,5.66,7.225,6.986c-0.49,2.455-0.318,4.996,0.672,7.379c2.423,5.832,8.899,8.922,15.66,8.02h100.25
			c6.762,0.902,13.236-2.189,15.66-8.021C123.244,349.455,120.393,342.201,114.246,338.148"/>
		<path clip-path="url(#SVGID_2_)" fill="#9EC3BC" d="M357.242,342.418c2.914-1.771,4.973-4.578,5.416-7.947
			c0.756-5.764-3.444-11.164-9.649-12.9c4.867-2.482,7.783-7.229,6.855-11.967c-1.117-5.691-7.36-9.303-14.223-8.428
			c2.703-3.191,3.721-7.266,2.288-10.879c-1.548-3.898-5.531-6.242-10.114-6.439c0.033-0.059,0.07-0.115,0.101-0.176
			c3.361-6.613,1.532-14.289-4.085-17.146c-3.656-1.857-8.01-1.203-11.535,1.293c-0.095-7.324-5.289-13.23-11.691-13.23
			c-4.484,0-8.374,2.898-10.338,7.148c-2.52-4.203-6.944-6.719-11.555-6.043c-6.393,0.939-10.702,7.65-9.624,14.99
			c0.015,0.09,0.039,0.18,0.054,0.27c-3.989-2.008-8.602-1.949-12.075,0.596c-5.139,3.766-5.853,11.547-1.662,17.5
			c-5.115-0.354-9.897,2.045-11.884,6.457c-2.119,4.699-0.419,10.256,3.784,13.861c-0.034,0.006-0.067,0.006-0.103,0.01
			c-7.355,0.967-12.635,6.943-11.792,13.35c0.456,3.479,2.63,6.357,5.691,8.115c-4.724,3.441-6.844,9.219-4.779,14.189
			c1.132,2.721,3.326,4.717,6.022,5.824c-0.409,2.045-0.265,4.162,0.562,6.148c2.02,4.861,7.419,7.439,13.057,6.688h83.577
			c5.637,0.752,11.035-1.826,13.056-6.688C364.744,351.844,362.368,345.797,357.242,342.418 M268.796,312.939
			c0.075-0.008,0.148-0.025,0.222-0.033l-0.027,0.225C268.927,313.066,268.862,313.004,268.796,312.939"/>
		<path clip-path="url(#SVGID_2_)" fill="#9EC3BC" d="M272.934,323.051c4.633-2.748,7.321-7.504,6.393-12.25
			c-0.643-3.283-2.896-5.908-5.983-7.488c4.729-3.535,6.932-9.15,5.014-13.992c-1.645-4.146-5.885-6.641-10.758-6.852
			c0.033-0.061,0.072-0.119,0.105-0.186c3.575-7.037,1.63-15.201-4.347-18.242c-3.89-1.977-8.521-1.279-12.273,1.377
			c-0.099-7.791-5.625-14.078-12.438-14.078c-4.768,0-8.906,3.088-10.999,7.609c-2.68-4.473-7.386-7.152-12.292-6.432
			c-6.801,1-11.383,8.141-10.235,15.947c0.013,0.098,0.039,0.191,0.054,0.289c-4.244-2.139-9.151-2.076-12.845,0.631
			c-5.545,4.066-6.259,12.521-1.592,18.887c0.188,0.258,0.394,0.498,0.594,0.742c-4.336,0.504-8.121,2.918-9.872,6.801
			c-2.825,6.268,0.718,13.977,7.913,17.221c0.316,0.143,0.635,0.26,0.955,0.383c-3.007,2.693-4.679,6.475-4.16,10.416
			c0.778,5.9,6.183,10.201,12.696,10.584c-1.229,1.986-1.901,4.203-1.94,6.428c-5.685,3.547-8.364,10.131-6.033,15.744
			c2.271,5.459,8.545,8.203,14.896,6.936h58.626l-0.001-0.014c5.238,0.02,9.987-2.645,11.896-7.24
			c1.837-4.412,0.568-9.426-2.82-13.094c2.947-1.893,5.014-4.811,5.471-8.285C279.572,330.195,277.095,325.717,272.934,323.051"/>
		<path clip-path="url(#SVGID_2_)" fill="#9EC3BC" d="M484.056,324.178c4.632-2.744,7.323-7.504,6.394-12.248
			c-0.644-3.283-2.899-5.91-5.983-7.484c4.726-3.539,6.931-9.154,5.012-13.996c-1.645-4.146-5.885-6.641-10.758-6.85
			c0.034-0.063,0.072-0.123,0.104-0.188c3.576-7.037,1.632-15.203-4.344-18.242c-3.89-1.975-8.523-1.281-12.272,1.375
			c-0.102-7.793-5.627-14.076-12.44-14.076c-4.769,0-8.908,3.084-10.998,7.609c-2.682-4.473-7.388-7.154-12.292-6.432
			c-6.802,1-11.385,8.141-10.237,15.949c0.014,0.098,0.039,0.189,0.056,0.285c-4.245-2.135-9.152-2.074-12.847,0.635
			c-5.545,4.064-6.259,12.518-1.592,18.885c0.189,0.258,0.395,0.498,0.595,0.74c-4.336,0.506-8.121,2.92-9.871,6.803
			c-2.826,6.268,0.717,13.977,7.911,17.221c0.317,0.143,0.636,0.26,0.957,0.381c-3.007,2.693-4.678,6.477-4.159,10.418
			c0.323,2.471,1.468,4.656,3.156,6.396c-2.249,3.402-2.906,7.529-1.366,11.23c0.821,1.977,2.168,3.6,3.852,4.803
			c-1.379,2.988-1.606,6.334-0.336,9.389c1,2.41,2.781,4.287,5.001,5.531l-0.097,1.594c0,0,55.317-0.211,62.377-0.211
			c7.058,0,13.694,0.023,16.107-5.789c1.799-4.328,0.614-9.238-2.633-12.885c3.608-1.824,6.206-5.051,6.727-9
			C490.693,331.326,488.217,326.848,484.056,324.178"/>
		<path clip-path="url(#SVGID_2_)" fill="#9EC3BC" d="M197.555,345.221c2.532-1.539,4.322-3.979,4.706-6.908
			c0.657-5.008-2.995-9.705-8.385-11.211c4.229-2.158,6.764-6.283,5.958-10.404c-0.971-4.941-6.397-8.084-12.364-7.322
			c2.353-2.775,3.236-6.314,1.99-9.457c-1.345-3.387-4.808-5.426-8.79-5.596c0.029-0.051,0.06-0.1,0.087-0.152
			c2.922-5.75,1.333-12.42-3.552-14.902c-3.177-1.615-6.961-1.047-10.025,1.123c-0.081-6.367-4.596-11.5-10.161-11.5
			c-3.896,0-7.277,2.52-8.985,6.217c-2.191-3.656-6.035-5.844-10.042-5.256c-5.557,0.816-9.301,6.65-8.363,13.031
			c0.011,0.076,0.033,0.152,0.044,0.232c-3.466-1.746-7.475-1.695-10.493,0.52c-4.468,3.273-5.087,10.035-1.445,15.209
			c-4.447-0.307-8.603,1.779-10.331,5.611c-1.842,4.086-0.362,8.914,3.293,12.047c-0.031,0.006-0.062,0.006-0.092,0.008
			c-6.393,0.844-10.982,6.037-10.25,11.605c0.397,3.021,2.287,5.523,4.947,7.055c-4.102,2.986-5.948,8.01-4.154,12.328
			c0.984,2.367,2.893,4.102,5.237,5.063c-0.355,1.781-0.23,3.619,0.486,5.346c1.758,4.227,6.447,6.467,11.348,5.811h72.645
			c4.897,0.656,9.587-1.584,11.346-5.811C204.074,353.412,202.009,348.158,197.555,345.221"/>
		<path clip-path="url(#SVGID_2_)" fill="#9EC3BC" d="M1149.951,337.709c3.494-2.125,5.964-5.492,6.496-9.533
			c0.91-6.914-4.131-13.391-11.573-15.473c5.837-2.977,9.338-8.67,8.222-14.357c-1.338-6.822-8.825-11.156-17.06-10.105
			c3.244-3.828,4.463-8.713,2.745-13.051c-1.854-4.674-6.634-7.488-12.129-7.723c0.036-0.07,0.081-0.137,0.117-0.211
			c4.031-7.934,1.841-17.141-4.897-20.564c-4.385-2.229-9.609-1.445-13.837,1.549c-0.113-8.785-6.345-15.871-14.021-15.871
			c-5.38,0-10.045,3.48-12.404,8.58c-3.021-5.043-8.328-8.066-13.858-7.252c-7.667,1.129-12.834,9.176-11.542,17.98
			c0.02,0.111,0.047,0.215,0.065,0.324c-4.786-2.41-10.319-2.34-14.484,0.715c-6.166,4.52-7.019,13.85-1.995,20.99
			c-6.136-0.424-11.87,2.455-14.254,7.744c-2.542,5.639-0.505,12.301,4.542,16.625c-0.042,0.008-0.085,0.008-0.125,0.012
			c-8.822,1.16-15.156,8.33-14.144,16.016c0.546,4.17,3.154,7.621,6.824,9.734c-5.661,4.125-8.209,11.057-5.732,17.016
			c1.359,3.264,3.993,5.658,7.227,6.986c-0.491,2.453-0.317,4.992,0.671,7.377c2.425,5.832,8.9,8.924,15.66,8.018h100.25
			c6.763,0.906,13.235-2.186,15.66-8.02C1158.95,349.016,1156.098,341.764,1149.951,337.709"/>
		<path clip-path="url(#SVGID_2_)" fill="#9EC3BC" d="M1379.599,341.98c2.915-1.773,4.972-4.58,5.415-7.949
			c0.757-5.762-3.444-11.162-9.648-12.898c4.867-2.482,7.784-7.23,6.855-11.969c-1.116-5.691-7.36-9.305-14.225-8.428
			c2.707-3.189,3.723-7.264,2.29-10.877c-1.546-3.9-5.531-6.246-10.114-6.439c0.033-0.061,0.069-0.117,0.102-0.178
			c3.359-6.611,1.531-14.289-4.086-17.145c-3.655-1.857-8.01-1.205-11.536,1.291c-0.094-7.324-5.288-13.23-11.691-13.23
			c-4.483,0-8.374,2.898-10.339,7.152c-2.519-4.205-6.943-6.723-11.554-6.045c-6.393,0.938-10.7,7.65-9.623,14.99
			c0.014,0.092,0.037,0.178,0.053,0.27c-3.991-2.01-8.6-1.951-12.074,0.596c-5.139,3.768-5.853,11.545-1.663,17.498
			c-5.114-0.354-9.896,2.047-11.886,6.457c-2.117,4.699-0.418,10.258,3.788,13.863c-0.033,0.004-0.068,0.004-0.103,0.008
			c-7.357,0.967-12.638,6.945-11.792,13.352c0.455,3.477,2.629,6.355,5.689,8.113c-4.722,3.441-6.843,9.221-4.779,14.189
			c1.133,2.721,3.328,4.717,6.023,5.826c-0.41,2.043-0.267,4.16,0.561,6.145c2.021,4.865,7.42,7.443,13.058,6.689h83.577
			c5.639,0.754,11.036-1.824,13.057-6.689C1387.1,351.406,1384.726,345.357,1379.599,341.98"/>
		<path clip-path="url(#SVGID_2_)" fill="#9EC3BC" d="M1136.671,356.572c2.021,4.865,7.42,7.443,13.056,6.689h83.577
			c5.639,0.754,11.037-1.824,13.058-6.689c0.828-1.984,0.972-4.102,0.561-6.145c2.697-1.109,4.893-3.105,6.024-5.826
			c2.063-4.969-0.059-10.748-4.78-14.188c3.063-1.76,5.236-4.639,5.69-8.115c0.845-6.408-4.435-12.383-11.79-13.352
			c-0.036-0.004-0.071-0.004-0.105-0.008c4.206-3.604,5.905-9.164,3.788-13.863c-1.988-4.408-6.771-6.811-11.885-6.455
			c4.188-5.953,3.477-13.732-1.663-17.5c-3.475-2.547-8.084-2.605-12.074-0.596c0.016-0.092,0.039-0.178,0.052-0.27
			c1.078-7.34-3.229-14.053-9.623-14.992c-4.608-0.676-9.033,1.842-11.554,6.047c-1.966-4.254-5.854-7.152-10.338-7.152
			c-6.403,0-11.597,5.906-11.692,13.23c-3.526-2.496-7.879-3.15-11.536-1.291c-5.617,2.855-7.445,10.533-4.086,17.145
			c0.033,0.061,0.069,0.117,0.103,0.178c-4.583,0.193-8.569,2.539-10.115,6.438c-1.432,3.613-0.416,7.688,2.29,10.879
			c-6.864-0.877-13.105,2.736-14.223,8.428c-0.93,4.738,1.988,9.486,6.853,11.969c-6.202,1.736-10.403,7.137-9.646,12.898
			c0.442,3.369,2.501,6.178,5.416,7.949C1136.901,345.357,1134.525,351.406,1136.671,356.572 M1230.276,312.689l-0.027-0.223
			c0.074,0.012,0.147,0.025,0.221,0.035C1230.406,312.564,1230.34,312.627,1230.276,312.689"/>
		<path clip-path="url(#SVGID_2_)" fill="#9EC3BC" d="M1296.882,323.666c4.635-2.748,7.323-7.504,6.392-12.25
			c-0.642-3.283-2.896-5.908-5.982-7.484c4.728-3.539,6.934-9.154,5.015-13.996c-1.646-4.146-5.886-6.641-10.762-6.85
			c0.036-0.064,0.072-0.121,0.107-0.188c3.577-7.037,1.63-15.201-4.345-18.242c-3.891-1.975-8.522-1.279-12.272,1.377
			c-0.103-7.793-5.628-14.078-12.439-14.078c-4.77,0-8.908,3.086-10.997,7.609c-2.684-4.473-7.391-7.152-12.295-6.432
			c-6.799,1-11.383,8.141-10.236,15.949c0.014,0.096,0.039,0.189,0.055,0.287c-4.244-2.139-9.15-2.076-12.847,0.633
			c-5.544,4.064-6.257,12.52-1.589,18.885c0.189,0.258,0.392,0.498,0.593,0.742c-4.337,0.504-8.123,2.918-9.873,6.801
			c-2.825,6.266,0.718,13.977,7.913,17.221c0.318,0.143,0.637,0.26,0.957,0.383c-3.007,2.693-4.677,6.475-4.16,10.416
			c0.324,2.471,1.47,4.656,3.159,6.396c-2.252,3.402-2.909,7.529-1.368,11.232c0.822,1.975,2.167,3.596,3.852,4.801
			c-1.378,2.99-1.607,6.332-0.335,9.389c1.002,2.408,2.782,4.287,5.001,5.531l-0.099,1.592c0,0,55.318-0.209,62.377-0.209
			c7.058,0,13.694,0.023,16.108-5.789c1.8-4.33,0.615-9.238-2.632-12.887c3.607-1.824,6.206-5.049,6.724-8.998
			C1303.522,330.813,1301.044,326.332,1296.882,323.666"/>
		<path clip-path="url(#SVGID_2_)" fill="#9EC3BC" d="M1463.231,344.783c2.534-1.543,4.323-3.982,4.708-6.912
			c0.658-5.008-2.995-9.701-8.387-11.211c4.23-2.158,6.766-6.281,5.956-10.402c-0.968-4.943-6.392-8.086-12.359-7.322
			c2.351-2.775,3.233-6.314,1.987-9.455c-1.343-3.391-4.806-5.428-8.787-5.6c0.026-0.051,0.058-0.1,0.087-0.15
			c2.921-5.748,1.332-12.42-3.552-14.904c-3.178-1.613-6.962-1.047-10.025,1.123c-0.083-6.365-4.598-11.5-10.161-11.5
			c-3.898,0-7.28,2.521-8.986,6.217c-2.192-3.656-6.035-5.844-10.044-5.256c-5.555,0.818-9.299,6.652-8.361,13.031
			c0.012,0.078,0.032,0.156,0.043,0.234c-3.468-1.746-7.474-1.695-10.493,0.518c-4.468,3.273-5.087,10.035-1.445,15.209
			c-4.448-0.305-8.602,1.779-10.331,5.613c-1.84,4.084-0.364,8.914,3.292,12.047c-0.029,0.006-0.06,0.006-0.089,0.008
			c-6.395,0.842-10.982,6.035-10.252,11.605c0.396,3.021,2.287,5.523,4.948,7.053c-4.104,2.988-5.948,8.012-4.153,12.33
			c0.983,2.365,2.891,4.1,5.235,5.063c-0.356,1.779-0.231,3.619,0.485,5.346c1.758,4.227,6.449,6.467,11.349,5.811h72.643
			c4.9,0.656,9.591-1.584,11.348-5.811C1469.752,352.975,1467.688,347.717,1463.231,344.783"/>
		<path clip-path="url(#SVGID_2_)" fill="#9EC3BC" d="M601.134,337.709c3.494-2.125,5.965-5.492,6.497-9.533
			c0.909-6.914-4.132-13.391-11.574-15.473c5.838-2.977,9.338-8.67,8.223-14.357c-1.338-6.822-8.826-11.156-17.061-10.105
			c3.245-3.828,4.463-8.713,2.745-13.051c-1.853-4.674-6.634-7.488-12.129-7.723c0.036-0.07,0.081-0.137,0.117-0.211
			c4.032-7.934,1.841-17.141-4.897-20.564c-4.385-2.229-9.608-1.445-13.836,1.549c-0.114-8.785-6.346-15.871-14.021-15.871
			c-5.38,0-10.045,3.48-12.405,8.58c-3.02-5.043-8.328-8.066-13.858-7.252c-7.667,1.129-12.833,9.176-11.542,17.98
			c0.02,0.111,0.048,0.215,0.066,0.324c-4.787-2.41-10.319-2.34-14.485,0.715c-6.166,4.52-7.019,13.85-1.995,20.99
			c-6.136-0.424-11.869,2.455-14.253,7.744c-2.543,5.639-0.505,12.301,4.541,16.625c-0.042,0.008-0.085,0.008-0.125,0.012
			c-8.821,1.16-15.155,8.33-14.144,16.016c0.546,4.17,3.155,7.621,6.825,9.734c-5.662,4.125-8.209,11.057-5.732,17.016
			c1.358,3.264,3.992,5.658,7.227,6.986c-0.492,2.453-0.318,4.992,0.671,7.377c2.424,5.832,8.899,8.924,15.66,8.018h100.249
			c6.763,0.906,13.235-2.186,15.66-8.02C610.134,349.016,607.281,341.764,601.134,337.709"/>
		<path clip-path="url(#SVGID_2_)" fill="#9EC3BC" d="M830.781,341.98c2.915-1.773,4.972-4.58,5.416-7.949
			c0.756-5.762-3.445-11.162-9.649-12.898c4.867-2.482,7.784-7.23,6.856-11.969c-1.117-5.691-7.361-9.305-14.225-8.428
			c2.707-3.189,3.723-7.264,2.29-10.877c-1.547-3.9-5.531-6.246-10.114-6.439c0.033-0.061,0.068-0.117,0.1-0.178
			c3.361-6.611,1.533-14.289-4.085-17.145c-3.655-1.857-8.009-1.205-11.536,1.291c-0.093-7.324-5.288-13.23-11.69-13.23
			c-4.484,0-8.374,2.898-10.339,7.152c-2.52-4.205-6.944-6.723-11.555-6.045c-6.392,0.938-10.699,7.65-9.623,14.99
			c0.015,0.092,0.037,0.178,0.054,0.27c-3.991-2.01-8.601-1.951-12.074,0.596c-5.14,3.768-5.854,11.545-1.663,17.498
			c-5.115-0.354-9.897,2.047-11.886,6.457c-2.117,4.699-0.418,10.258,3.788,13.863c-0.033,0.004-0.069,0.004-0.104,0.008
			c-7.357,0.967-12.637,6.945-11.792,13.352c0.455,3.477,2.629,6.355,5.69,8.113c-4.723,3.441-6.844,9.221-4.779,14.189
			c1.132,2.721,3.328,4.717,6.023,5.826c-0.41,2.043-0.268,4.16,0.561,6.145c2.021,4.865,7.419,7.443,13.057,6.689h83.577
			c5.638,0.754,11.036-1.824,13.058-6.689C838.282,351.406,835.908,345.357,830.781,341.98"/>
		<path clip-path="url(#SVGID_2_)" fill="#9EC3BC" d="M587.854,356.572c2.021,4.865,7.421,7.443,13.057,6.689h83.577
			c5.638,0.754,11.037-1.824,13.057-6.689c0.828-1.984,0.972-4.102,0.562-6.145c2.696-1.109,4.892-3.105,6.023-5.826
			c2.063-4.969-0.058-10.748-4.78-14.188c3.063-1.76,5.236-4.639,5.69-8.115c0.845-6.408-4.434-12.383-11.79-13.352
			c-0.036-0.004-0.071-0.004-0.105-0.008c4.206-3.604,5.905-9.164,3.788-13.863c-1.987-4.408-6.77-6.811-11.885-6.455
			c4.189-5.953,3.478-13.732-1.663-17.5c-3.475-2.547-8.084-2.605-12.074-0.596c0.016-0.092,0.039-0.178,0.053-0.27
			c1.078-7.34-3.23-14.053-9.623-14.992c-4.609-0.676-9.034,1.842-11.555,6.047c-1.966-4.254-5.854-7.152-10.338-7.152
			c-6.402,0-11.597,5.906-11.691,13.23c-3.527-2.496-7.879-3.15-11.536-1.291c-5.618,2.855-7.446,10.533-4.086,17.145
			c0.033,0.061,0.068,0.117,0.102,0.178c-4.583,0.193-8.568,2.539-10.115,6.438c-1.432,3.613-0.416,7.688,2.29,10.879
			c-6.863-0.877-13.105,2.736-14.223,8.428c-0.93,4.738,1.988,9.486,6.854,11.969c-6.203,1.736-10.405,7.137-9.648,12.898
			c0.443,3.369,2.501,6.178,5.416,7.949C588.084,345.357,585.708,351.406,587.854,356.572 M681.459,312.689l-0.027-0.223
			c0.074,0.012,0.147,0.025,0.223,0.035C681.589,312.564,681.523,312.627,681.459,312.689"/>
		<path clip-path="url(#SVGID_2_)" fill="#9EC3BC" d="M748.064,323.666c4.634-2.748,7.324-7.504,6.393-12.25
			c-0.643-3.283-2.897-5.908-5.983-7.484c4.728-3.539,6.934-9.154,5.015-13.996c-1.646-4.146-5.886-6.641-10.762-6.85
			c0.036-0.064,0.073-0.121,0.108-0.188c3.576-7.037,1.63-15.201-4.346-18.242c-3.89-1.975-8.521-1.279-12.271,1.377
			c-0.104-7.793-5.628-14.078-12.44-14.078c-4.769,0-8.908,3.086-10.997,7.609c-2.683-4.473-7.39-7.152-12.295-6.432
			c-6.799,1-11.383,8.141-10.236,15.949c0.015,0.096,0.039,0.189,0.056,0.287c-4.245-2.139-9.151-2.076-12.848,0.633
			c-5.544,4.064-6.257,12.52-1.589,18.885c0.19,0.258,0.393,0.498,0.593,0.742c-4.337,0.504-8.123,2.918-9.873,6.801
			c-2.824,6.266,0.719,13.977,7.913,17.221c0.318,0.143,0.636,0.26,0.957,0.383c-3.007,2.693-4.677,6.475-4.16,10.416
			c0.324,2.471,1.47,4.656,3.159,6.396c-2.252,3.402-2.909,7.529-1.368,11.232c0.822,1.975,2.167,3.596,3.852,4.801
			c-1.378,2.99-1.607,6.332-0.335,9.389c1.002,2.408,2.782,4.287,5.001,5.531l-0.098,1.592c0,0,55.317-0.209,62.377-0.209
			c7.057,0,13.693,0.023,16.107-5.789c1.801-4.33,0.615-9.238-2.632-12.887c3.608-1.824,6.206-5.049,6.725-8.998
			C754.705,330.813,752.227,326.332,748.064,323.666"/>
		<path clip-path="url(#SVGID_2_)" fill="#9EC3BC" d="M914.414,344.783c2.534-1.543,4.323-3.982,4.708-6.912
			c0.658-5.008-2.995-9.701-8.386-11.211c4.229-2.158,6.765-6.281,5.956-10.402c-0.968-4.943-6.393-8.086-12.36-7.322
			c2.35-2.775,3.234-6.314,1.988-9.455c-1.342-3.391-4.807-5.428-8.788-5.6c0.027-0.051,0.058-0.1,0.087-0.15
			c2.921-5.748,1.332-12.42-3.551-14.904c-3.178-1.613-6.962-1.047-10.026,1.123c-0.083-6.365-4.597-11.5-10.161-11.5
			c-3.897,0-7.279,2.521-8.985,6.217c-2.193-3.656-6.035-5.844-10.044-5.256c-5.556,0.818-9.3,6.652-8.362,13.031
			c0.012,0.078,0.033,0.156,0.044,0.234c-3.468-1.746-7.474-1.695-10.494,0.518c-4.467,3.273-5.087,10.035-1.445,15.209
			c-4.447-0.305-8.602,1.779-10.33,5.613c-1.841,4.084-0.364,8.914,3.291,12.047c-0.028,0.006-0.06,0.006-0.089,0.008
			c-6.395,0.842-10.981,6.035-10.252,11.605c0.397,3.021,2.287,5.523,4.948,7.053c-4.103,2.988-5.948,8.012-4.153,12.33
			c0.983,2.365,2.892,4.1,5.235,5.063c-0.355,1.779-0.23,3.619,0.486,5.346c1.758,4.227,6.448,6.467,11.348,5.811h72.643
			c4.9,0.656,9.592-1.584,11.349-5.811C920.936,352.975,918.87,347.717,914.414,344.783"/>
		<path clip-path="url(#SVGID_2_)" fill="#9EC3BC" d="M971.169,337.709c3.494-2.125,5.965-5.492,6.497-9.533
			c0.908-6.914-4.133-13.391-11.574-15.473c5.838-2.977,9.338-8.67,8.222-14.357c-1.338-6.822-8.826-11.156-17.06-10.105
			c3.245-3.828,4.463-8.713,2.745-13.051c-1.854-4.674-6.635-7.488-12.129-7.723c0.035-0.07,0.081-0.137,0.116-0.211
			c4.032-7.934,1.842-17.141-4.896-20.564c-4.385-2.229-9.609-1.445-13.836,1.549c-0.114-8.785-6.347-15.871-14.022-15.871
			c-5.38,0-10.045,3.48-12.405,8.58c-3.02-5.043-8.327-8.066-13.857-7.252c-7.667,1.129-12.833,9.176-11.542,17.98
			c0.019,0.111,0.047,0.215,0.065,0.324c-4.786-2.41-10.318-2.34-14.484,0.715c-6.166,4.52-7.02,13.85-1.995,20.99
			c-6.136-0.424-11.87,2.455-14.253,7.744c-2.543,5.639-0.505,12.301,4.541,16.625c-0.042,0.008-0.085,0.008-0.125,0.012
			c-8.822,1.16-15.156,8.33-14.145,16.016c0.547,4.17,3.155,7.621,6.825,9.734c-5.662,4.125-8.209,11.057-5.731,17.016
			c1.357,3.264,3.992,5.658,7.226,6.986c-0.492,2.453-0.317,4.992,0.671,7.377c2.424,5.832,8.9,8.924,15.66,8.018h100.25
			c6.762,0.906,13.235-2.186,15.66-8.02C980.169,349.016,977.315,341.764,971.169,337.709"/>
		<path clip-path="url(#SVGID_2_)" fill="#9EC3BC" d="M957.889,356.572c2.021,4.865,7.42,7.443,13.056,6.689h83.577
			c5.638,0.754,11.037-1.824,13.057-6.689c0.828-1.984,0.973-4.102,0.562-6.145c2.697-1.109,4.892-3.105,6.024-5.826
			c2.063-4.969-0.059-10.748-4.78-14.188c3.062-1.76,5.235-4.639,5.689-8.115c0.846-6.408-4.434-12.383-11.79-13.352
			c-0.035-0.004-0.07-0.004-0.104-0.008c4.206-3.604,5.905-9.164,3.788-13.863c-1.988-4.408-6.771-6.811-11.885-6.455
			c4.188-5.953,3.477-13.732-1.663-17.5c-3.476-2.547-8.084-2.605-12.074-0.596c0.015-0.092,0.039-0.178,0.052-0.27
			c1.078-7.34-3.229-14.053-9.623-14.992c-4.609-0.676-9.034,1.842-11.554,6.047c-1.965-4.254-5.854-7.152-10.338-7.152
			c-6.403,0-11.598,5.906-11.692,13.23c-3.527-2.496-7.879-3.15-11.535-1.291c-5.619,2.855-7.446,10.533-4.087,17.145
			c0.033,0.061,0.069,0.117,0.103,0.178c-4.583,0.193-8.569,2.539-10.115,6.438c-1.432,3.613-0.416,7.688,2.29,10.879
			c-6.864-0.877-13.105,2.736-14.223,8.428c-0.931,4.738,1.987,9.486,6.854,11.969c-6.203,1.736-10.405,7.137-9.647,12.898
			c0.442,3.369,2.5,6.178,5.416,7.949C958.119,345.357,955.742,351.406,957.889,356.572 M1051.494,312.689l-0.027-0.223
			c0.074,0.012,0.146,0.025,0.222,0.035C1051.623,312.564,1051.558,312.627,1051.494,312.689"/>
	</g>
	<polygon fill="#D7B28B" points="510.351,182.344 637.209,182.344 652.554,176.559 652.554,172.365 637.209,172.365 
		510.351,172.365 	"/>
	<polygon fill="#D7B28B" points="452.979,172.365 452.979,299.223 447.192,314.568 443,314.568 443,299.223 443,172.365 	"/>
	<rect x="460.134" y="309.223" fill="#D7B28B" width="18.519" height="120.357"/>
	<rect x="495.816" y="309.223" fill="#D7B28B" width="18.52" height="120.357"/>
	<g>
		<path fill="#D7B28B" d="M520.392,97.727c0,4.191-3.396,7.588-7.588,7.588c-4.19,0-7.589-3.396-7.589-7.588
			s3.398-7.588,7.589-7.588C516.995,90.139,520.392,93.535,520.392,97.727"/>
		<path fill="#1D1D1B" d="M516.275,111.824c-2.718,0-4.929-2.213-4.929-4.932c0-2.717,2.211-4.928,4.929-4.928
			s4.931,2.211,4.931,4.928C521.206,109.611,518.993,111.824,516.275,111.824 M516.275,104.857c-1.123,0-2.036,0.914-2.036,2.035
			c0,1.123,0.913,2.037,2.036,2.037s2.036-0.914,2.036-2.037C518.312,105.771,517.398,104.857,516.275,104.857"/>
		<path fill="#D7B28B" d="M452.346,97.727c0,4.191,3.397,7.588,7.588,7.588c4.191,0,7.589-3.396,7.589-7.588
			s-3.397-7.588-7.589-7.588C455.743,90.139,452.346,93.535,452.346,97.727"/>
		<path fill="#1D1D1B" d="M456.462,111.824c-2.718,0-4.93-2.213-4.93-4.932c0-2.717,2.212-4.928,4.93-4.928s4.931,2.211,4.931,4.928
			C461.393,109.611,459.18,111.824,456.462,111.824 M456.462,104.857c-1.123,0-2.036,0.914-2.036,2.035
			c0,1.123,0.913,2.037,2.036,2.037s2.036-0.914,2.036-2.037C458.498,105.771,457.585,104.857,456.462,104.857"/>
		<path fill="#1D1D1B" d="M514.112,77.652c0,15.42-12.501,27.922-27.923,27.922c-15.421,0-27.922-12.502-27.922-27.922
			c0-15.422,12.501-27.924,27.922-27.924C501.611,49.729,514.112,62.23,514.112,77.652"/>
		<path fill="#1D1D1B" d="M486.189,107.021c-16.193,0-29.369-13.176-29.369-29.369c0-16.195,13.176-29.371,29.369-29.371
			c16.194,0,29.369,13.176,29.369,29.371C515.559,93.846,502.384,107.021,486.189,107.021 M486.189,51.176
			c-14.599,0-26.476,11.877-26.476,26.477c0,14.598,11.877,26.475,26.476,26.475c14.6,0,26.477-11.877,26.477-26.475
			C512.666,63.053,500.789,51.176,486.189,51.176"/>
		<rect x="479.302" y="136.895" fill="#D7B28B" width="14.134" height="66.432"/>
		<path fill="#D7B28B" d="M461.015,73.293c0-3.184,2.604-5.787,5.787-5.787h39.135c3.182,0,5.786,2.604,5.786,5.787v42.689
			c0,15.473-19.933,22.924-19.933,22.924c-2.982,1.115-7.861,1.115-10.842,0c0,0-19.934-7.451-19.934-22.924V73.293z"/>
		<path fill="#1D1D1B" d="M504.121,86.205H492.74c-0.799,0-1.447-0.646-1.447-1.445c0-0.801,0.648-1.447,1.447-1.447h11.381
			c0.799,0,1.447,0.646,1.447,1.447C505.568,85.559,504.92,86.205,504.121,86.205"/>
		<path fill="#1D1D1B" d="M479.998,86.205h-11.381c-0.8,0-1.447-0.646-1.447-1.445c0-0.801,0.647-1.447,1.447-1.447h11.381
			c0.799,0,1.447,0.646,1.447,1.447C481.445,85.559,480.797,86.205,479.998,86.205"/>
		<path fill="#1D1D1B" d="M486.369,111.621c-0.799,0-1.447-0.648-1.447-1.447V99.467c0-0.799,0.648-1.445,1.447-1.445
			s1.446,0.646,1.446,1.445v10.707C487.815,110.973,487.168,111.621,486.369,111.621"/>
		<path fill="#1D1D1B" d="M479.998,93.828c-0.799,0-1.447-0.648-1.447-1.447c0-0.641-0.521-1.162-1.161-1.162
			s-1.162,0.521-1.162,1.162c0,0.799-0.647,1.447-1.446,1.447c-0.8,0-1.447-0.648-1.447-1.447c0-2.236,1.82-4.055,4.056-4.055
			c2.236,0,4.056,1.818,4.056,4.055C481.445,93.18,480.797,93.828,479.998,93.828"/>
		<path fill="#1D1D1B" d="M497.957,93.828c-0.799,0-1.447-0.648-1.447-1.447c0-0.641-0.521-1.162-1.161-1.162
			c-0.641,0-1.162,0.521-1.162,1.162c0,0.799-0.647,1.447-1.446,1.447c-0.8,0-1.447-0.648-1.447-1.447
			c0-2.236,1.819-4.055,4.056-4.055s4.055,1.818,4.055,4.055C499.403,93.18,498.756,93.828,497.957,93.828"/>
		<path fill="#1D1D1B" d="M486.369,130.102c-4.312,0-7.818-3.508-7.818-7.818c0-0.799,0.648-1.447,1.447-1.447
			s1.447,0.648,1.447,1.447c0,2.715,2.209,4.924,4.924,4.924s4.924-2.209,4.924-4.924c0-0.799,0.647-1.447,1.447-1.447
			c0.799,0,1.446,0.648,1.446,1.447C494.187,126.594,490.68,130.102,486.369,130.102"/>
		<g opacity="0.2">
			<g>
				<defs>
					<rect id="SVGID_3_" x="466.441" y="110.75" width="39.854" height="8.1"/>
				</defs>
				<clipPath id="SVGID_4_">
					<use xlink:href="#SVGID_3_"  overflow="visible"/>
				</clipPath>
				<path clip-path="url(#SVGID_4_)" fill="#E21B72" d="M474.544,114.803c0,2.238-1.813,4.051-4.051,4.051s-4.051-1.813-4.051-4.051
					c0-2.236,1.813-4.051,4.051-4.051S474.544,112.566,474.544,114.803"/>
				<path clip-path="url(#SVGID_4_)" fill="#E21B72" d="M506.296,114.803c0,2.238-1.814,4.051-4.052,4.051
					c-2.236,0-4.051-1.813-4.051-4.051c0-2.236,1.814-4.051,4.051-4.051C504.481,110.752,506.296,112.566,506.296,114.803"/>
			</g>
		</g>
		<path fill="#1D1D1B" d="M510.351,45.533c0,5.514-4.469,9.982-9.982,9.982s-9.982-4.469-9.982-9.982s4.469-9.982,9.982-9.982
			S510.351,40.02,510.351,45.533"/>
		<path fill="#1D1D1B" d="M521.489,61.736c-0.285,0-0.574-0.084-0.826-0.26l-42.246-29.514c-0.655-0.459-0.815-1.361-0.357-2.016
			c0.457-0.654,1.359-0.814,2.014-0.357l42.246,29.514c0.655,0.459,0.815,1.361,0.357,2.016
			C522.396,61.521,521.946,61.736,521.489,61.736"/>
		<polygon fill="#7C518F" points="521.491,286.506 452.979,286.506 452.979,172.365 479.301,172.365 487.235,204.193 
			493.436,172.365 521.491,172.365 		"/>
		<polygon fill="#3C3C3B" points="521.491,334.076 516.235,334.076 511.026,310.291 506.588,334.076 452.979,334.076 
			452.979,286.504 521.491,286.504 		"/>
		<g opacity="0.3">
			<g>
				<defs>
					<rect id="SVGID_5_" x="457.721" y="208.57" width="59.029" height="6.869"/>
				</defs>
				<clipPath id="SVGID_6_">
					<use xlink:href="#SVGID_5_"  overflow="visible"/>
				</clipPath>
				<path clip-path="url(#SVGID_6_)" fill="#1D1D1B" d="M468.784,215.438c-3.854,0-7.706-1.465-10.639-4.4
					c-0.565-0.564-0.565-1.48,0-2.045c0.564-0.564,1.48-0.564,2.046,0c4.737,4.738,12.447,4.738,17.186,0
					c0.566-0.564,1.482-0.564,2.047,0c0.565,0.564,0.565,1.48,0,2.045C476.491,213.971,472.637,215.438,468.784,215.438"/>
				<path clip-path="url(#SVGID_6_)" fill="#1D1D1B" d="M505.687,215.438c-3.854,0-7.706-1.467-10.641-4.4
					c-0.564-0.564-0.564-1.48,0-2.045c0.566-0.564,1.481-0.564,2.047,0c4.738,4.738,12.448,4.738,17.187,0
					c0.565-0.564,1.48-0.564,2.046,0s0.565,1.48,0,2.045C513.393,213.971,509.539,215.438,505.687,215.438"/>
			</g>
		</g>
		<g opacity="0.2">
			<g>
				<defs>
					<rect id="SVGID_7_" x="498.033" y="386.799" width="14.088" height="5.211"/>
				</defs>
				<clipPath id="SVGID_8_">
					<use xlink:href="#SVGID_7_"  overflow="visible"/>
				</clipPath>
				<path clip-path="url(#SVGID_8_)" fill="#1D1D1B" d="M505.077,392.008c-2.501,0-4.853-0.975-6.62-2.742
					c-0.565-0.564-0.565-1.48,0-2.047c0.564-0.564,1.48-0.564,2.046,0c1.221,1.223,2.846,1.895,4.574,1.895
					c1.728,0,3.352-0.672,4.573-1.895c0.565-0.564,1.481-0.564,2.047,0c0.564,0.566,0.564,1.482,0,2.047
					C509.929,391.033,507.578,392.008,505.077,392.008"/>
			</g>
		</g>
		<g opacity="0.2">
			<g>
				<defs>
					<rect id="SVGID_9_" x="462.35" y="386.799" width="14.088" height="5.211"/>
				</defs>
				<clipPath id="SVGID_10_">
					<use xlink:href="#SVGID_9_"  overflow="visible"/>
				</clipPath>
				<path clip-path="url(#SVGID_10_)" fill="#1D1D1B" d="M469.394,392.008c-2.501,0-4.852-0.975-6.62-2.742
					c-0.564-0.564-0.564-1.48,0-2.047c0.565-0.564,1.481-0.564,2.046,0c1.223,1.223,2.847,1.895,4.574,1.895
					s3.352-0.672,4.574-1.895c0.565-0.564,1.48-0.564,2.046,0c0.564,0.566,0.564,1.482,0,2.047
					C474.245,391.033,471.895,392.008,469.394,392.008"/>
			</g>
		</g>
		<polygon fill="#3C3C3B" points="511.442,456.646 498.711,456.646 495.817,429.58 514.337,429.58 		"/>
		<path fill="#2D2D2C" d="M508.26,438.84h-6.366c-0.799,0-1.446-0.646-1.446-1.447c0-0.799,0.647-1.445,1.446-1.445h6.366
			c0.799,0,1.447,0.646,1.447,1.445C509.707,438.193,509.059,438.84,508.26,438.84 M509.707,441.732
			c0-0.799-0.648-1.445-1.447-1.445h-6.366c-0.799,0-1.446,0.646-1.446,1.445c0,0.801,0.647,1.447,1.446,1.447h6.366
			C509.059,443.18,509.707,442.533,509.707,441.732"/>
		<polygon fill="#3C3C3B" points="475.76,456.646 463.027,456.646 460.135,429.58 478.653,429.58 		"/>
		<path fill="#2D2D2C" d="M472.576,438.84h-6.366c-0.799,0-1.445-0.646-1.445-1.447c0-0.799,0.646-1.445,1.445-1.445h6.366
			c0.799,0,1.447,0.646,1.447,1.445C474.023,438.193,473.375,438.84,472.576,438.84 M474.023,441.732
			c0-0.799-0.648-1.445-1.447-1.445h-6.366c-0.799,0-1.445,0.646-1.445,1.445c0,0.801,0.646,1.447,1.445,1.447h6.366
			C473.375,443.18,474.023,442.533,474.023,441.732"/>
		
			<line fill="none" stroke="#828282" stroke-width="5" stroke-linecap="round" stroke-linejoin="round" stroke-miterlimit="10" x1="720" y1="428.648" x2="720" y2="33.631"/>
		<polygon fill="#FFFFFF" points="808,87.137 612,87.137 632,65.383 612,43.629 808,43.629 828,65.129 		"/>
		
			<polygon fill="none" stroke="#828282" stroke-width="5" stroke-linecap="round" stroke-linejoin="round" stroke-miterlimit="10" points="
			808,87.137 612,87.137 632,65.383 612,43.629 808,43.629 828,65.129 		"/>
	</g>
	<text transform="matrix(1 0 0 1 657.4004 73.041)"><tspan x="0" y="0" fill="#27B59C" font-family="'Montserrat-SemiBold'" font-size="20">R</tspan><tspan x="11.7" y="0" fill="#27B59C" font-family="'Montserrat-SemiBold'" font-size="20" letter-spacing="1">I</tspan><tspan x="17.56" y="0" fill="#27B59C" font-family="'Montserrat-SemiBold'" font-size="20" letter-spacing="1">G</tspan><tspan x="31.5" y="0" fill="#27B59C" font-family="'Montserrat-SemiBold'" font-size="20">H</tspan><tspan x="45.379" y="0" fill="#27B59C" font-family="'Montserrat-SemiBold'" font-size="20" letter-spacing="1">T</tspan><tspan x="56.5" y="0" fill="#27B59C" font-family="'Montserrat-SemiBold'" font-size="20" letter-spacing="1"> </tspan><tspan x="61.939" y="0" fill="#27B59C" font-family="'Montserrat-SemiBold'" font-size="20">W</tspan><tspan x="78.979" y="0" fill="#27B59C" font-family="'Montserrat-SemiBold'" font-size="20">A</tspan><tspan x="90.759" y="0" fill="#27B59C" font-family="'Montserrat-SemiBold'" font-size="20">Y</tspan></text>
</g>
</svg>
