<svg xmlns="http://www.w3.org/2000/svg" xmlns:xlink="http://www.w3.org/1999/xlink" viewBox="0 0 1555.19 575.78"><defs><style>.cls-1,.cls-42,.cls-46,.cls-58,.cls-61{fill:none;}.cls-2{clip-path:url(#clip-path);}.cls-3{fill:#82b8c4;}.cls-4,.cls-64{fill:#d4f0eb;}.cls-5{fill:#b6dec2;}.cls-6{fill:#9ec3bc;}.cls-7{fill:#c4615f;}.cls-63,.cls-8,.cls-9{fill:#dd6f6f;}.cls-12,.cls-48,.cls-63,.cls-65,.cls-9{isolation:isolate;}.cls-9{font-size:48.04px;}.cls-12,.cls-48,.cls-63,.cls-9{font-family:KenyanCoffeeRg-Regular, Kenyan Coffee;}.cls-10{fill:#7c518f;}.cls-11,.cls-12{fill:#9265aa;}.cls-12{font-size:37.73px;}.cls-13{fill:#533660;}.cls-14{clip-path:url(#clip-path-2);}.cls-15{fill:#402a4a;}.cls-16{clip-path:url(#clip-path-3);}.cls-17{fill:#482f53;}.cls-18{fill:#4a3156;}.cls-19{fill:#4d3259;}.cls-20{fill:#4f345c;}.cls-21{fill:#52355e;}.cls-22{fill:#543761;}.cls-23{fill:#452d50;}.cls-24{fill:#432c4d;}.cls-25{clip-path:url(#clip-path-4);}.cls-26{clip-path:url(#clip-path-5);}.cls-27{clip-path:url(#clip-path-6);}.cls-28{fill:#694479;}.cls-29{clip-path:url(#clip-path-7);}.cls-30{clip-path:url(#clip-path-8);}.cls-31{fill:#4b3156;}.cls-32{fill:#3e2948;}.cls-33{clip-path:url(#clip-path-9);}.cls-34{clip-path:url(#clip-path-10);}.cls-35{clip-path:url(#clip-path-11);}.cls-36{clip-path:url(#clip-path-12);}.cls-37{clip-path:url(#clip-path-13);}.cls-38{clip-path:url(#clip-path-14);}.cls-39{fill:#1d1d1b;}.cls-40{fill:#b08958;}.cls-41{fill:#27b59c;}.cls-42{stroke:#1d8772;}.cls-42,.cls-58,.cls-59,.cls-61,.cls-64{stroke-miterlimit:10;}.cls-42,.cls-59{stroke-width:3px;}.cls-43{fill:#caba9f;}.cls-44{fill:#c99d66;}.cls-45{fill:#a39581;}.cls-46,.cls-58,.cls-59,.cls-61{stroke:#1d1d1b;}.cls-46{stroke-linecap:round;stroke-linejoin:round;stroke-width:10px;}.cls-47,.cls-48{fill:#66ddc6;}.cls-48{font-size:45.82px;}.cls-49{fill:#3c3c3b;}.cls-50{fill:#bbc2c7;}.cls-51{fill:#aab0b6;}.cls-52{fill:#2d2d2c;}.cls-53{fill:#ac8558;}.cls-54{fill:#7d845e;}.cls-55{fill:#c59966;}.cls-56{fill:#b88a5c;}.cls-57{fill:#95a073;}.cls-58{stroke-width:4px;}.cls-59{fill-opacity:0.4;fill:url(#radial-gradient);}.cls-60{fill:#fff;fill-opacity:0.2;}.cls-61{stroke-width:6px;}.cls-62{fill:#8abab1;}.cls-63{font-size:55.33px;}.cls-64{stroke:#141314;}.cls-66{fill:#312780;}</style><clipPath id="clip-path"><rect class="cls-1" x="57.6" y="2.59" width="1440" height="500"/></clipPath><clipPath id="clip-path-2"><path class="cls-1" d="M527.38,362.62v5.23a66.69,66.69,0,0,1-.32,7.18V369.8A66.69,66.69,0,0,0,527.38,362.62Z"/></clipPath><clipPath id="clip-path-3"><path class="cls-1" d="M502.63,367v-5.23a69.94,69.94,0,0,0,.44,8.29,9.46,9.46,0,0,0,1.8,4.75,6.3,6.3,0,0,0,3.81,2.23,31,31,0,0,0,6,.46h.44a26.34,26.34,0,0,0,6.44-.68,7.22,7.22,0,0,0,3.77-2.28,9,9,0,0,0,1.73-4.79V375a9,9,0,0,1-1.73,4.79,7.22,7.22,0,0,1-3.77,2.28,26.34,26.34,0,0,1-6.44.68h-.44a31,31,0,0,1-6-.46,6.3,6.3,0,0,1-3.81-2.23,9.46,9.46,0,0,1-1.8-4.75A69.94,69.94,0,0,1,502.63,367Z"/></clipPath><clipPath id="clip-path-4"><path class="cls-1" d="M556.66,362.88v0Z"/></clipPath><clipPath id="clip-path-5"><path class="cls-1" d="M501.72,247.85v0Z"/></clipPath><clipPath id="clip-path-6"><path class="cls-1" d="M472.67,247.45v-5.23a112.08,112.08,0,0,1,1.48-20.42q1.58-8.18,6.09-12.6t12.57-5.87a129,129,0,0,1,20.94-1.54h1.71A123.81,123.81,0,0,1,534.73,203q8.09,1.33,12.8,5.68t6.41,12.5q1.7,8.15,1.81,22v5.23q-.11-13.8-1.81-22t-6.41-12.5q-4.71-4.36-12.8-5.68A123.81,123.81,0,0,0,515.47,207h-1.71a129,129,0,0,0-20.94,1.54q-8.07,1.45-12.57,5.87T474.15,227A112.08,112.08,0,0,0,472.67,247.45Z"/></clipPath><clipPath id="clip-path-7"><path class="cls-1" d="M629.63,363.18v5.23a51.63,51.63,0,0,1-.44,7.6,10.47,10.47,0,0,1-1.73,4.79,6.53,6.53,0,0,1-3.65,2.29,26.17,26.17,0,0,1-6.52.67,25.37,25.37,0,0,1-6.1-.58,7.12,7.12,0,0,1-3.81-2.23,9.62,9.62,0,0,1-1.94-4.75,55.76,55.76,0,0,1-.57-8.41v-5.23a55.76,55.76,0,0,0,.57,8.41,9.62,9.62,0,0,0,1.94,4.75,7.12,7.12,0,0,0,3.81,2.23,25.37,25.37,0,0,0,6.1.58,26.17,26.17,0,0,0,6.52-.67,6.53,6.53,0,0,0,3.65-2.29,10.47,10.47,0,0,0,1.73-4.79A51.63,51.63,0,0,0,629.63,363.18Z"/></clipPath><clipPath id="clip-path-8"><path class="cls-1" d="M657.91,363.77v0Z"/></clipPath><clipPath id="clip-path-9"><path class="cls-1" d="M907.1,361.06v5.23a51.79,51.79,0,0,1-.44,7.6,10.58,10.58,0,0,1-1.73,4.79,6.52,6.52,0,0,1-3.65,2.28,25.74,25.74,0,0,1-6.53.68,25.42,25.42,0,0,1-6.1-.58,7.12,7.12,0,0,1-3.8-2.23,9.62,9.62,0,0,1-1.94-4.75,55.76,55.76,0,0,1-.57-8.41v-5.23a55.76,55.76,0,0,0,.57,8.41,9.62,9.62,0,0,0,1.94,4.75,7.12,7.12,0,0,0,3.8,2.23,25.42,25.42,0,0,0,6.1.58,25.74,25.74,0,0,0,6.53-.68,6.52,6.52,0,0,0,3.65-2.28,10.58,10.58,0,0,0,1.73-4.79A51.79,51.79,0,0,0,907.1,361.06Z"/></clipPath><clipPath id="clip-path-10"><path class="cls-1" d="M935.38,361.65v5.23q0-.8,0-1.61V360Q935.38,360.85,935.38,361.65Z"/></clipPath><clipPath id="clip-path-11"><path class="cls-1" d="M997.54,305.77v-5.23a26.67,26.67,0,0,0,6.3-.67,6.33,6.33,0,0,0,3.77-2.42,11.57,11.57,0,0,0,1.73-4.91v5.23a11.57,11.57,0,0,1-1.73,4.91,6.33,6.33,0,0,1-3.77,2.42A26.67,26.67,0,0,1,997.54,305.77Z"/></clipPath><clipPath id="clip-path-12"><path class="cls-1" d="M1009.78,285.16v5.23a50,50,0,0,1-.44,7.39v-5.23A50,50,0,0,0,1009.78,285.16Z"/></clipPath><clipPath id="clip-path-13"><path class="cls-1" d="M1039.07,284.56v0Z"/></clipPath><clipPath id="clip-path-14"><path class="cls-1" d="M996.77,205.84v-5.23h1.68a123.93,123.93,0,0,1,19.29,1.23q8.09,1.32,12.79,5.55t6.41,12.13q1.7,7.89,1.8,21.2v5.23q-.09-13.31-1.8-21.2t-6.41-12.13q-4.71-4.23-12.79-5.55a123.93,123.93,0,0,0-19.29-1.23Z"/></clipPath><radialGradient id="radial-gradient" cx="-280.73" cy="-121.62" r="30.1" gradientTransform="matrix(0, 1, 1, 0, 513.26, 456.08)" gradientUnits="userSpaceOnUse"><stop offset="0" stop-color="#82b8c4"/><stop offset="1" stop-color="#3c7c8f"/></radialGradient></defs><title>Asset 1</title><g id="Layer_2" data-name="Layer 2"><g id="Layer_1-2" data-name="Layer 1"><g class="cls-2"><rect class="cls-3" x="54.51" width="1444.29" height="507.14"/><path id="_Path_" data-name=" Path " class="cls-4" d="M0,555.16a232.21,232.21,0,0,0,13.78,20.62H1555.19V356.65C1509.31,232,1389.51,143.09,1248.94,143.09a325.19,325.19,0,0,0-229.74,94.63c-65-128.5-198.2-216.61-352-216.61-153.34,0-286.2,87.52-351.4,215.32C205.79,172.61,64.9,209.31,0,318.69Z"/><rect class="cls-5" x="55.12" y="352.01" width="1444.08" height="153"/><path id="_Path_2" data-name=" Path 2" class="cls-6" d="M440.16,336.23a8.92,8.92,0,0,0-4.92-6.16c3.89-2.91,5.7-7.53,4.12-11.51-1.35-3.41-4.84-5.46-8.85-5.63l.09-.15c2.94-5.79,1.34-12.5-3.57-15a9.76,9.76,0,0,0-10.09,1.13c-.08-6.41-4.63-11.57-10.23-11.57a10.15,10.15,0,0,0-9,6.26c-2.21-3.68-6.07-5.88-10.11-5.29-5.59.82-9.36,6.69-8.42,13.11v.23a10.9,10.9,0,0,0-6.82-1.08,13.71,13.71,0,0,0-2.5-.34l.1-.17c3.31-6.52,1.51-14.09-4-16.91-3.61-1.83-7.9-1.19-11.38,1.27-.09-7.22-5.22-13-11.53-13-4.42,0-8.26,2.86-10.2,7-2.48-4.15-6.85-6.63-11.39-6-6.3.93-10.55,7.55-9.49,14.79a.52.52,0,0,0,0,.27,11.34,11.34,0,0,0-11.91.59,10.15,10.15,0,0,0-2.57,2.77,8.7,8.7,0,0,0-5.24-1.79,9.54,9.54,0,0,0-8.5,5.88,9.68,9.68,0,0,0-9.5-5c-5.26.77-8.8,6.29-7.91,12.33v.22a9.75,9.75,0,0,0-8.51-.34,9.1,9.1,0,0,0-4.47-5.35A9.76,9.76,0,0,0,243.34,298c-.08-6.41-4.63-11.57-10.23-11.57a10.16,10.16,0,0,0-9,6.26c-2.2-3.68-6.07-5.88-10.11-5.29-5.59.82-9.36,6.69-8.42,13.11v.24a10.06,10.06,0,0,0-10.56.52c-4.56,3.34-5.15,10.29-1.31,15.53.15.21.32.41.49.61a10.12,10.12,0,0,0-7.53,4.5,10.1,10.1,0,0,0-1.24-.13l.07-.13c2.4-4.73,1.1-10.21-2.92-12.25a8,8,0,0,0-8.24.92c-.07-5.23-3.78-9.46-8.35-9.46A8.29,8.29,0,0,0,158.6,306a8.36,8.36,0,0,0-8.26-4.32c-4.57.67-7.65,5.47-6.88,10.71v.19a9,9,0,0,0-5-1,9.31,9.31,0,0,0-.46-5.2c-1.52-3.84-5.46-6.16-10-6.35l.1-.17c3.31-6.52,1.51-14.09-4-16.91-3.61-1.83-7.9-1.19-11.38,1.27-.09-7.22-5.22-13-11.53-13-4.42,0-8.26,2.86-10.2,7-2.48-4.15-6.85-6.63-11.4-6-6.3.93-10.55,7.55-9.49,14.79a.52.52,0,0,0,.05.27,11.34,11.34,0,0,0-11.91.59c-5.07,3.72-5.77,11.39-1.64,17.26-5-.35-9.76,2-11.72,6.37-2.09,4.64-.41,10.12,3.73,13.67h-.1c-7.25,1-12.46,6.85-11.63,13.17a11,11,0,0,0,5.61,8c-4.65,3.39-6.75,9.09-4.71,14a10.68,10.68,0,0,0,5.94,5.74,10.39,10.39,0,0,0,.55,6.07c2,4.8,7.32,7.34,12.88,6.59H131a10.19,10.19,0,0,0,3,0h6a14.11,14.11,0,0,0,3.09,0h50.7a9.76,9.76,0,0,0,5.34-.75,12.19,12.19,0,0,0,6.93.59h45.53a11.66,11.66,0,0,0,4,.15h38.64A14,14,0,0,0,299,379h82.43a14,14,0,0,0,4.2-.07c13.9,0,33.89-.12,37.61-.12,5.8,0,11.26,0,13.24-4.76a10.11,10.11,0,0,0-2.16-10.6,9.81,9.81,0,0,0,5.53-7.4,10.14,10.14,0,0,0-5-9.74C438.71,344,440.92,340.13,440.16,336.23Z"/><path id="_Path_3" data-name=" Path 3" class="cls-6" d="M821.58,336.23a8.92,8.92,0,0,0-4.92-6.16c3.89-2.91,5.7-7.53,4.12-11.51-1.35-3.41-4.84-5.46-8.85-5.63l.09-.15c2.94-5.79,1.34-12.5-3.57-15a9.76,9.76,0,0,0-10.09,1.13c-.08-6.41-4.63-11.57-10.23-11.57a10.15,10.15,0,0,0-9,6.26c-2.21-3.68-6.07-5.88-10.11-5.29-5.59.82-9.36,6.69-8.42,13.11v.23a10.9,10.9,0,0,0-6.82-1.08,13.71,13.71,0,0,0-2.5-.34l.1-.17c3.31-6.52,1.51-14.09-4-16.91-3.61-1.83-7.9-1.19-11.38,1.27-.09-7.22-5.22-13-11.53-13-4.42,0-8.26,2.86-10.2,7-2.48-4.15-6.85-6.63-11.39-6-6.3.93-10.55,7.55-9.49,14.79a.52.52,0,0,0,0,.27,11.34,11.34,0,0,0-11.91.59,10.15,10.15,0,0,0-2.57,2.77,8.7,8.7,0,0,0-5.24-1.79,9.54,9.54,0,0,0-8.5,5.88,9.68,9.68,0,0,0-9.5-5c-5.26.77-8.8,6.29-7.91,12.33v.22a9.75,9.75,0,0,0-8.51-.34,9.1,9.1,0,0,0-4.47-5.35A9.76,9.76,0,0,0,624.77,298c-.08-6.41-4.63-11.57-10.23-11.57a10.16,10.16,0,0,0-9,6.26c-2.2-3.68-6.07-5.88-10.11-5.29-5.59.82-9.36,6.69-8.42,13.11v.24a10.06,10.06,0,0,0-10.56.52c-4.56,3.34-5.15,10.29-1.31,15.53.15.21.32.41.49.61a10.12,10.12,0,0,0-7.53,4.5,10.1,10.1,0,0,0-1.24-.13l.07-.13c2.4-4.73,1.1-10.21-2.92-12.25a8,8,0,0,0-8.24.92c-.07-5.23-3.78-9.46-8.35-9.46A8.29,8.29,0,0,0,540,306a8.36,8.36,0,0,0-8.26-4.32c-4.57.67-7.65,5.47-6.88,10.71v.19a9,9,0,0,0-5-1,9.31,9.31,0,0,0-.46-5.2c-1.52-3.84-5.46-6.16-10-6.35l.1-.17c3.31-6.52,1.51-14.09-4-16.91-3.61-1.83-7.9-1.19-11.38,1.27-.09-7.22-5.22-13-11.53-13-4.42,0-8.26,2.86-10.2,7-2.48-4.15-6.85-6.63-11.4-6-6.3.93-10.55,7.55-9.49,14.79a.52.52,0,0,0,0,.27,11.34,11.34,0,0,0-11.91.59c-5.07,3.72-5.77,11.39-1.64,17.26-5-.35-9.76,2-11.72,6.37-2.09,4.64-.41,10.12,3.73,13.67h0c-7.25,1-12.46,6.85-11.63,13.17a11,11,0,0,0,5.61,8c-4.65,3.39-6.75,9.09-4.71,14a10.68,10.68,0,0,0,5.94,5.74,10.39,10.39,0,0,0,.55,6.07c2,4.8,7.32,7.34,12.88,6.59h73.87a10.19,10.19,0,0,0,3,0h5.94a14.11,14.11,0,0,0,3.09,0h50.7a9.76,9.76,0,0,0,5.34-.75,12.19,12.19,0,0,0,6.93.59H633a11.66,11.66,0,0,0,4,.15h38.64a14,14,0,0,0,4.79.18h82.43a14,14,0,0,0,4.2-.07c13.9,0,33.89-.12,37.61-.12,5.8,0,11.26,0,13.24-4.76a10.11,10.11,0,0,0-2.16-10.6,9.81,9.81,0,0,0,5.53-7.4,10.14,10.14,0,0,0-5-9.74C820.14,344,822.35,340.13,821.58,336.23Z"/><path id="_Path_4" data-name=" Path 4" class="cls-6" d="M1201.19,336.23a8.92,8.92,0,0,0-4.92-6.16c3.89-2.91,5.7-7.53,4.12-11.51-1.35-3.41-4.84-5.46-8.85-5.63l.09-.15c2.94-5.79,1.34-12.5-3.57-15a9.76,9.76,0,0,0-10.09,1.13c-.08-6.41-4.63-11.57-10.23-11.57a10.15,10.15,0,0,0-9,6.26c-2.21-3.68-6.07-5.88-10.11-5.29-5.59.82-9.36,6.69-8.42,13.11v.23a10.9,10.9,0,0,0-6.82-1.08,13.71,13.71,0,0,0-2.5-.34l.1-.17c3.31-6.52,1.51-14.09-4-16.91-3.61-1.83-7.9-1.19-11.38,1.27-.09-7.22-5.22-13-11.53-13-4.42,0-8.26,2.86-10.2,7-2.48-4.15-6.85-6.63-11.39-6-6.3.93-10.55,7.55-9.49,14.79a.52.52,0,0,0,.05.27,11.34,11.34,0,0,0-11.91.59,10.15,10.15,0,0,0-2.57,2.77,8.7,8.7,0,0,0-5.24-1.79,9.54,9.54,0,0,0-8.5,5.88,9.68,9.68,0,0,0-9.5-5c-5.26.77-8.8,6.29-7.91,12.33v.22a9.75,9.75,0,0,0-8.51-.34,9.1,9.1,0,0,0-4.47-5.35,9.76,9.76,0,0,0-10.09,1.13c-.08-6.41-4.63-11.57-10.23-11.57a10.16,10.16,0,0,0-9,6.26c-2.2-3.68-6.07-5.88-10.11-5.29-5.59.82-9.36,6.69-8.42,13.11v.24a10.06,10.06,0,0,0-10.56.52c-4.56,3.34-5.15,10.29-1.31,15.53.15.21.32.41.49.61a10.12,10.12,0,0,0-7.53,4.5,10.1,10.1,0,0,0-1.24-.13l.07-.13c2.4-4.73,1.1-10.21-2.92-12.25a8,8,0,0,0-8.24.92c-.07-5.23-3.78-9.46-8.35-9.46a8.29,8.29,0,0,0-7.39,5.11,8.36,8.36,0,0,0-8.26-4.32c-4.57.67-7.65,5.47-6.88,10.71v.19a9,9,0,0,0-5-1,9.31,9.31,0,0,0-.46-5.2c-1.52-3.84-5.46-6.16-10-6.35l.1-.17c3.31-6.52,1.51-14.09-4-16.91-3.61-1.83-7.9-1.19-11.38,1.27-.09-7.22-5.22-13-11.53-13-4.42,0-8.26,2.86-10.2,7-2.48-4.15-6.85-6.63-11.4-6-6.3.93-10.55,7.55-9.49,14.79a.52.52,0,0,0,0,.27,11.34,11.34,0,0,0-11.91.59c-5.07,3.72-5.77,11.39-1.64,17.26-5-.35-9.76,2-11.72,6.37-2.09,4.64-.41,10.12,3.73,13.67h-.1c-7.25,1-12.46,6.85-11.63,13.17a11,11,0,0,0,5.61,8c-4.65,3.39-6.75,9.09-4.71,14a10.68,10.68,0,0,0,5.94,5.74,10.39,10.39,0,0,0,.55,6.07c2,4.8,7.32,7.34,12.88,6.59H892a10.19,10.19,0,0,0,3,0H901a14.11,14.11,0,0,0,3.09,0h50.7a9.76,9.76,0,0,0,5.34-.75,12.19,12.19,0,0,0,6.93.59h45.53a11.66,11.66,0,0,0,4,.15h38.64a14,14,0,0,0,4.79.18h82.43a14,14,0,0,0,4.2-.07c13.9,0,33.89-.12,37.61-.12,5.8,0,11.26,0,13.24-4.76a10.11,10.11,0,0,0-2.16-10.6,9.81,9.81,0,0,0,5.53-7.4,10.14,10.14,0,0,0-5-9.74C1199.74,344,1202,340.13,1201.19,336.23Z"/><path id="_Path_5" data-name=" Path 5" class="cls-6" d="M1554.33,336.23a8.92,8.92,0,0,0-4.92-6.16c3.89-2.91,5.7-7.53,4.12-11.51-1.35-3.41-4.84-5.46-8.85-5.63l.09-.15c2.94-5.79,1.34-12.5-3.57-15a9.76,9.76,0,0,0-10.09,1.13c-.08-6.41-4.63-11.57-10.23-11.57a10.15,10.15,0,0,0-9,6.26c-2.21-3.68-6.07-5.88-10.11-5.29-5.59.82-9.36,6.69-8.42,13.11v.23a10.9,10.9,0,0,0-6.82-1.08,13.71,13.71,0,0,0-2.5-.34l.1-.17c3.31-6.52,1.51-14.09-4-16.91-3.61-1.83-7.9-1.19-11.38,1.27-.09-7.22-5.22-13-11.53-13-4.42,0-8.26,2.86-10.2,7-2.48-4.15-6.85-6.63-11.39-6-6.3.93-10.55,7.55-9.49,14.79a.52.52,0,0,0,.05.27,11.34,11.34,0,0,0-11.91.59,10.15,10.15,0,0,0-2.57,2.77,8.7,8.7,0,0,0-5.24-1.79A9.54,9.54,0,0,0,1398,295a9.68,9.68,0,0,0-9.5-5c-5.26.77-8.8,6.29-7.91,12.33v.22a9.75,9.75,0,0,0-8.51-.34,9.1,9.1,0,0,0-4.47-5.35,9.76,9.76,0,0,0-10.09,1.13c-.08-6.41-4.63-11.57-10.23-11.57a10.16,10.16,0,0,0-9,6.26c-2.2-3.68-6.07-5.88-10.11-5.29-5.59.82-9.36,6.69-8.42,13.11v.24a10.06,10.06,0,0,0-10.56.52c-4.56,3.34-5.15,10.29-1.31,15.53.15.21.32.41.49.61a10.12,10.12,0,0,0-7.53,4.5,10.1,10.1,0,0,0-1.24-.13l.07-.13c2.4-4.73,1.1-10.21-2.92-12.25a8,8,0,0,0-8.24.92c-.07-5.23-3.78-9.46-8.35-9.46a8.29,8.29,0,0,0-7.39,5.11,8.36,8.36,0,0,0-8.26-4.32c-4.57.67-7.65,5.47-6.88,10.71v.19a9,9,0,0,0-5-1,9.31,9.31,0,0,0-.46-5.2c-1.52-3.84-5.46-6.16-10-6.35l.1-.17c3.31-6.52,1.51-14.09-4-16.91-3.61-1.83-7.9-1.19-11.38,1.27-.09-7.22-5.22-13-11.53-13-4.42,0-8.26,2.86-10.2,7-2.48-4.15-6.85-6.63-11.4-6-6.3.93-10.55,7.55-9.49,14.79a.52.52,0,0,0,.05.27,11.34,11.34,0,0,0-11.91.59c-5.07,3.72-5.77,11.39-1.64,17.26-5-.35-9.76,2-11.72,6.37-2.09,4.64-.41,10.12,3.73,13.67h-.1c-7.25,1-12.46,6.85-11.63,13.17a11,11,0,0,0,5.61,8c-4.65,3.39-6.75,9.09-4.71,14a10.68,10.68,0,0,0,5.94,5.74,10.39,10.39,0,0,0,.55,6.07c2,4.8,7.32,7.34,12.88,6.59h73.87a10.19,10.19,0,0,0,3,0h5.94a14.11,14.11,0,0,0,3.09,0H1308a9.76,9.76,0,0,0,5.34-.75,12.19,12.19,0,0,0,6.93.59h45.53a11.66,11.66,0,0,0,4,.15h38.64a14,14,0,0,0,4.79.18h82.43a14,14,0,0,0,4.2-.07c13.9,0,33.89-.12,37.61-.12,5.8,0,11.26,0,13.24-4.76a10.11,10.11,0,0,0-2.16-10.6A9.81,9.81,0,0,0,1554,356a10.14,10.14,0,0,0-5-9.74C1552.88,344,1555.09,340.13,1554.33,336.23Z"/><ellipse class="cls-7" cx="227" cy="391.27" rx="38.64" ry="31.22" transform="matrix(0.75, -0.66, 0.66, 0.75, -201.48, 246.25)"/><path class="cls-7" d="M202.37,413.91c-6.34,3.77-16.1,4.86-16.1,4.86s8.61,3.09,10.34,11.83C196.62,430.59,196.13,420.53,202.37,413.91Z"/><path class="cls-8" d="M251.46,381.85s-3.7,16.28-18.69,24.5C232.77,406.35,251.48,402.38,251.46,381.85Z"/><text class="cls-9" transform="matrix(0.66, 0.75, -0.75, 0.66, 204.1, 401.12)">?</text><ellipse class="cls-10" cx="812.95" cy="385.99" rx="24.5" ry="30.32" transform="translate(47.38 859.03) rotate(-57.11)"/><path class="cls-10" d="M835.35,399.73c4.21,4,7.13,11.1,7.13,11.1s.48-7.16,6.7-10.35C849.17,400.48,841.69,403,835.35,399.73Z"/><path class="cls-11" d="M800.59,369.59s13.08-.72,22.51,8.82C823.1,378.41,816.08,365.15,800.59,369.59Z"/><text class="cls-12" transform="matrix(0.54, -0.84, 0.84, 0.54, 824.44, 400.62)">?</text><polygon class="cls-13" points="542.04 403.16 542.04 397.93 557.12 421.43 557.12 426.65 542.04 403.16"/><g class="cls-14"><path class="cls-15" d="M527.06,375v-5.2a66.69,66.69,0,0,0,.32-7.18v5.23a66.69,66.69,0,0,1-.32,7.18"/></g><g class="cls-16"><path class="cls-17" d="M502.63,367v0"/><path class="cls-18" d="M502.65,368.24V363a63.61,63.61,0,0,0,.43,7.09v5.23a63.61,63.61,0,0,1-.43-7.09"/><path class="cls-19" d="M503.08,375.41v-5.23a13.49,13.49,0,0,0,.34,1.7v5.23a13.49,13.49,0,0,1-.34-1.7"/><path class="cls-20" d="M503.42,377.11v-5.23a9.78,9.78,0,0,0,.48,1.37v5.23a9.78,9.78,0,0,1-.48-1.37"/><path class="cls-21" d="M503.91,378.48v-5.23a7.34,7.34,0,0,0,.8,1.39v5.23a7.34,7.34,0,0,1-.8-1.39"/><path class="cls-22" d="M504.7,379.87v-5.23l.17.22a6,6,0,0,0,1.48,1.33v5.23a6,6,0,0,1-1.48-1.33l-.17-.22"/><path class="cls-21" d="M506.36,381.42v-5.23a6.39,6.39,0,0,0,1.25.61V382a6.39,6.39,0,0,1-1.25-.61"/><path class="cls-20" d="M507.61,382v-5.2a7.6,7.6,0,0,0,1.07.3h0v5.23h0a7.6,7.6,0,0,1-1.07-.3"/><path class="cls-19" d="M508.7,382.32V377.1a21.51,21.51,0,0,0,2.78.35v5.23a21.51,21.51,0,0,1-2.78-.35"/><path class="cls-18" d="M511.48,382.68v-5.23q1.44.1,3.2.1h.44q1,0,1.89,0v5.23q-.89,0-1.89,0h-.44q-1.76,0-3.2-.1"/><path class="cls-17" d="M517,382.73V377.5a26.72,26.72,0,0,0,3.21-.34v5.23a26.72,26.72,0,0,1-3.21.34"/><path class="cls-23" d="M520.22,382.39v-5.23q.72-.13,1.34-.29l.38-.11V382l-.38.11a13.43,13.43,0,0,1-1.34.29"/><path class="cls-24" d="M521.94,382v-5.23a8.4,8.4,0,0,0,1.23-.49v5.23a8.4,8.4,0,0,1-1.23.49"/><path class="cls-15" d="M523.17,381.49v-5.23a6.66,6.66,0,0,0,2.16-1.68,9,9,0,0,0,1.73-4.79V375a9,9,0,0,1-1.73,4.79,6.66,6.66,0,0,1-2.16,1.68"/></g><g class="cls-25"><path class="cls-17" d="M556.66,366.64v0"/></g><polygon class="cls-17" points="501.72 248.79 501.72 243.56 502.63 361.82 502.63 367.05 501.72 248.79"/><polygon class="cls-17" points="555.75 248.37 555.75 243.15 556.66 361.41 556.66 366.64 555.75 248.37"/><g class="cls-26"><path class="cls-17" d="M501.72,247.85v0"/></g><g class="cls-27"><path class="cls-15" d="M472.67,247.45v-5.23a112.08,112.08,0,0,1,1.48-20.42q1.58-8.18,6.09-12.6a19,19,0,0,1,4.88-3.43V211a19,19,0,0,0-4.88,3.43q-4.52,4.43-6.09,12.6a112.08,112.08,0,0,0-1.48,20.42"/><path class="cls-24" d="M485.13,211v-5.23a25,25,0,0,1,3.67-1.46v5.23a25,25,0,0,0-3.67,1.46"/><path class="cls-23" d="M488.8,209.53V204.3a32.87,32.87,0,0,1,4-1l.3-.05v5.23l-.3.05a32.87,32.87,0,0,0-4,1"/><path class="cls-17" d="M493.12,208.5v-5.23A103.89,103.89,0,0,1,505.4,202v5.23a103.89,103.89,0,0,0-12.27,1.26"/><path class="cls-18" d="M505.4,207.24V202q3.89-.2,8.37-.23h1.71q6.36,0,11.5.36v5.23q-5.13-.36-11.5-.36h-1.71q-4.47,0-8.37.23"/><path class="cls-19" d="M527,207.37v-5.23q4.31.3,7.76.86l1.26.23v5.23l-1.26-.23q-3.44-.56-7.76-.86"/><path class="cls-20" d="M536,208.46v-5.23a30.33,30.33,0,0,1,4.31,1.18v5.23a30.33,30.33,0,0,0-4.31-1.18"/><path class="cls-21" d="M540.3,209.64v-5.23a22.77,22.77,0,0,1,4.46,2.15v5.23a22.77,22.77,0,0,0-4.46-2.15"/><path class="cls-22" d="M544.76,211.79v-5.23a18.94,18.94,0,0,1,2.77,2.12,17.67,17.67,0,0,1,2.22,2.5v5.23a17.67,17.67,0,0,0-2.22-2.5,18.94,18.94,0,0,0-2.77-2.12"/><path class="cls-21" d="M549.76,216.41v-5.23a21.21,21.21,0,0,1,2.31,4v5.23a21.21,21.21,0,0,0-2.31-4"/><path class="cls-20" d="M552.06,220.44v-5.23a28.17,28.17,0,0,1,1.39,3.95v5.23a28.17,28.17,0,0,0-1.39-3.95"/><path class="cls-19" d="M553.45,224.38v-5.23q.27,1,.49,2,.41,1.94.72,4.2v5.23q-.31-2.26-.72-4.2-.22-1-.49-2"/><path class="cls-18" d="M554.66,230.62V225.4a133.11,133.11,0,0,1,1.07,15.88v5.23a133.11,133.11,0,0,0-1.07-15.88"/><path class="cls-17" d="M555.73,246.5v0"/></g><path class="cls-28" d="M542,403.16l15.08,23.5-25.25.19-13.5-21.25H516a163.31,163.31,0,0,1-20.88-1.08q-8.84-1.2-13.55-5.17t-6.27-11.63a109.39,109.39,0,0,1-1.67-20.45l-1-118.27q-.09-13.8,1.48-22t6.09-12.6q4.51-4.43,12.57-5.87A129,129,0,0,1,513.76,207h1.71a123.81,123.81,0,0,1,19.26,1.22q8.09,1.33,12.8,5.68t6.41,12.5q1.7,8.15,1.81,22l.91,118.27q.13,17.08-2.84,25.38A17.39,17.39,0,0,1,542,403.16ZM527,375a71.15,71.15,0,0,0,.31-8.16L526.4,248.6q-.08-10-2.38-12.92t-9.83-2.81a27.61,27.61,0,0,0-6.72.68A6.86,6.86,0,0,0,503.7,236a9.57,9.57,0,0,0-1.73,4.91,68.2,68.2,0,0,0-.31,7.91l.91,118.27a69.94,69.94,0,0,0,.44,8.29,9.46,9.46,0,0,0,1.8,4.75,6.3,6.3,0,0,0,3.81,2.23,31,31,0,0,0,6,.46h.44a26.34,26.34,0,0,0,6.44-.68,7.22,7.22,0,0,0,3.77-2.28A9,9,0,0,0,527,375"/><g class="cls-29"><path class="cls-17" d="M604.89,367.78v0"/><path class="cls-18" d="M604.9,368.68v-5.23a57.19,57.19,0,0,0,.44,6.77v5.23a57.19,57.19,0,0,1-.44-6.77"/><path class="cls-19" d="M605.34,375.44v-5.23q0,.39.11.75a15.23,15.23,0,0,0,.32,1.49v5.23a15.23,15.23,0,0,1-.32-1.49q-.06-.36-.11-.75"/><path class="cls-20" d="M605.78,377.68v-5.23a10.76,10.76,0,0,0,.53,1.51v5.23a10.76,10.76,0,0,1-.53-1.51"/><path class="cls-21" d="M606.31,379.19V374a7.37,7.37,0,0,0,.8,1.4v5.23a7.37,7.37,0,0,1-.8-1.4"/><path class="cls-22" d="M607.1,380.58v-5.23l.29.36a6.38,6.38,0,0,0,1.46,1.25v5.23a6.38,6.38,0,0,1-1.46-1.25l-.29-.36"/><path class="cls-21" d="M608.85,382.2V377a7.51,7.51,0,0,0,1.47.71v5.23a7.51,7.51,0,0,1-1.47-.71"/><path class="cls-20" d="M610.31,382.9v-5.23q.43.16.88.27l.69.16v5.23l-.69-.16q-.45-.11-.88-.27"/><path class="cls-19" d="M611.89,383.33V378.1a21.25,21.25,0,0,0,2.66.34v5.23a21.25,21.25,0,0,1-2.66-.34"/><path class="cls-18" d="M614.55,383.67v-5.23q1.26.09,2.74.09c.74,0,1.43,0,2.07-.06v5.23c-.64,0-1.33,0-2.07.06q-1.49,0-2.74-.09"/><path class="cls-17" d="M619.36,383.7v-5.23a25.9,25.9,0,0,0,3.12-.32v5.23a25.9,25.9,0,0,1-3.12.32"/><path class="cls-23" d="M622.48,383.37v-5.23c.48-.08.92-.18,1.33-.29l.36-.11V383l-.36.11c-.41.11-.85.21-1.33.29"/><path class="cls-24" d="M624.18,383v-5.23a7.94,7.94,0,0,0,1.17-.47v5.23a7.94,7.94,0,0,1-1.17.47"/><path class="cls-15" d="M625.34,382.51v-5.23a5.92,5.92,0,0,0,2.12-1.72,10.47,10.47,0,0,0,1.73-4.79,51.63,51.63,0,0,0,.44-7.6v5.23a51.63,51.63,0,0,1-.44,7.6,10.47,10.47,0,0,1-1.73,4.79,5.92,5.92,0,0,1-2.12,1.72"/></g><g class="cls-30"><path class="cls-17" d="M657.91,367.37v0"/></g><polygon class="cls-31" points="574.63 209.06 574.63 203.84 603.66 203.61 603.66 208.84 574.63 209.06"/><polygon class="cls-17" points="603.66 208.84 603.66 203.61 604.89 362.55 604.89 367.78 603.66 208.84"/><path class="cls-28" d="M656.68,208.44l1.22,158.94q.11,13.82-1.59,22.11t-6.22,12.73q-4.51,4.43-12.45,5.87a122.85,122.85,0,0,1-20.31,1.54h-1.65a119.67,119.67,0,0,1-18.94-1.23q-8-1.32-12.55-5.67t-6.41-12.64Q576,381.81,575.85,368l-1.22-158.94,29-.22,1.22,158.94a55.76,55.76,0,0,0,.57,8.41,9.62,9.62,0,0,0,1.94,4.75,7.12,7.12,0,0,0,3.81,2.23,25.37,25.37,0,0,0,6.1.58,26.17,26.17,0,0,0,6.52-.67,6.53,6.53,0,0,0,3.65-2.29,10.47,10.47,0,0,0,1.73-4.79,54.8,54.8,0,0,0,.44-8.41l-1.22-158.94Z"/><polygon class="cls-17" points="656.68 208.44 656.68 203.21 657.91 362.15 657.91 367.37 656.68 208.44"/><polygon class="cls-31" points="628.41 208.65 628.41 203.42 656.68 203.21 656.68 208.44 628.41 208.65"/><polygon class="cls-28" points="707.43 208.05 708.97 406.41 679.93 406.63 678.4 208.27 707.43 208.05"/><polygon class="cls-17" points="707.43 208.05 707.43 202.82 708.97 401.18 708.97 406.41 707.43 208.05"/><polygon class="cls-31" points="678.4 208.27 678.4 203.04 707.43 202.82 707.43 208.05 678.4 208.27"/><polygon class="cls-31" points="755.48 381.19 755.48 375.97 795.11 375.67 795.11 380.9 755.48 381.19"/><polygon class="cls-17" points="795.11 380.9 795.11 375.67 795.31 400.53 795.31 405.75 795.11 380.9"/><polygon class="cls-32" points="725.17 381.18 725.17 375.95 764.17 226.49 764.17 231.72 725.17 381.18"/><polygon class="cls-28" points="793.28 207.39 793.42 226.98 755.48 381.19 795.11 380.9 795.31 405.75 725.37 406.28 725.17 381.18 764.17 231.72 728.07 231.99 727.88 207.89 793.28 207.39"/><polygon class="cls-17" points="793.28 207.39 793.28 202.16 793.42 221.75 793.42 226.98 793.28 207.39"/><polygon class="cls-31" points="727.88 207.89 727.88 202.66 793.28 202.16 793.28 207.39 727.88 207.89"/><g class="cls-33"><path class="cls-17" d="M882.36,365.66v-5.23q0,.46,0,.9v5.23q0-.44,0-.9"/><path class="cls-18" d="M882.37,366.57v-5.23a57.19,57.19,0,0,0,.44,6.77v5.23a57.19,57.19,0,0,1-.44-6.77"/><path class="cls-19" d="M882.81,373.33V368.1q0,.39.11.75a15.23,15.23,0,0,0,.32,1.49v5.23a15.23,15.23,0,0,1-.32-1.49q-.06-.36-.11-.75"/><path class="cls-20" d="M883.25,375.57v-5.23a10.76,10.76,0,0,0,.53,1.51v5.23a10.76,10.76,0,0,1-.53-1.51"/><path class="cls-21" d="M883.78,377.07v-5.23a7.37,7.37,0,0,0,.8,1.4v5.23a7.37,7.37,0,0,1-.8-1.4"/><path class="cls-22" d="M884.57,378.47v-5.23l.29.36a6.39,6.39,0,0,0,1.46,1.26v5.23a6.39,6.39,0,0,1-1.46-1.26l-.29-.36"/><path class="cls-21" d="M886.32,380.09v-5.23a7.52,7.52,0,0,0,1.47.71v5.23a7.52,7.52,0,0,1-1.47-.71"/><path class="cls-20" d="M887.79,380.8v-5.23a8.81,8.81,0,0,0,.87.26l.69.16v5.23l-.69-.16a8.79,8.79,0,0,1-.87-.26"/><path class="cls-19" d="M889.35,381.22V376a21.3,21.3,0,0,0,2.67.34v5.23a21.3,21.3,0,0,1-2.67-.34"/><path class="cls-18" d="M892,381.55v-5.23q1.26.09,2.74.09c.74,0,1.43,0,2.06-.06v5.23c-.64,0-1.32,0-2.06.06q-1.48,0-2.74-.09"/><path class="cls-17" d="M896.82,381.59v-5.23a25.61,25.61,0,0,0,3.08-.32v5.23a25.61,25.61,0,0,1-3.08.32"/><path class="cls-23" d="M899.9,381.27V376c.5-.09,1-.19,1.38-.3l.4-.11v5.23l-.4.11a12.32,12.32,0,0,1-1.38.3"/><path class="cls-24" d="M901.68,380.85v-5.23a7.75,7.75,0,0,0,1.14-.45v5.23a7.75,7.75,0,0,1-1.14.45"/><path class="cls-15" d="M902.82,380.39v-5.23a6,6,0,0,0,2.11-1.71,10.58,10.58,0,0,0,1.73-4.79,51.79,51.79,0,0,0,.44-7.6v5.23a51.79,51.79,0,0,1-.44,7.6,10.58,10.58,0,0,1-1.73,4.79,6,6,0,0,1-2.11,1.71"/></g><g class="cls-34"><path class="cls-17" d="M935.38,365.26V360q0,.82,0,1.61v5.23q0-.8,0-1.61"/></g><polygon class="cls-31" points="852.1 206.94 852.1 201.71 881.13 201.5 881.13 206.73 852.1 206.94"/><polygon class="cls-17" points="881.13 206.73 881.13 201.5 882.36 360.44 882.36 365.66 881.13 206.73"/><path class="cls-28" d="M934.15,206.32l1.22,158.94q.11,13.82-1.59,22.11t-6.22,12.73Q923,404.53,915.1,406a122.77,122.77,0,0,1-20.31,1.54h-1.65a119.69,119.69,0,0,1-18.94-1.23q-8-1.33-12.55-5.68T855.26,388q-1.84-8.27-1.94-22.08l-1.22-159,29-.21,1.22,158.94a55.76,55.76,0,0,0,.57,8.41,9.62,9.62,0,0,0,1.94,4.75,7.12,7.12,0,0,0,3.8,2.23,25.42,25.42,0,0,0,6.1.58,25.74,25.74,0,0,0,6.53-.68,6.52,6.52,0,0,0,3.65-2.28,10.58,10.58,0,0,0,1.73-4.79,54.94,54.94,0,0,0,.44-8.41l-1.22-158.94Z"/><polygon class="cls-17" points="934.15 206.32 934.15 201.1 935.38 360.04 935.38 365.26 934.15 206.32"/><polygon class="cls-31" points="905.88 206.54 905.88 201.31 934.15 201.1 934.15 206.32 905.88 206.54"/><polygon class="cls-17" points="985.35 329.23 985.35 324 985.92 399.08 985.92 404.3 985.35 329.23"/><polygon class="cls-31" points="985.17 305.87 985.17 300.65 997.54 300.55 997.54 305.77 985.17 305.87"/><g id="Layer_2-2" data-name="Layer 2"><g class="cls-35"><path class="cls-18" d="M997.54,305.77v-5.23h1.75v5.23h-1.75"/><path class="cls-17" d="M999.29,305.73V300.5a26.88,26.88,0,0,0,3.23-.34v5.23a26.88,26.88,0,0,1-3.23.34"/><path class="cls-23" d="M1002.53,305.38v-5.23q.7-.12,1.32-.28l.47-.13V305l-.47.13q-.62.16-1.32.28"/><path class="cls-24" d="M1004.31,305v-5.23a7.65,7.65,0,0,0,1.12-.45v5.23a7.65,7.65,0,0,1-1.12.45"/><path class="cls-15" d="M1005.44,304.52V299.3a5.76,5.76,0,0,0,2.18-1.83,11.57,11.57,0,0,0,1.73-4.91v5.23a11.57,11.57,0,0,1-1.73,4.91,5.76,5.76,0,0,1-2.18,1.83"/></g><g id="Layer_7" data-name="Layer 7"><g class="cls-36"><path class="cls-15" d="M1009.34,297.78v-5.23a50,50,0,0,0,.44-7.39v5.23a50,50,0,0,1-.44,7.39"/></g><g class="cls-37"><path class="cls-17" d="M1039.07,288.38v0"/></g><polygon class="cls-17" points="1038.73 245.95 1038.73 240.72 1039.07 283.16 1039.07 288.38 1038.73 245.95"/><polygon class="cls-17" points="984.59 231.04 984.59 225.82 985.17 300.65 985.17 305.87 984.59 231.04"/><polygon class="cls-31" points="955.36 206.16 955.36 200.94 996.77 200.61 996.77 205.84 955.36 206.16"/><path class="cls-28" d="M1039.07,288.38q.1,13.32-1.6,21.36t-6.35,12.35q-4.64,4.31-12.71,5.62a138,138,0,0,1-20.69,1.41l-12.38.1.58,75.08-29,.21-1.53-198.36,41.41-.32h1.68a123.93,123.93,0,0,1,19.29,1.23q8.09,1.32,12.79,5.55t6.41,12.13q1.7,7.89,1.8,21.2Zm-29.73,9.4a52.78,52.78,0,0,0,.44-8.17l-.33-43.44a65,65,0,0,0-.43-7.78,9.54,9.54,0,0,0-1.68-4.64,6.64,6.64,0,0,0-3.68-2.23,26.45,26.45,0,0,0-6.18-.57H997l-12.38.09.58,74.83,12.37-.1a26.67,26.67,0,0,0,6.3-.67,6.33,6.33,0,0,0,3.77-2.42,11.57,11.57,0,0,0,1.73-4.91"/><g class="cls-38"><path class="cls-18" d="M996.77,205.84v-5.23h1.68q6.33,0,11.45.36v5.23q-5.12-.36-11.45-.36h-1.68"/><path class="cls-19" d="M1009.9,206.19V201q4.36.31,7.84.87l1.34.24v5.23l-1.34-.24q-3.48-.57-7.84-.87"/><path class="cls-20" d="M1019.08,207.31v-5.23a30.81,30.81,0,0,1,4.37,1.2v5.23a30.81,30.81,0,0,0-4.37-1.2"/><path class="cls-21" d="M1023.45,208.51v-5.23a23,23,0,0,1,4.5,2.16v5.23a23,23,0,0,0-4.5-2.16"/><path class="cls-22" d="M1027.95,210.67v-5.23a19.07,19.07,0,0,1,2.58,1.94,17.66,17.66,0,0,1,2.38,2.64v5.23a17.66,17.66,0,0,0-2.38-2.64,19.07,19.07,0,0,0-2.58-1.94"/><path class="cls-21" d="M1032.91,215.26V210a20.8,20.8,0,0,1,2.27,3.95v5.23a20.8,20.8,0,0,0-2.27-3.95"/><path class="cls-20" d="M1035.17,219.2V214a27,27,0,0,1,1.33,3.78V223a27,27,0,0,0-1.33-3.78"/><path class="cls-19" d="M1036.51,223v-5.23q.23.85.43,1.75.44,2,.77,4.4v5.23q-.33-2.38-.77-4.4-.19-.9-.43-1.75"/><path class="cls-18" d="M1037.7,229.14v-5.23a125,125,0,0,1,1,14.94v5.23a125,125,0,0,0-1-14.94"/><path class="cls-17" d="M1038.71,244.08v0"/></g><rect class="cls-28" x="1055.5" y="370.43" width="26.51" height="33.15" transform="translate(-2.94 8.22) rotate(-0.44)"/><polygon class="cls-17" points="1081.86 370.43 1081.86 365.2 1082.11 398.34 1082.11 403.57 1081.86 370.43"/><polygon class="cls-31" points="1055.35 370.62 1055.35 365.4 1081.86 365.2 1081.86 370.43 1055.35 370.62"/><polygon class="cls-28" points="1078.47 356.13 1058.53 356.29 1052.31 205.42 1082.11 205.2 1078.47 356.13"/><polygon class="cls-31" points="1052.31 205.42 1052.31 200.19 1082.11 199.97 1082.11 205.2 1052.31 205.42"/><path class="cls-39" d="M1240.47,214.2h0a3.46,3.46,0,0,0-5.14,4.07h0a3.46,3.46,0,0,1-6,3.3h0a3.46,3.46,0,0,0-6.18,2.18h0a3.46,3.46,0,0,1-6.73,1.18h0a3.46,3.46,0,0,0-6.56.06h0a3.46,3.46,0,0,1-6.75-1.07h0a3.46,3.46,0,0,0-6.22-2.08h0a3.46,3.46,0,0,1-6-3.2h0a3.46,3.46,0,0,0-5.21-4h0a3.46,3.46,0,0,1-4.67-5h0a3.46,3.46,0,0,0-3.63-5.46h0a3.46,3.46,0,0,1-2.8-6.23h0a3.46,3.46,0,0,0-1.66-6.34h0a3.46,3.46,0,0,1-.62-6.81h0a3.46,3.46,0,0,0,.49-6.54h0a3.46,3.46,0,0,1,1.62-6.64h0a3.46,3.46,0,0,0,2.58-6h0a3.46,3.46,0,0,1,3.69-5.75h0A3.46,3.46,0,0,0,1185,155h0a3.46,3.46,0,0,1,5.36-4.24h0a3.46,3.46,0,0,0,5.74-3.17h0a3.46,3.46,0,0,1,6.44-2.27h0a3.46,3.46,0,0,0,6.46-1.14h0a3.46,3.46,0,0,1,6.83-.06h0a3.46,3.46,0,0,0,6.48,1h0a3.46,3.46,0,0,1,6.48,2.16h0a3.46,3.46,0,0,0,5.79,3.07h0a3.46,3.46,0,0,1,5.43,4.15h0a3.46,3.46,0,0,0,4.48,4.79h0a3.46,3.46,0,0,1,3.79,5.69h0a3.46,3.46,0,0,0,2.69,6h0a3.46,3.46,0,0,1,1.73,6.61h0a3.46,3.46,0,0,0,.6,6.53h0a3.46,3.46,0,0,1-.51,6.82h0a3.46,3.46,0,0,0-1.56,6.37h0a3.46,3.46,0,0,1-2.69,6.28h0a3.46,3.46,0,0,0-3.54,5.52h0a3.46,3.46,0,0,1-4.53,5.09Z"/><g id="_Group_" data-name=" Group "><rect class="cls-40" x="1192.05" y="415.22" width="10.58" height="81.11"/><rect class="cls-40" x="1226" y="415.22" width="10.58" height="81.11"/><polygon id="_Path_6" data-name=" Path 6" class="cls-41" points="1218.6 370.46 1211.54 370.46 1184.4 370.46 1184.4 402.22 1184.4 428.16 1211.54 428.16 1211.54 395.16 1218.6 395.16 1218.6 428.16 1245.74 428.16 1245.74 402.22 1245.74 370.46 1218.6 370.46"/><polyline id="_Path_7" data-name=" Path 7" class="cls-42" points="1211.41 370.46 1211.41 387.39 1218.72 387.39"/><polygon id="_Path_8" data-name=" Path 8" class="cls-40" points="1260.09 365.86 1252.1 365.86 1247.4 352.29 1247.4 289.71 1260.09 289.71 1260.09 365.86"/><polygon id="_Path_9" data-name=" Path 9" class="cls-43" points="1242.7 300.74 1262.44 300.74 1257.74 261.03 1242.7 261.03 1242.7 300.74"/><polygon id="_Path_10" data-name=" Path 10" class="cls-40" points="1169.07 365.86 1177.06 365.86 1181.76 352.29 1181.76 289.71 1169.07 289.71 1169.07 365.86"/><polygon id="_Path_11" data-name=" Path 11" class="cls-43" points="1186.46 300.74 1166.72 300.74 1171.42 261.03 1186.46 261.03 1186.46 300.74"/><rect class="cls-40" x="1208.35" y="232.22" width="11.48" height="28.81"/><g id="_Group_2" data-name=" Group 2"><g id="_Group_3" data-name=" Group 3"><path id="_Path_12" data-name=" Path 12" class="cls-40" d="M1247,196.6a7.75,7.75,0,0,1-15.5,0h0c0-4.28,7.79-12.08,12.07-12.08C1247,184.52,1247,184.7,1247,196.6Z"/><path class="cls-40" d="M1181.21,196.6a7.75,7.75,0,0,0,15.5,0h0c0-4.28-7.79-12.08-12.07-12.08C1181.21,184.52,1181.21,184.7,1181.21,196.6Z"/></g><g id="_Group_4" data-name=" Group 4"><path class="cls-40" d="M1228.91,232.22c-3.49,2.17-8.25,4-10.58,4h-8.48c-2.33,0-7.09-1.78-10.58-4s-6.34-7.55-6.34-12v-41a8,8,0,0,1,8-8h26.34a8,8,0,0,1,8,8v41.09C1235.26,224.67,1232.4,230,1228.91,232.22Z"/></g><ellipse id="_Path_13" data-name=" Path 13" class="cls-44" cx="1243.52" cy="192.38" ry="3.81"/><path class="cls-39" d="M1243.52,197.36a1.18,1.18,0,0,1-1.18-1.18h0v-7.61a1.18,1.18,0,0,1,2.35,0v7.61A1.18,1.18,0,0,1,1243.52,197.36Z"/><ellipse id="_Path_14" data-name=" Path 14" class="cls-44" cx="1184.68" cy="192.38" ry="3.81"/><path class="cls-39" d="M1184.68,197.36a1.18,1.18,0,0,1-1.18-1.18h0v-7.61a1.18,1.18,0,0,1,2.35,0v7.61A1.18,1.18,0,0,1,1184.68,197.36Z"/><g id="_Group_5" data-name=" Group 5"><path class="cls-1" d="M1228.91,232.22c-3.49,2.17-8.25,4-10.58,4h-8.48c-2.33,0-7.09-1.78-10.58-4s-6.34-13-6.34-24v-17a20.06,20.06,0,0,1,20-20h2.34a20.06,20.06,0,0,1,20,20v17.09C1235.26,219.27,1232.4,230,1228.91,232.22Z"/></g><g id="_Group_6" data-name=" Group 6"><path class="cls-39" d="M1228.72,188h-.25L1218,185.76a1.18,1.18,0,1,1,.3-2.34l.19,0L1229,185.7a1.18,1.18,0,0,1-.24,2.33Z"/><path class="cls-39" d="M1199.38,187.54a1.18,1.18,0,0,1-.14-2.34l10.68-1.26a1.18,1.18,0,0,1,.28,2.33l-10.68,1.26Z"/><path class="cls-39" d="M1223.16,192.75h-5.08a1.18,1.18,0,0,1,0-2.35h5.08a1.18,1.18,0,0,1,.22,2.35Z"/><path class="cls-39" d="M1210.1,192.75H1205a1.18,1.18,0,0,1,0-2.35h5.08a1.18,1.18,0,0,1,.22,2.35h-.2Z"/><path class="cls-39" d="M1214.09,204.64a1.18,1.18,0,0,1-1.18-1.18h0v-6.71a1.18,1.18,0,0,1,2.35,0v6.71A1.18,1.18,0,0,1,1214.09,204.64Z"/></g></g><path class="cls-39" d="M1213.91,222.05c-1.11,0-3.68-1.43-5.12-2.28a1.18,1.18,0,0,1,1.2-2,21.38,21.38,0,0,0,3.94,1.95,23.07,23.07,0,0,0,4.29-2,1.18,1.18,0,0,1,1.14,2.06C1217.82,220.63,1215.08,222.05,1213.91,222.05Z"/><path id="_Path_15" data-name=" Path 15" class="cls-45" d="M1246.55,372.21H1183l-4.37-103.29a7.56,7.56,0,0,1,7.23-7.87h57.5a7.56,7.56,0,0,1,7.57,7.55q0,.16,0,.33Z"/><g id="_Group_7" data-name=" Group 7"><rect class="cls-40" x="1192.05" y="496.33" width="10.58" height="23.27"/><g id="_Group_8" data-name=" Group 8"><line id="_Path_16" data-name=" Path 16" class="cls-46" x1="1195.57" y1="511.41" x2="1195.57" y2="518.69"/><line id="_Path_17" data-name=" Path 17" class="cls-46" x1="1199.1" y1="511.41" x2="1199.1" y2="518.69"/></g></g><g id="_Group_9" data-name=" Group 9"><rect class="cls-40" x="1226" y="496.33" width="10.58" height="23.27"/><g id="_Group_10" data-name=" Group 10"><line id="_Path_18" data-name=" Path 18" class="cls-46" x1="1229.52" y1="511.41" x2="1229.52" y2="518.69"/><line id="_Path_19" data-name=" Path 19" class="cls-46" x1="1233.05" y1="511.41" x2="1233.05" y2="518.69"/></g></g></g><ellipse class="cls-41" cx="910.79" cy="167.83" rx="29.75" ry="36.81" transform="translate(28.7 450.01) rotate(-28.18)"/><path class="cls-41" d="M926.54,195.6c2.14,6.7,1.06,16,1.06,16s4.72-7.33,13.2-7.07C940.79,204.51,931.35,202.81,926.54,195.6Z"/><path class="cls-47" d="M907.3,143.15s14.32,6.92,18.74,22.6C926,165.75,926.37,147.53,907.3,143.15Z"/><text class="cls-48" transform="translate(917.83 187.45) rotate(-28.18)">!</text><g id="_Group_11" data-name=" Group 11"><rect id="_Rectangle_" data-name=" Rectangle " class="cls-49" x="365.41" y="469.46" width="19.92" height="28.01"/><rect id="_Rectangle_2" data-name=" Rectangle 2" class="cls-49" x="340.31" y="469.46" width="19.91" height="28.01"/><polygon id="_Path_20" data-name=" Path 20" class="cls-50" points="360.22 352.93 365.41 352.93 385.33 352.93 385.33 384.46 385.33 479.63 365.41 479.63 365.41 377.45 360.22 377.45 360.22 479.63 340.31 479.63 340.31 384.46 340.31 352.93 360.22 352.93"/><path id="_Path_21" data-name=" Path 21" class="cls-51" d="M360.14,369.65h5.37a1.17,1.17,0,0,0,1.17-1.17h0V351.67a1.17,1.17,0,1,0-2.33,0v15.64h-4.2a1.17,1.17,0,0,0-.22,2.33h.21Z"/><path id="_Path_22" data-name=" Path 22" class="cls-52" d="M346.72,488.06h7a1.17,1.17,0,0,0,.22-2.33h-7.22a1.17,1.17,0,0,0-.22,2.33Z"/><path id="_Path_23" data-name=" Path 23" class="cls-52" d="M346.72,492.32h7a1.17,1.17,0,0,0,0-2.33h-7a1.17,1.17,0,0,0,0,2.33Z"/><path id="_Path_24" data-name=" Path 24" class="cls-52" d="M371.91,488.06h7a1.17,1.17,0,0,0,0-2.33h-7a1.17,1.17,0,0,0-.22,2.33Z"/><path id="_Path_25" data-name=" Path 25" class="cls-52" d="M371.91,492.32h7a1.17,1.17,0,0,0,0-2.33h-7a1.17,1.17,0,0,0,0,2.33Z"/><rect id="_Path_26" data-name=" Path 26" class="cls-53" x="328.28" y="331.96" width="10.56" height="17.04"/><rect id="_Rectangle_3" data-name=" Rectangle 3" class="cls-54" x="327.96" y="242.52" width="10.89" height="92.48"/><rect id="_Rectangle_4" data-name=" Rectangle 4" class="cls-54" x="323.44" y="330.09" width="15.41" height="9.53"/><rect id="_Rectangle_5" data-name=" Rectangle 5" class="cls-55" x="357.12" y="213.89" width="11.4" height="28.62"/><rect id="_Path_27" data-name=" Path 27" class="cls-39" x="345.18" y="145.64" width="35.27" height="44.11"/><path id="_Compound_Path_" data-name=" Compound Path " class="cls-39" d="M342.88,189.75V145.64a1.2,1.2,0,0,1,1.23-1.17h37.42a1.2,1.2,0,0,1,1.24,1.16h0v44.11a1.2,1.2,0,0,1-1.23,1.17H344.12a1.2,1.2,0,0,1-1.24-1.16Zm37.41-42.94H345.35v41.78h34.93Z"/><path id="_Path_28" data-name=" Path 28" class="cls-55" d="M334.83,178.53a7.7,7.7,0,1,0,15.39,0c0-4.25-7.74-12-12-12C334.83,166.54,334.83,166.72,334.83,178.53Z"/><path id="_Path_29" data-name=" Path 29" class="cls-55" d="M390.8,178.53a7.7,7.7,0,0,1-15.39,0c0-4.25,7.74-12,12-12C390.8,166.54,390.8,166.72,390.8,178.53Z"/><path id="_Path_30" data-name=" Path 30" class="cls-55" d="M354.28,221.19c1.61,2,3.4,3.64,4,3.64h5.27a11,11,0,0,0,7.23-3.56l6.56-7.73a14.8,14.8,0,0,0,3-8.23V158a4.68,4.68,0,0,0-4.67-4.67H350a4.68,4.68,0,0,0-4.7,4.66h0v47.36a15.52,15.52,0,0,0,2.92,8.31Z"/><ellipse id="_Path_31" data-name=" Path 31" class="cls-55" cx="338.25" cy="174.34" ry="3.78"/><path id="_Path_32" data-name=" Path 32" class="cls-56" d="M338.25,179.28a1.17,1.17,0,0,0,1.17-1.17h0v-7.56a1.17,1.17,0,0,0-2.33,0v7.56A1.17,1.17,0,0,0,338.25,179.28Z"/><ellipse id="_Path_33" data-name=" Path 33" class="cls-55" cx="387.35" cy="174.34" ry="3.78"/><path id="_Path_34" data-name=" Path 34" class="cls-56" d="M387.35,179.28a1.17,1.17,0,0,0,1.17-1.17h0v-7.56a1.17,1.17,0,0,0-2.33,0v7.56A1.17,1.17,0,0,0,387.35,179.28Z"/><path id="_Path_35" data-name=" Path 35" class="cls-39" d="M361,175.5h3.68a1.17,1.17,0,0,0,0-2.33H361a1.17,1.17,0,0,0-.22,2.33Z"/><path id="_Path_36" data-name=" Path 36" class="cls-39" d="M362.82,186.51a1.17,1.17,0,0,0,1.17-1.17h0V181a1.17,1.17,0,0,0-2.33,0v4.33a1.17,1.17,0,0,0,1.16,1.18Z"/><path id="_Path_37" data-name=" Path 37" class="cls-39" d="M362.82,204.44a6.09,6.09,0,0,0,6.09-6.09,1.17,1.17,0,0,0-2.33,0,3.75,3.75,0,1,1-7.5,0h0a1.17,1.17,0,0,0-2.33,0A6.09,6.09,0,0,0,362.82,204.44Z"/><path id="_Compound_Path_2" data-name=" Compound Path 2" class="cls-39" d="M363.48,174.1a9,9,0,1,1,9,9A9,9,0,0,1,363.48,174.1Zm2.33,0a6.68,6.68,0,1,0,6.68-6.68h0a6.68,6.68,0,0,0-6.67,6.68Z"/><path id="_Compound_Path_3" data-name=" Compound Path 3" class="cls-39" d="M344.13,174.1a9,9,0,1,1,9,9A9,9,0,0,1,344.13,174.1Zm2.33,0a6.68,6.68,0,1,0,6.68-6.68h0A6.68,6.68,0,0,0,346.46,174.1Z"/><path id="_Compound_Path_4" data-name=" Compound Path 4" class="cls-39" d="M351,174.34a2.16,2.16,0,1,1,2.16,2.16,2.16,2.16,0,0,1-2.16-2.16Zm2,0a.18.18,0,1,0,.18-.18h0A.18.18,0,0,0,353,174.34Z"/><path id="_Compound_Path_5" data-name=" Compound Path 5" class="cls-39" d="M370.34,174.34a2.16,2.16,0,1,1,2.16,2.16,2.16,2.16,0,0,1-2.16-2.16Zm2,0a.18.18,0,1,0,.18-.18h0a.18.18,0,0,0-.2.16v0Z"/><rect id="_Rectangle_6" data-name=" Rectangle 6" class="cls-57" x="338.26" y="242.51" width="49.1" height="110.41"/><path id="_Compound_Path_6" data-name=" Compound Path 6" class="cls-39" d="M361.64,340.62v-.07a1.17,1.17,0,0,1,2.33,0v.07a1.17,1.17,0,1,1-2.33,0Zm0-7.07v-.07a1.17,1.17,0,1,1,2.33,0v.07a1.17,1.17,0,1,1-2.33,0Zm0-7.07v-.07a1.17,1.17,0,1,1,2.33,0v.07a1.17,1.17,0,0,1-2.33,0Zm0-7.07v-.07a1.17,1.17,0,0,1,2.33,0v.07a1.17,1.17,0,1,1-2.33,0Zm0-7.07v-.07a1.17,1.17,0,0,1,2.33,0v.07a1.17,1.17,0,0,1-2.33,0Zm0-7.07v-.07a1.17,1.17,0,1,1,2.33,0v.07a1.17,1.17,0,0,1-2.33,0Zm0-7.07v-.07a1.17,1.17,0,0,1,2.33,0v.07a1.17,1.17,0,0,1-2.33,0Zm0-7.07V291a1.17,1.17,0,0,1,2.33,0v.07a1.17,1.17,0,1,1-2.33,0Zm0-7.07V284a1.17,1.17,0,1,1,2.33,0h0a1.17,1.17,0,0,1-2.33,0Zm0-7.07v-.07a1.17,1.17,0,0,1,2.33,0V277a1.17,1.17,0,0,1-2.33,0Zm0-7.07v-.07a1.17,1.17,0,1,1,2.33,0v.07a1.17,1.17,0,0,1-2.33,0Zm0-7.07v-.07a1.17,1.17,0,0,1,2.33,0v.07a1.17,1.17,0,1,1-2.33,0Z"/><polygon id="_Path_38" data-name=" Path 38" class="cls-57" points="354.75 242.51 362.82 258.87 370.88 242.51 354.75 242.51"/></g><path class="cls-55" d="M404.37,149.31v54s-19.65,10.85-37.26-10.85c0,0-10-12.28-2.46-30.91,0,0,8-15.35,22.52-16S404.37,149.31,404.37,149.31Z"/><path class="cls-55" d="M404,162s6.55-7.78,9.83-5.94,9,14.53,6.14,26.82-8.8,15.35-9.83,15.76-6.55,2-7.78-3.89"/><circle class="cls-39" cx="391.81" cy="175.7" r="8.89"/><line class="cls-58" x1="373.9" y1="175.61" x2="361.71" y2="175.61"/><circle class="cls-58" cx="391.81" cy="175.61" r="17.91"/><circle class="cls-59" cx="391.64" cy="175.35" r="30.1" transform="translate(-31.62 245.95) rotate(-33.59)"/><path class="cls-60" d="M412.35,166.51s1.86,19.39-7.94,25.9C404.41,192.41,420.94,185.39,412.35,166.51Z"/><line class="cls-61" x1="380.94" y1="203.95" x2="367.68" y2="238.47"/><path class="cls-53" d="M387.35,242.52"/><path class="cls-54" d="M387.32,242.51s9.66.67,11.59,6.66c1.54,4.77,2.77,26.53,1.3,37.45-.23,1.74-9.6,12.73-10.75,11.4l-20.4-60.47,8.35-6.3,14,44.62-3.91-24.43Z"/><rect class="cls-53" x="365.26" y="226.15" width="11.3" height="10.8" transform="translate(-66.08 216.48) rotate(-30)"/><path id="_Path_39" data-name=" Path 39" class="cls-62" d="M49.25,457.62a10.44,10.44,0,0,1,5.76-7.2c-4.55-3.4-6.67-8.81-4.82-13.47,1.58-4,5.66-6.39,10.35-6.59l-.1-.18c-3.44-6.77-1.57-14.63,4.18-17.56,3.74-1.9,8.2-1.23,11.81,1.32.1-7.5,5.42-13.55,12-13.55,4.59,0,8.57,3,10.58,7.32,2.58-4.3,7.11-6.89,11.83-6.19,6.55,1,11,7.84,9.85,15.35a.52.52,0,0,1-.05.27,12.75,12.75,0,0,1,8-1.27,16,16,0,0,1,2.92-.39l-.12-.2c-3.88-7.64-1.77-16.5,4.71-19.79,4.22-2.14,9.25-1.39,13.32,1.49.11-8.45,6.11-15.27,13.5-15.27,5.18,0,9.67,3.35,11.94,8.26,2.91-4.85,8-7.76,13.34-7,7.38,1.09,12.35,8.83,11.11,17.31a.56.56,0,0,1-.06.31c4.61-2.32,9.93-2.25,13.94.69a11.88,11.88,0,0,1,3,3.24,10.18,10.18,0,0,1,6.14-2.1c4.32,0,8.06,2.79,9.95,6.88,2.42-4,6.68-6.47,11.12-5.82,6.15.9,10.3,7.36,9.26,14.43a.48.48,0,0,1-.05.26,11.41,11.41,0,0,1,10-.4,10.65,10.65,0,0,1,5.23-6.26c3.74-1.9,8.2-1.23,11.81,1.32.1-7.5,5.41-13.55,12-13.55,4.59,0,8.57,3,10.59,7.32,2.58-4.31,7.11-6.88,11.83-6.19,6.55,1,11,7.84,9.85,15.35a.58.58,0,0,1,0,.28,11.78,11.78,0,0,1,12.36.61c5.34,3.91,6,12,1.53,18.18-.18.25-.38.48-.57.71A11.85,11.85,0,0,1,346,440.8a11.82,11.82,0,0,1,1.45-.15l-.08-.15c-2.81-5.53-1.28-12,3.42-14.34a9.33,9.33,0,0,1,9.65,1.08c.08-6.13,4.42-11.07,9.78-11.07a9.71,9.71,0,0,1,8.65,6c2.11-3.52,5.81-5.62,9.67-5.06,5.35.79,9,6.4,8,12.54v.23a10.54,10.54,0,0,1,5.81-1.11,10.9,10.9,0,0,1,.54-6.09c1.78-4.5,6.39-7.21,11.67-7.43l-.11-.2c-3.88-7.64-1.77-16.5,4.71-19.79,4.22-2.14,9.25-1.39,13.32,1.49.11-8.45,6.11-15.27,13.5-15.27,5.18,0,9.67,3.35,11.94,8.26,2.91-4.85,8-7.76,13.34-7,7.38,1.09,12.35,8.83,11.11,17.31a.56.56,0,0,1-.06.31c4.61-2.32,9.93-2.25,13.94.69,5.93,4.35,6.76,13.33,1.92,20.2,5.91-.41,11.42,2.36,13.72,7.45,2.44,5.43.48,11.84-4.37,16h.12c8.49,1.12,14.59,8,13.61,15.41a12.81,12.81,0,0,1-6.57,9.37c5.45,4,7.9,10.64,5.51,16.38a12.5,12.5,0,0,1-7,6.72,12.16,12.16,0,0,1-.65,7.1c-2.33,5.61-8.56,8.59-15.07,7.72H411a11.93,11.93,0,0,1-3.48,0h-7a16.52,16.52,0,0,1-3.62,0H337.59a11.42,11.42,0,0,1-6.25-.88,14.27,14.27,0,0,1-8.11.69h-53.3a13.65,13.65,0,0,1-4.63.17H220.08a16.34,16.34,0,0,1-5.61.21H118a16.44,16.44,0,0,1-4.92-.08c-16.27-.06-39.67-.14-44-.14-6.79,0-13.18,0-15.5-5.57-1.73-4.17-.59-8.89,2.53-12.4a11.49,11.49,0,0,1-6.47-8.66c-.59-4.52,1.79-8.83,5.8-11.4C50.94,466.77,48.35,462.19,49.25,457.62Z"/><path id="_Path_40" data-name=" Path 40" class="cls-62" d="M962.14,470a12.41,12.41,0,0,1,6.84-8.56c-5.41-4-7.93-10.47-5.73-16,1.88-4.74,6.73-7.6,12.31-7.84l-.12-.21c-4.09-8-1.87-17.39,5-20.87,4.45-2.26,9.75-1.47,14,1.57.12-8.91,6.44-16.1,14.23-16.1,5.46,0,10.19,3.53,12.58,8.7,3.07-5.12,8.45-8.18,14.06-7.36,7.78,1.14,13,9.31,11.71,18.25a.65.65,0,0,1-.06.33,15.16,15.16,0,0,1,9.49-1.51,19.08,19.08,0,0,1,3.47-.47l-.14-.24c-4.61-9.08-2.1-19.61,5.6-23.53,5-2.55,11-1.65,15.83,1.77.13-10,7.26-18.15,16-18.15,6.15,0,11.49,4,14.19,9.81,3.45-5.77,9.53-9.23,15.85-8.3,8.77,1.29,14.68,10.5,13.2,20.57a2.21,2.21,0,0,1-.07.37c5.47-2.76,11.8-2.68,16.57.82a14.12,14.12,0,0,1,3.58,3.85,12.1,12.1,0,0,1,7.29-2.49c5.13,0,9.58,3.32,11.83,8.18,2.88-4.81,7.94-7.69,13.22-6.91,7.31,1.08,12.24,8.75,11,17.15a.59.59,0,0,1-.06.31,13.57,13.57,0,0,1,11.84-.48,12.66,12.66,0,0,1,6.21-7.44c4.45-2.26,9.75-1.46,14,1.57.11-8.91,6.44-16.1,14.23-16.1,5.45,0,10.19,3.53,12.58,8.7,3.07-5.12,8.45-8.18,14.06-7.36,7.78,1.14,13,9.31,11.71,18.24a.65.65,0,0,1-.06.33c4.86-2.44,10.47-2.37,14.69.72,6.34,4.65,7.16,14.32,1.82,21.6-.22.29-.45.57-.68.85a14.09,14.09,0,0,1,10.47,6.26,14,14,0,0,1,1.72-.18l-.1-.17c-3.34-6.58-1.52-14.21,4.06-17a11.06,11.06,0,0,1,11.47,1.29c.09-7.28,5.26-13.16,11.62-13.16,4.46,0,8.33,2.88,10.28,7.11,2.51-4.18,6.9-6.68,11.49-6,6.35.94,10.64,7.61,9.57,14.91a.52.52,0,0,1-.05.27,12.53,12.53,0,0,1,6.91-1.32,13,13,0,0,1,.64-7.24c2.12-5.35,7.59-8.57,13.88-8.84l-.14-.24c-4.61-9.08-2.1-19.61,5.6-23.53,5-2.55,11-1.65,15.83,1.77.13-10,7.26-18.15,16-18.15,6.15,0,11.49,4,14.19,9.81,3.46-5.77,9.53-9.23,15.85-8.3,8.77,1.29,14.68,10.5,13.2,20.57a2.21,2.21,0,0,1-.07.37c5.48-2.76,11.8-2.68,16.57.82,7.05,5.17,8,15.84,2.28,24,7-.48,13.58,2.81,16.31,8.86,2.9,6.45.58,14.07-5.2,19h.14c10.09,1.33,17.34,9.53,16.18,18.32a15.23,15.23,0,0,1-7.81,11.14c6.47,4.72,9.39,12.65,6.55,19.47a14.86,14.86,0,0,1-8.26,8,14.46,14.46,0,0,1-.77,8.44c-2.77,6.67-10.18,10.21-17.91,9.17H1392.1a14.18,14.18,0,0,1-4.14,0h-8.26a19.63,19.63,0,0,1-4.3,0h-70.54a13.58,13.58,0,0,1-7.43-1,17,17,0,0,1-9.64.82h-63.34a16.22,16.22,0,0,1-5.5.2H1165.2a19.42,19.42,0,0,1-6.67.25H1043.84a19.54,19.54,0,0,1-5.84-.09c-19.33-.07-47.15-.17-52.32-.17-8.07,0-15.67,0-18.43-6.62-2.06-5-.7-10.57,3-14.74a13.65,13.65,0,0,1-7.69-10.29c-.71-5.37,2.13-10.5,6.89-13.55C964.15,480.85,961.08,475.41,962.14,470Z"/><ellipse class="cls-7" cx="627.34" cy="430.2" rx="44.58" ry="36.02" transform="translate(-113.51 257.66) rotate(-21.33)"/><path class="cls-7" d="M591.75,445.08c-8.36,1.61-19.37-1-19.37-1s8.13,6.73,6.59,16.89C579,460.93,582.38,449.83,591.75,445.08Z"/><path class="cls-8" d="M657.58,429.52s-10.39,16.22-29.88,19.27C627.71,448.79,649.56,451.81,657.58,429.52Z"/><text class="cls-63" transform="translate(602.81 435.78) rotate(68.84)">!</text><path class="cls-64" d="M401.74,225.36"/><g class="cls-65"><path class="cls-66" d="M1192.66,74.46q0-1.52.07-2.52a13.7,13.7,0,0,1,.46-2.44,6.23,6.23,0,0,1,1.17-2.39,8.67,8.67,0,0,1,4.32-3A11.7,11.7,0,0,1,1209,65.91a9.85,9.85,0,0,1,3.27,4,11.49,11.49,0,0,1,.49,3.94,7.38,7.38,0,0,1-1.56,5,11.69,11.69,0,0,1-4.19,3l-2,.79-1.84.74q-1.63.69-1.88,1.48a2.41,2.41,0,0,0,.06,2,1.91,1.91,0,0,0,1.37.94,1.78,1.78,0,0,0,1.52-.37,2.45,2.45,0,0,0,.78-1.73.79.79,0,0,1-.32-.63.7.7,0,0,1,.78-.79,55.35,55.35,0,0,1,5.67.3.52.52,0,0,1,.26.1.47.47,0,0,1,.21-.05.7.7,0,0,1,.79.79,9.54,9.54,0,0,1-2.16,6.44,9.81,9.81,0,0,1-5.37,3.3,9.52,9.52,0,0,1-6-.58,7.6,7.6,0,0,1-4.11-4.37,13.38,13.38,0,0,1-.7-4.78,8.12,8.12,0,0,1,1.87-5.57,10.57,10.57,0,0,1,4.14-2.64q.58-.26,2.15-.79a16.43,16.43,0,0,0,1.83-.74q1.62-.74,1.83-1.69a2.74,2.74,0,0,0-.56-2.67,3.57,3.57,0,0,0-2.55-1.2,2.34,2.34,0,0,0-2.2.9q-.94,1.26-.25,3.83a.92.92,0,0,1-.1.6.82.82,0,0,1-.47.4.78.78,0,0,1-.84-.31.77.77,0,0,1-.47.16q-2.94,0-3.94.06a.75.75,0,0,1-.84-.57h-.1A.7.7,0,0,1,1192.66,74.46Zm1.72-3.05a20.73,20.73,0,0,0-.15,2.84h.68a.55.55,0,0,1,.21-.37,31.92,31.92,0,0,0,2.67-2.32L1199,70.4a2.48,2.48,0,0,1,.16-.26,4.14,4.14,0,0,1,1.57-1.21q.42-.32,1-.69l1.31-.84a9.11,9.11,0,0,0,1.94-1.69,8.63,8.63,0,0,0-1.26-.31,6.8,6.8,0,0,0-1.42-.15L1199.88,67q-1.83,1.37-3,2.32a26.57,26.57,0,0,0-2.17,1.95A.35.35,0,0,1,1194.38,71.41Zm.36-1.63q1.42-1.32,5.66-4.43a7.4,7.4,0,0,0-4.77,2.69A5.43,5.43,0,0,0,1194.74,69.79Zm1.8,19.05.47-.32q1.73-1.11,2.25-1.53a.36.36,0,0,1,.26-.11,4.16,4.16,0,0,1,2.92-4.95q.58-.26,1.91-.74a18.9,18.9,0,0,0,2-.79,10.53,10.53,0,0,0,3.12-2,5.46,5.46,0,0,0,1.54-3q-1.31.9-3.93,2.38-3.83,2.17-4.93,2.85-.63.42-3.4,2.69a18.84,18.84,0,0,1-3.19,2.16,13.13,13.13,0,0,0,.38,3.52l.1-.11A.5.5,0,0,1,1196.54,88.84ZM1211,71.57q-.47.42-1.1.9l-1.36,1-1.1.84a.15.15,0,0,1-.11.05v.1a4.54,4.54,0,0,1-2.77,2.74,18.78,18.78,0,0,1-2,.74q-1.47.53-2,.79A9,9,0,0,0,1197,81a6.14,6.14,0,0,0-1.46,3.36,17.14,17.14,0,0,0,2.51-1.79q2.67-2.16,3.51-2.69t4.93-2.9q2.93-1.69,4.61-2.9v-.16A15.37,15.37,0,0,0,1211,71.57ZM1198.6,92.71a8.64,8.64,0,0,0,2-1.11q1.2-.79,3-2.21a2.54,2.54,0,0,1-1.26,0,3.24,3.24,0,0,1-2.42-1.62l-.05.05q-.52.42-2.3,1.58-.84.53-1.15.69a.41.41,0,0,0-.16.05,6.19,6.19,0,0,0,2.27,2.56Zm-2.16-18.53h2a9.65,9.65,0,0,1-.06-1.73Zm4.28,22.56a.74.74,0,0,1,.73-.53,6.06,6.06,0,0,1,4.15,1.25,3.58,3.58,0,0,1,1.17,3,5.21,5.21,0,0,1-1.09,2.84,3.74,3.74,0,0,1-2.46,1.53,4.54,4.54,0,0,1-3.13-.75,4.09,4.09,0,0,1-1.66-2.44,4.13,4.13,0,0,1,.23-2.78A4.24,4.24,0,0,1,1200.71,96.75Zm8.94-10.63c-.31.21-.75.54-1.31,1l-2.1,1.58-1.94,1.53q-1.94,1.48-3.09,2.27l-1.47.84a7.27,7.27,0,0,0,2.73.52,78.67,78.67,0,0,0,7.7-5.07,8.89,8.89,0,0,0,.57-2.57ZM1204,98.26a1.89,1.89,0,0,1-.1.26A8,8,0,0,1,1202,99.9l-1,.53-.84.53a.56.56,0,0,1-.31.11.46.46,0,0,0,.05.21,3.06,3.06,0,0,0,.32.79l1-.32a7.76,7.76,0,0,0,1.07-.5l.84-.45q.21-.11,1.07-.66a5.05,5.05,0,0,0,.86-.61,2.1,2.1,0,0,0-.53-.89A3.27,3.27,0,0,0,1204,98.26Zm-1.05-.31a6.78,6.78,0,0,0-.95-.15.51.51,0,0,1-.26.21,2.82,2.82,0,0,0-1.73,1.84,3.43,3.43,0,0,1,.52-.32l1-.58A7.19,7.19,0,0,0,1202.92,98Zm2.21,2.83a19.61,19.61,0,0,1-4,2.11,3.37,3.37,0,0,0,2,.36,2.06,2.06,0,0,0,1.31-.9A4.63,4.63,0,0,0,1205.13,100.78Zm.88-34.65a9.77,9.77,0,0,1-2.36,2.11l-.58.37a5.42,5.42,0,0,1,2.52,1,9.54,9.54,0,0,0,1.62-1.21,13.27,13.27,0,0,1,1.21-.95,10.67,10.67,0,0,0-2.37-1.41A0,0,0,0,0,1206,66.13Zm2.81,24.93-3.67,2.43A7.71,7.71,0,0,0,1208.83,91.05Zm-2.74-3.56L1208,86q-.79,0-1.52,0A5.18,5.18,0,0,1,1206.09,87.49Zm4.62-17.08a7.58,7.58,0,0,0-1.48-2.2,8.72,8.72,0,0,0-1.31,1q-1,.85-1.47,1.16a4.39,4.39,0,0,1,1.06,2.62,35.63,35.63,0,0,0,3.14-2.53A0,0,0,0,1,1210.7,70.42Z"/></g><g class="cls-65"><path class="cls-66" d="M1116.79,134.95q-1.32-.76-2.15-1.33a13.7,13.7,0,0,1-1.89-1.63,6.25,6.25,0,0,1-1.49-2.22,8.71,8.71,0,0,1-.39-5.24,11.75,11.75,0,0,1,6.69-8,9.89,9.89,0,0,1,5.14-.81,11.55,11.55,0,0,1,3.66,1.56,7.42,7.42,0,0,1,3.57,3.88,11.73,11.73,0,0,1,.48,5.14l-.34,2.17q-.21,1.52-.28,2a3.11,3.11,0,0,0,.33,2.38,2.42,2.42,0,0,0,1.81,1,1.92,1.92,0,0,0,1.5-.71,1.79,1.79,0,0,0,.44-1.51,2.46,2.46,0,0,0-1.11-1.55.8.8,0,0,1-.71,0,.7.7,0,0,1-.29-1.08,55.71,55.71,0,0,1,3.11-4.78.52.52,0,0,1,.22-.18.46.46,0,0,1,.06-.21.7.7,0,0,1,1.08-.29,9.58,9.58,0,0,1,4.51,5.11,9.85,9.85,0,0,1,.16,6.32,9.55,9.55,0,0,1-3.54,5,7.63,7.63,0,0,1-5.86,1.37,13.47,13.47,0,0,1-4.5-1.79,8.16,8.16,0,0,1-3.9-4.43,10.61,10.61,0,0,1-.21-4.92q.06-.63.39-2.27a16.44,16.44,0,0,0,.28-2,2.86,2.86,0,0,0-.54-2.44,2.75,2.75,0,0,0-2.6-.86,3.58,3.58,0,0,0-2.32,1.61,2.35,2.35,0,0,0-.33,2.36q.62,1.45,3.2,2.14a.92.92,0,0,1,.47.39.81.81,0,0,1,.11.61.78.78,0,0,1-.7.57.77.77,0,0,1-.1.49q-1.47,2.56-1.92,3.45a.75.75,0,0,1-.92.44l-.05.09A.7.7,0,0,1,1116.79,134.95Zm-3-4.16q-.43-1.89-1-7.14a7.43,7.43,0,0,0-.06,5.5A5.43,5.43,0,0,0,1113.78,130.78Zm1.23,1.13a20.81,20.81,0,0,0,2.39,1.55l0,0,.31-.55a.55.55,0,0,1-.21-.37,32.54,32.54,0,0,0-.67-3.48l-.38-1.67a2.42,2.42,0,0,1-.15-.27,4.18,4.18,0,0,1-.26-2c0-.35-.07-.75-.09-1.21l-.08-1.56a9.12,9.12,0,0,0-.49-2.53,8.38,8.38,0,0,0-.9.94,6.77,6.77,0,0,0-.85,1.15l.27,3q.27,2.28.5,3.78a26.19,26.19,0,0,0,.6,2.87A.36.36,0,0,1,1115,131.92Zm1.26-12.77a9.81,9.81,0,0,1,.65,3.11l0,.69a5.41,5.41,0,0,1,2.17-1.67,9.69,9.69,0,0,0-.24-2,13.37,13.37,0,0,1-.22-1.52,10.64,10.64,0,0,0-2.41,1.35A0,0,0,0,0,1116.27,119.15Zm2.18,12.38.94-1.64.05-.09a9.78,9.78,0,0,1-1.53-.82Zm3.9-14.29a7.63,7.63,0,0,0-2.65.18,8.59,8.59,0,0,0,.21,1.64,18.72,18.72,0,0,1,.27,1.86,4.41,4.41,0,0,1,2.81.4,35.51,35.51,0,0,0-.62-4A0,0,0,0,1,1122.35,117.24Zm1.16.3c.09.41.16.88.23,1.41l.19,1.69.18,1.38a.15.15,0,0,1,0,.12l.09.05a4.56,4.56,0,0,1,1,3.79,18.75,18.75,0,0,1-.36,2.1q-.28,1.54-.34,2.17a9,9,0,0,0,.16,4.16,6.16,6.16,0,0,0,2.19,3,17.33,17.33,0,0,0-.29-3.08q-.53-3.41-.57-4.4t0-5.74q0-3.4-.2-5.46l-.14-.08A15.37,15.37,0,0,0,1123.51,117.54Zm7.71,21.26,0-.57q-.09-2.06-.2-2.72a.36.36,0,0,1,0-.28,4.17,4.17,0,0,1-2.82-5q.06-.63.32-2a18.58,18.58,0,0,0,.3-2.11,10.52,10.52,0,0,0-.15-3.7,5.48,5.48,0,0,0-1.81-2.83q.12,1.59.09,4.61,0,4.41,0,5.71.05.76.62,4.31a19,19,0,0,1,.27,3.86,13.17,13.17,0,0,0,3.24,1.44l0-.14A.5.5,0,0,1,1131.22,138.8Zm4.4.16a8.66,8.66,0,0,0,0-2.29q-.08-1.45-.4-3.75a2.57,2.57,0,0,1-.63,1.1,3.24,3.24,0,0,1-2.62,1.29l0,.07q.1.67.21,2.8,0,1,0,1.35a.43.43,0,0,0,0,.16,6.22,6.22,0,0,0,3.37-.68Zm-.77-9.13-.35-2.45q-.39.68-.81,1.3A5.22,5.22,0,0,1,1134.86,129.84Zm.6-3.79q0,.57.21,1.64l.32,2.62.35,2.45q.31,2.43.42,3.82v1.7a7.31,7.31,0,0,0,1.82-2.11,78.9,78.9,0,0,0-.53-9.23,8.94,8.94,0,0,0-2-1.79Zm3.87,3.2.26,4.41A7.73,7.73,0,0,0,1139.33,129.25Zm.86,9.92a.75.75,0,0,1-.09-.9,6.07,6.07,0,0,1,3.17-3,3.59,3.59,0,0,1,3.18.49,5.22,5.22,0,0,1,1.92,2.38,3.75,3.75,0,0,1,.09,2.91,4.55,4.55,0,0,1-2.22,2.34,4.1,4.1,0,0,1-3,.22,4.15,4.15,0,0,1-2.3-1.6A4.25,4.25,0,0,1,1140.19,139.16Zm2.15-1.31a6.77,6.77,0,0,0-.61.74.5.5,0,0,1,.05.33,2.83,2.83,0,0,0,.73,2.43,3.36,3.36,0,0,1,0-.61v-1.16A7.18,7.18,0,0,0,1142.34,137.85Zm.8-.76a1.87,1.87,0,0,1,.17.22,8,8,0,0,1,.27,2.28l0,1.13c0,.41,0,.74,0,1a.56.56,0,0,1-.07.33.47.47,0,0,0,.21.06,3.1,3.1,0,0,0,.84.12q.13-.54.21-1a7.86,7.86,0,0,0,.1-1.19c0-.48,0-.8,0-1s0-.58,0-1.26a4.91,4.91,0,0,0-.09-1.06,2.09,2.09,0,0,0-1,0A3.29,3.29,0,0,0,1143.14,137.09Zm2.77.25a19.7,19.7,0,0,1-.19,4.57,3.37,3.37,0,0,0,1.32-1.55,2.07,2.07,0,0,0-.12-1.59A4.66,4.66,0,0,0,1145.91,137.34Z"/></g><g class="cls-65"><path class="cls-66" d="M1267.74,127.94a.74.74,0,0,1,.82.37,6.07,6.07,0,0,1,1,4.22,3.58,3.58,0,0,1-2,2.5,5.21,5.21,0,0,1-3,.47,3.74,3.74,0,0,1-2.56-1.37,4.53,4.53,0,0,1-.91-3.08,4.09,4.09,0,0,1,1.28-2.66,4.13,4.13,0,0,1,2.52-1.19A4.23,4.23,0,0,1,1267.74,127.94Zm-1.28,5.84a19.67,19.67,0,0,1-3.85-2.44,3.36,3.36,0,0,0,.69,1.91,2.06,2.06,0,0,0,1.43.69A4.62,4.62,0,0,0,1266.46,133.79Zm1.6-2.27-.28,0a8,8,0,0,1-2.1-.9l-1-.6-.88-.46a.55.55,0,0,1-.25-.22.47.47,0,0,0-.16.15,3.12,3.12,0,0,0-.52.67q.4.37.76.68a7.73,7.73,0,0,0,1,.68l.81.5q.2.13,1.11.6a5.08,5.08,0,0,0,1,.45,2.11,2.11,0,0,0,.51-.9A3.25,3.25,0,0,0,1268.06,131.52Zm-.25-1.07a6.72,6.72,0,0,0-.34-.89.52.52,0,0,1-.31-.12,2.82,2.82,0,0,0-2.46-.57,3.37,3.37,0,0,1,.54.29l1,.57A7.21,7.21,0,0,0,1267.81,130.45ZM1283,109.82q1.32-.76,2.22-1.2a13.68,13.68,0,0,1,2.35-.82,6.24,6.24,0,0,1,2.66-.18,8.68,8.68,0,0,1,4.72,2.27,11.69,11.69,0,0,1,3.62,9.77,9.86,9.86,0,0,1-1.86,4.85,11.49,11.49,0,0,1-3.17,2.39,7.39,7.39,0,0,1-5.12,1.16,11.68,11.68,0,0,1-4.68-2.14l-1.71-1.37-1.56-1.22a3.1,3.1,0,0,0-2.22-.89,2.41,2.41,0,0,0-1.74,1.07,1.91,1.91,0,0,0-.13,1.66,1.78,1.78,0,0,0,1.08,1.13,2.45,2.45,0,0,0,1.89-.19.8.8,0,0,1,.39-.59.7.7,0,0,1,1.08.28,55.25,55.25,0,0,1,2.58,5.06.52.52,0,0,1,0,.28.47.47,0,0,1,.15.16.7.7,0,0,1-.28,1.08,9.55,9.55,0,0,1-6.66,1.35,9.81,9.81,0,0,1-5.54-3,9.51,9.51,0,0,1-2.51-5.52,7.61,7.61,0,0,1,1.73-5.74,13.41,13.41,0,0,1,3.79-3,8.13,8.13,0,0,1,5.76-1.16,10.59,10.59,0,0,1,4.35,2.27q.52.37,1.76,1.46a16.05,16.05,0,0,0,1.56,1.22,2.85,2.85,0,0,0,2.38.74,2.74,2.74,0,0,0,2-1.82,3.57,3.57,0,0,0-.24-2.81,2.34,2.34,0,0,0-1.88-1.46q-1.56-.18-3.44,1.7a.92.92,0,0,1-.58.21.81.81,0,0,1-.58-.21.78.78,0,0,1-.15-.88.77.77,0,0,1-.37-.33q-1.48-2.54-2-3.38a.75.75,0,0,1,.08-1l-.05-.09A.7.7,0,0,1,1283,109.82Zm-12.83,14.27a8.65,8.65,0,0,0,2,1.17q1.29.65,3.44,1.52a2.53,2.53,0,0,1-.63-1.09,3.24,3.24,0,0,1,.19-2.91l-.07,0q-.63-.24-2.52-1.21-.88-.46-1.17-.65a.4.4,0,0,0-.12-.11,6.2,6.2,0,0,0-1.09,3.24Zm11.24,6.27q-.51-.25-1.52-.63l-2.42-1-2.29-.91q-2.25-.94-3.51-1.54l-1.46-.85a7.26,7.26,0,0,0,.92,2.62,79,79,0,0,0,8.24,4.14,8.93,8.93,0,0,0,2.51-.79Zm-8.92-10,.51.25q1.82.94,2.45,1.19a.36.36,0,0,1,.22.17,4.15,4.15,0,0,1,5.74.06q.52.37,1.6,1.29a19,19,0,0,0,1.67,1.31,10.49,10.49,0,0,0,3.27,1.71,5.45,5.45,0,0,0,3.34-.15q-1.43-.69-4-2.22-3.79-2.23-4.93-2.84-.68-.33-4-1.6a18.82,18.82,0,0,1-3.47-1.69,13.13,13.13,0,0,0-2.86,2.09l.14,0A.5.5,0,0,1,1272.51,120.37Zm4.23,11.75-3.94-2A7.7,7.7,0,0,0,1276.73,132.12Zm18-7.84q-.6-.2-1.33-.5l-1.55-.68-1.28-.53a.15.15,0,0,1-.1-.06l-.09.05a4.54,4.54,0,0,1-3.76-1,19,19,0,0,1-1.64-1.36q-1.19-1-1.71-1.37a8.93,8.93,0,0,0-3.67-1.93,6.15,6.15,0,0,0-3.64.42,17.18,17.18,0,0,0,2.81,1.28q3.21,1.23,4.08,1.69t5,2.81q2.93,1.7,4.82,2.54l.14-.08A15.58,15.58,0,0,0,1294.71,124.28ZM1278.45,128l2.29.91q-.4-.68-.72-1.34A5.26,5.26,0,0,1,1278.45,128Zm8.07-18.18a21,21,0,0,0-2.53,1.29l0,0,.32.54a.55.55,0,0,1,.42,0,32.54,32.54,0,0,0,3.34,1.15l1.63.51h.31a4.16,4.16,0,0,1,1.83.75c.32.14.69.31,1.09.52l1.39.71a9.09,9.09,0,0,0,2.43.83,8.43,8.43,0,0,0-.36-1.25,6.79,6.79,0,0,0-.58-1.3l-2.74-1.26q-2.1-.9-3.51-1.45a26.33,26.33,0,0,0-2.77-.91A.36.36,0,0,1,1286.52,109.79Zm-1.37,3.17,1,1.63.05.09a9.8,9.8,0,0,1,1.47-.92Zm3-3.67q1.85.57,6.66,2.68a7.4,7.4,0,0,0-4.72-2.78A5.4,5.4,0,0,0,1288.11,109.29Zm7.44,14.14a7.63,7.63,0,0,0,1.17-2.38,8.72,8.72,0,0,0-1.52-.63q-1.23-.44-1.74-.69a4.39,4.39,0,0,1-1.74,2.23,35.55,35.55,0,0,0,3.76,1.46A0,0,0,0,1,1295.54,123.43Zm1.37-6.2a9.76,9.76,0,0,1-3-1l-.61-.32a5.42,5.42,0,0,1,.36,2.71,9.58,9.58,0,0,0,1.86.8,13.51,13.51,0,0,1,1.42.57,10.67,10.67,0,0,0,0-2.75A0,0,0,0,0,1296.92,117.23Z"/></g><g class="cls-65"><path class="cls-66" d="M1154.11,75.67l5.69-3a.89.89,0,0,1,1,.08.86.86,0,0,1,1.21.28,38.14,38.14,0,0,1,2.32,3.81q1.09,2,2.44,4.91t1.88,3.86q.68,1.55,5,9.36t5,9.24a.83.83,0,0,1-.39,1.27.91.91,0,0,1-.59.1l-.17.09q-1,.53-2.87,1.67t-3,1.82a.83.83,0,0,1-1.27-.39,1,1,0,0,1,0-.84q-.44-.83-4.9-9t-4.79-9.05q-.62-1.16-1.94-4t-2.37-4.77a34.29,34.29,0,0,0-2.21-3.61l-.09-.17a1.11,1.11,0,0,1-.35-.38A.83.83,0,0,1,1154.11,75.67Zm6.81-.94-.24-.44L1156,76.8a42.1,42.1,0,0,1,2.67,4.61A46.93,46.93,0,0,1,1160.92,74.73Zm.82,1.27a56.08,56.08,0,0,0-2.22,7.15q.38.72,1.2,2.45t1.2,2.59a13.67,13.67,0,0,0,.87-2.24q.1-.48.36-1.33l.46-1.53c.14-.45.28-.86.42-1.22a.63.63,0,0,1,.6-.46Q1163,78,1161.74,76Zm3.39,6.5q-.26.71-.64,2.12l-.52,1.7a16.37,16.37,0,0,1-1.31,3.26q1.15,2.3,2.63,5.06a31.31,31.31,0,0,0,2.39-7l-.65-1.22Q1166.39,85.24,1165.14,82.5Zm3.41,6.92A32.92,32.92,0,0,1,1166,96q.82,1.55,2.65,4.84a29.84,29.84,0,0,0,2.52-6.46Zm5.54,10.25-.92-1.71-1.09-2a24,24,0,0,1-2.72,6.21q1.44,2.57,2.38,4.34.18-.59.81-2.14t1-2.59A12.56,12.56,0,0,0,1174.08,99.67Zm.14,16a3.61,3.61,0,0,1-1.56-2.65,4,4,0,0,1,1.15-3.17,5.22,5.22,0,0,1,3-1.82,4.9,4.9,0,0,1,3.74.49,4.82,4.82,0,0,1,2.31,3.06,4.27,4.27,0,0,1-.74,3.34,4.74,4.74,0,0,1-3,2.11,6.4,6.4,0,0,1-4.33-.46A.91.91,0,0,1,1174.23,115.64Zm-1-9.61.44-.24q1.85-1.2,2.84-1.73l-1.47-2.76Q1174.69,102.4,1173.21,106Zm2.61,8.48a25.26,25.26,0,0,0,1.95-4.73,4,4,0,0,0-2.57,1.3,2.33,2.33,0,0,0-.71,1.73A2.61,2.61,0,0,0,1175.82,114.5Zm3.21-4.63a25.8,25.8,0,0,1-2.18,5.35,3.35,3.35,0,0,0,3.72-1.42,2.33,2.33,0,0,0,.49-1.93,2.8,2.8,0,0,0-1.46-1.74Z"/></g><g class="cls-65"><path class="cls-66" d="M1106.27,165.73l.22-6.45a.89.89,0,0,1,.59-.86.86.86,0,0,1,.85-.91,38.36,38.36,0,0,1,4.45-.1q2.32.08,5.47.34t4.28.3q1.69.18,10.58.39l10.52.26a.83.83,0,0,1,.91,1,.91.91,0,0,1-.21.56v.19q0,1.13,0,3.32t.07,3.51a.83.83,0,0,1-1,.91,1,1,0,0,1-.74-.4l-10.24-.25q-9.3-.22-10.24-.37-1.31,0-4.41-.3t-5.32-.33a34.11,34.11,0,0,0-4.23.11h-.19a1.1,1.1,0,0,1-.5.11A.83.83,0,0,1,1106.27,165.73Zm2.59-6.37-.5,0-.18,5.32a42.23,42.23,0,0,1,5.33,0A47,47,0,0,1,1108.87,159.36Zm1.51-.08a55.8,55.8,0,0,0,5.08,5.5q.81,0,2.72.19l2.84.25a13.68,13.68,0,0,0-1.5-1.87q-.37-.33-1-1l-1.09-1.17q-.48-.52-.84-1a.63.63,0,0,1-.1-.76Q1112.76,159.24,1110.38,159.28Zm7.32.31q.48.58,1.51,1.62l1.21,1.29a16.43,16.43,0,0,1,2.16,2.77q2.57.15,5.7.25a31.28,31.28,0,0,0-4.83-5.55l-1.38,0Q1120.7,159.88,1117.7,159.59Zm7.69.51a32.93,32.93,0,0,1,4.46,5.48q1.75.06,5.51.12a29.79,29.79,0,0,0-4.33-5.41Zm11.65.33-1.94-.07-2.32-.08a24,24,0,0,1,4,5.46q2.95,0,4.95.1-.42-.45-1.45-1.77t-1.75-2.16A12.63,12.63,0,0,0,1137,160.43Zm5.07,3.93,0-.5q-.11-2.2-.08-3.32l-3.13-.1Q1139.71,161.27,1142.11,164.36Zm8.83,3.93a3.61,3.61,0,0,1-3.07,0,4,4,0,0,1-2.17-2.58,5.22,5.22,0,0,1-.07-3.51,4.89,4.89,0,0,1,2.29-3,4.81,4.81,0,0,1,3.81-.47,4.28,4.28,0,0,1,2.53,2.31,4.74,4.74,0,0,1,.31,3.68,6.39,6.39,0,0,1-2.56,3.52A.91.91,0,0,1,1150.94,168.29Zm-.18-1.95a25.32,25.32,0,0,0-3.12-4.05,4,4,0,0,0-.16,2.88,2.34,2.34,0,0,0,1.14,1.48A2.61,2.61,0,0,0,1150.76,166.34Zm-2.4-5.09a25.77,25.77,0,0,1,3.54,4.57,3.35,3.35,0,0,0,.63-3.93,2.33,2.33,0,0,0-1.43-1.4,2.8,2.8,0,0,0-2.24.39Z"/></g><g class="cls-65"><path class="cls-66" d="M1265.42,156a3.61,3.61,0,0,1,3.07,0,4,4,0,0,1,2.17,2.58,5.22,5.22,0,0,1,.07,3.51,4.89,4.89,0,0,1-2.29,3,4.81,4.81,0,0,1-3.81.47,4.28,4.28,0,0,1-2.53-2.31,4.74,4.74,0,0,1-.31-3.68,6.39,6.39,0,0,1,2.56-3.52A.91.91,0,0,1,1265.42,156Zm2.58,7a25.77,25.77,0,0,1-3.54-4.57,3.35,3.35,0,0,0-.63,3.93,2.33,2.33,0,0,0,1.43,1.4,2.8,2.8,0,0,0,2.24-.39Zm-2.4-5.09a25.32,25.32,0,0,0,3.13,4.05,4,4,0,0,0,.16-2.88,2.34,2.34,0,0,0-1.14-1.48A2.61,2.61,0,0,0,1265.6,157.92Zm44.49.61-.22,6.45a.89.89,0,0,1-.59.86.86.86,0,0,1-.85.91,38.36,38.36,0,0,1-4.45.1q-2.32-.08-5.47-.34t-4.28-.3q-1.69-.18-10.58-.39l-10.52-.26a.83.83,0,0,1-.91-1,.91.91,0,0,1,.21-.56v-.19q0-1.13,0-3.32t-.07-3.51a.83.83,0,0,1,1-.91,1,1,0,0,1,.74.4l10.24.25q9.3.22,10.24.37,1.31,0,4.41.3t5.32.33a34.11,34.11,0,0,0,4.23-.11h.19a1.1,1.1,0,0,1,.5-.11A.83.83,0,0,1,1310.09,158.53Zm-35.84,1.37,0,.5q.11,2.2.08,3.32l3.13.1Q1276.65,163,1274.25,159.9Zm5.07,3.93,1.94.07,2.32.08a24,24,0,0,1-4-5.46q-2.95,0-4.95-.1.42.45,1.45,1.77t1.75,2.16A12.63,12.63,0,0,0,1279.32,163.83Zm11.65.33a32.93,32.93,0,0,1-4.46-5.48q-1.75-.06-5.51-.12a29.79,29.79,0,0,0,4.33,5.41Zm7.69.51q-.48-.58-1.51-1.62l-1.21-1.29a16.43,16.43,0,0,1-2.16-2.77q-2.57-.15-5.7-.25a31.28,31.28,0,0,0,4.83,5.55l1.38,0Q1295.66,164.38,1298.66,164.67Zm7.32.31a55.8,55.8,0,0,0-5.08-5.5q-.81,0-2.72-.19l-2.84-.25a13.68,13.68,0,0,0,1.5,1.87q.37.33,1,1l1.09,1.17q.48.52.84,1a.63.63,0,0,1,.1.76Q1303.6,165,1306,165Zm1.51-.08.5,0,.18-5.32a42.23,42.23,0,0,1-5.33,0A47,47,0,0,1,1307.49,164.9Z"/></g><g class="cls-65"><path class="cls-66" d="M1231.46,109.48a3.61,3.61,0,0,1,1.52-2.67,4,4,0,0,1,3.32-.59,5.22,5.22,0,0,1,3.08,1.7,4.89,4.89,0,0,1,1.45,3.48,4.82,4.82,0,0,1-1.5,3.53,4.27,4.27,0,0,1-3.26,1,4.73,4.73,0,0,1-3.34-1.57,6.39,6.39,0,0,1-1.77-4A.91.91,0,0,1,1231.46,109.48Zm7.39,1.28a25.75,25.75,0,0,1-5.73.79,3.35,3.35,0,0,0,3.08,2.51,2.33,2.33,0,0,0,1.92-.54,2.8,2.8,0,0,0,.78-2.14Zm-5.61-.47a25.24,25.24,0,0,0,5.07-.68,4,4,0,0,0-2.41-1.58,2.33,2.33,0,0,0-1.85.25A2.61,2.61,0,0,0,1233.24,110.29ZM1256,72.07l5.48,3.41a.88.88,0,0,1,.45.94.86.86,0,0,1,.37,1.19,38,38,0,0,1-2.14,3.91q-1.23,2-3,4.57t-2.4,3.56q-1,1.37-5.63,9t-5.49,9a.83.83,0,0,1-1.29.3.91.91,0,0,1-.38-.46l-.16-.1q-1-.6-2.89-1.65t-3.08-1.7a.83.83,0,0,1-.3-1.29,1,1,0,0,1,.72-.44q.5-.8,5.34-8.74t5.44-8.68q.69-1.12,2.47-3.67t2.95-4.44a34.21,34.21,0,0,0,2-3.72l.1-.16a1.11,1.11,0,0,1,.16-.49A.83.83,0,0,1,1256,72.07Zm-10.79,29.29,1-1.65,1.23-2a24,24,0,0,1-6.74.75q-1.5,2.53-2.56,4.23.6-.14,2.26-.37t2.74-.43A12.54,12.54,0,0,0,1245.22,101.37Zm-5.94,2.43.43.26q2,1,2.92,1.6l1.66-2.66Q1243.16,103.26,1239.28,103.79Zm12-12.35a32.9,32.9,0,0,1-7,1.12q-.93,1.49-2.86,4.71a29.76,29.76,0,0,0,6.85-1Zm4.29-6.41q-.74.13-2.16.5l-1.73.4a16.43,16.43,0,0,1-3.48.49q-1.41,2.15-3.07,4.81a31.39,31.39,0,0,0,7.22-1.41l.73-1.17Q1253.87,87.49,1255.62,85Zm3.93-6.19a56,56,0,0,0-7.3,1.65q-.43.69-1.52,2.26t-1.64,2.34a13.51,13.51,0,0,0,2.37-.37q.46-.15,1.33-.35l1.55-.36c.46-.11.88-.19,1.26-.25a.63.63,0,0,1,.71.29Q1258.4,80.93,1259.55,78.85Zm.69-1.34.27-.43L1256,74.26a42.53,42.53,0,0,1-2.66,4.62A46.86,46.86,0,0,1,1260.24,77.5Z"/></g></g></g></g></g></g></svg>