<?xml version="1.0" encoding="utf-8"?>
<!-- Generator: Adobe Illustrator 16.0.0, SVG Export Plug-In . SVG Version: 6.00 Build 0)  -->
<!DOCTYPE svg PUBLIC "-//W3C//DTD SVG 1.1//EN" "http://www.w3.org/Graphics/SVG/1.1/DTD/svg11.dtd">
<svg version="1.1" id="Layer_1" xmlns="http://www.w3.org/2000/svg" xmlns:xlink="http://www.w3.org/1999/xlink" x="0px" y="0px"
	 width="1440px" height="494px" viewBox="0 0 1440 494" enable-background="new 0 0 1440 494" xml:space="preserve">
<g>
	<rect fill="#D4F0EB" width="1440" height="494"/>
	<rect y="127.771" fill="#FFFFFF" width="1440" height="147.541"/>
	<rect x="287.2" y="49.152" fill="#C2C2C1" width="685.6" height="304.781"/>
	<rect x="300.706" y="60.086" fill="#27B59C" width="658.586" height="282.913"/>
	<rect x="263.629" y="353.934" fill="#A4835A" width="732.743" height="17.887"/>
	<text transform="matrix(1 0 0 1 499.3271 199.9453)" fill="#FFFFFF" font-family="'DansHandWriting'" font-size="80">Ask me any</text>
	<text transform="matrix(1 0 0 1 535.8872 262.9063)" fill="#FFFFFF" font-family="'DansHandWriting'" font-size="80">Questions</text>
	<polygon fill="#BBC2C7" points="314.196,388.604 307.765,388.604 283.079,388.604 283.079,427.689 283.079,494 307.765,494 
		307.765,419.01 314.196,419.01 314.196,494 338.882,494 338.882,427.689 338.882,388.604 	"/>
	<g>
		<defs>
			<rect id="SVGID_2_" width="1440" height="494"/>
		</defs>
		<clipPath id="SVGID_1_">
			<use xlink:href="#SVGID_2_"  overflow="visible"/>
		</clipPath>
		<g clip-path="url(#SVGID_1_)">
			<g>
				<defs>
					<rect id="SVGID_4_" x="306.202" y="385.604" width="9.549" height="23.73"/>
				</defs>
				<clipPath id="SVGID_3_">
					<use xlink:href="#SVGID_4_"  overflow="visible"/>
				</clipPath>
				<path clip-path="url(#SVGID_3_)" fill="#BBC2C7" d="M314.304,409.332h-6.655c-0.799,0-1.447-0.648-1.447-1.447v-20.833
					c0-0.8,0.648-1.446,1.447-1.446c0.799,0,1.447,0.646,1.447,1.446v19.388h5.208c0.799,0,1.447,0.646,1.447,1.445
					S315.104,409.332,314.304,409.332"/>
			</g>
		</g>
	</g>
	<rect x="275.647" y="241.188" fill="#634E42" width="70.701" height="54.707"/>
	<rect x="267.471" y="362.619" fill="#AC8558" width="13.095" height="21.123"/>
	<rect x="267.064" y="251.747" fill="#E2EDC1" width="13.502" height="114.634"/>
	<rect x="261.469" y="360.305" fill="#95A073" width="19.097" height="11.807"/>
	<rect x="303.914" y="216.275" fill="#C59966" width="14.134" height="35.472"/>
	<rect x="289.119" y="131.663" fill="#1D1D1B" width="43.725" height="54.678"/>
	<g>
		<defs>
			<rect id="SVGID_6_" width="1440" height="494"/>
		</defs>
		<clipPath id="SVGID_5_">
			<use xlink:href="#SVGID_6_"  overflow="visible"/>
		</clipPath>
		<path clip-path="url(#SVGID_5_)" fill="#1D1D1B" d="M334.164,187.788h-46.366c-0.847,0-1.534-0.647-1.534-1.447v-54.678
			c0-0.8,0.687-1.447,1.534-1.447h46.366c0.847,0,1.534,0.647,1.534,1.447v54.678C335.698,187.141,335.011,187.788,334.164,187.788
			 M289.333,184.895h43.297v-51.785h-43.297V184.895z"/>
		<path clip-path="url(#SVGID_5_)" fill="#C59966" d="M345.669,172.433c0,5.267-4.27,9.537-9.537,9.537
			c-5.268,0-9.538-4.271-9.538-9.537s9.595-14.866,14.862-14.866C345.669,157.566,345.669,157.789,345.669,172.433"/>
		<path clip-path="url(#SVGID_5_)" fill="#C59966" d="M276.293,172.433c0,5.267,4.27,9.537,9.537,9.537
			c5.268,0,9.538-4.271,9.538-9.537s-9.595-14.866-14.862-14.866C276.293,157.566,276.293,157.789,276.293,172.433"/>
		<path clip-path="url(#SVGID_5_)" fill="#C59966" d="M321.567,225.309c-1.99,2.484-4.21,4.516-4.933,4.516h-6.533
			c-2.871,0-6.905-1.985-8.964-4.412l-8.129-9.58c-2.06-2.428-3.745-7.018-3.745-10.2V146.93c0-3.183,2.605-5.787,5.787-5.787
			h31.861c3.183,0,5.787,2.604,5.787,5.787v58.702c0,3.183-1.629,7.819-3.619,10.304L321.567,225.309z"/>
		<polygon clip-path="url(#SVGID_5_)" fill="#C59966" points="341.428,167.234 341.428,171.92 341.428,167.234 341.428,162.549 		
			"/>
		<path clip-path="url(#SVGID_5_)" fill="#B88A5C" d="M341.428,173.366c-0.799,0-1.447-0.647-1.447-1.446v-9.371
			c0-0.799,0.648-1.447,1.447-1.447c0.799,0,1.447,0.648,1.447,1.447v9.371C342.875,172.719,342.228,173.366,341.428,173.366"/>
		<polygon clip-path="url(#SVGID_5_)" fill="#C59966" points="280.566,167.234 280.566,171.92 280.566,167.234 280.566,162.549 		
			"/>
		<path clip-path="url(#SVGID_5_)" fill="#B88A5C" d="M280.566,173.366c-0.799,0-1.447-0.647-1.447-1.446v-9.371
			c0-0.799,0.648-1.447,1.447-1.447c0.799,0,1.447,0.648,1.447,1.447v9.371C282.013,172.719,281.365,173.366,280.566,173.366"/>
		<path clip-path="url(#SVGID_5_)" fill="#B88A5C" d="M328.236,141.143h-3.445v80.144l5.02-6.3
			c1.588-1.871,2.887-7.035,2.887-11.035v-58.346C332.698,143.15,330.69,141.143,328.236,141.143"/>
		<path clip-path="url(#SVGID_5_)" fill="#1D1D1B" d="M313.26,168.682h-4.557c-0.799,0-1.447-0.648-1.447-1.447
			s0.648-1.447,1.447-1.447h4.557c0.799,0,1.447,0.648,1.447,1.447S314.059,168.682,313.26,168.682"/>
		<path clip-path="url(#SVGID_5_)" fill="#1D1D1B" d="M310.981,182.328c-0.799,0-1.447-0.648-1.447-1.447v-5.361
			c0-0.799,0.648-1.447,1.447-1.447c0.799,0,1.447,0.648,1.447,1.447v5.361C312.428,181.68,311.78,182.328,310.981,182.328"/>
		<path clip-path="url(#SVGID_5_)" fill="#1D1D1B" d="M310.981,204.557c-4.16,0-7.544-3.385-7.544-7.545
			c0-0.799,0.648-1.447,1.447-1.447c0.799,0,1.447,0.648,1.447,1.447c0,2.564,2.086,4.65,4.65,4.65s4.65-2.086,4.65-4.65
			c0-0.799,0.648-1.447,1.447-1.447s1.447,0.648,1.447,1.447C318.525,201.172,315.141,204.557,310.981,204.557"/>
		<path clip-path="url(#SVGID_5_)" fill="#1D1D1B" d="M298.986,178.107c-6.158,0-11.169-5.012-11.169-11.169
			c0-6.158,5.011-11.169,11.169-11.169c6.158,0,11.169,5.011,11.169,11.169C310.155,173.096,305.144,178.107,298.986,178.107
			 M298.986,158.664c-4.563,0-8.275,3.711-8.275,8.274s3.712,8.274,8.275,8.274s8.275-3.711,8.275-8.274
			S303.549,158.664,298.986,158.664"/>
		<path clip-path="url(#SVGID_5_)" fill="#1D1D1B" d="M322.977,178.107c-6.158,0-11.169-5.012-11.169-11.169
			c0-6.158,5.011-11.169,11.169-11.169c6.158,0,11.169,5.011,11.169,11.169C334.146,173.096,329.134,178.107,322.977,178.107
			 M322.977,158.664c-4.563,0-8.275,3.711-8.275,8.274s3.712,8.274,8.275,8.274s8.275-3.711,8.275-8.274
			S327.54,158.664,322.977,158.664"/>
		<path clip-path="url(#SVGID_5_)" fill="#1D1D1B" d="M322.977,169.911c-1.476,0-2.677-1.2-2.677-2.677s1.201-2.676,2.677-2.676
			c1.476,0,2.677,1.199,2.677,2.676S324.452,169.911,322.977,169.911 M322.977,167.018c-0.12,0-0.217,0.097-0.217,0.217
			c0,0.119,0.097,0.217,0.217,0.217c0.12,0,0.217-0.098,0.217-0.217C323.193,167.114,323.096,167.018,322.977,167.018"/>
		<path clip-path="url(#SVGID_5_)" fill="#1D1D1B" d="M298.986,169.911c-1.476,0-2.677-1.2-2.677-2.677s1.201-2.676,2.677-2.676
			s2.677,1.199,2.677,2.676S300.462,169.911,298.986,169.911 M298.986,167.018c-0.12,0-0.217,0.097-0.217,0.217
			c0,0.119,0.097,0.217,0.217,0.217c0.12,0,0.217-0.098,0.217-0.217C299.203,167.114,299.105,167.018,298.986,167.018"/>
		<rect x="278.461" y="251.747" clip-path="url(#SVGID_5_)" fill="#9F7A70" width="4.21" height="108.558"/>
		<rect x="280.566" y="251.747" clip-path="url(#SVGID_5_)" fill="#E2EDC1" width="60.862" height="136.858"/>
		<path clip-path="url(#SVGID_5_)" fill="#1D1D1B" d="M310.997,374.801c-0.799,0-1.447-0.647-1.447-1.446v-0.087
			c0-0.799,0.648-1.447,1.447-1.447s1.447,0.648,1.447,1.447v0.087C312.443,374.153,311.795,374.801,310.997,374.801
			 M310.997,366.033c-0.799,0-1.447-0.648-1.447-1.445V364.5c0-0.799,0.648-1.447,1.447-1.447s1.447,0.648,1.447,1.447v0.088
			C312.443,365.385,311.795,366.033,310.997,366.033 M310.997,357.267c-0.799,0-1.447-0.647-1.447-1.447v-0.087
			c0-0.799,0.648-1.445,1.447-1.445s1.447,0.646,1.447,1.445v0.087C312.443,356.619,311.795,357.267,310.997,357.267
			 M310.997,348.498c-0.799,0-1.447-0.646-1.447-1.445v-0.088c0-0.799,0.648-1.446,1.447-1.446s1.447,0.647,1.447,1.446v0.088
			C312.443,347.852,311.795,348.498,310.997,348.498 M310.997,339.731c-0.799,0-1.447-0.647-1.447-1.446v-0.088
			c0-0.799,0.648-1.445,1.447-1.445s1.447,0.646,1.447,1.445v0.088C312.443,339.084,311.795,339.731,310.997,339.731
			 M310.997,330.963c-0.799,0-1.447-0.646-1.447-1.445v-0.088c0-0.799,0.648-1.446,1.447-1.446s1.447,0.647,1.447,1.446v0.088
			C312.443,330.316,311.795,330.963,310.997,330.963 M310.997,322.196c-0.799,0-1.447-0.647-1.447-1.446v-0.086
			c0-0.8,0.648-1.447,1.447-1.447s1.447,0.647,1.447,1.447v0.086C312.443,321.549,311.795,322.196,310.997,322.196 M310.997,313.43
			c-0.799,0-1.447-0.648-1.447-1.447v-0.087c0-0.8,0.648-1.446,1.447-1.446s1.447,0.646,1.447,1.446v0.087
			C312.443,312.781,311.795,313.43,310.997,313.43 M310.997,304.662c-0.799,0-1.447-0.648-1.447-1.447v-0.086
			c0-0.799,0.648-1.447,1.447-1.447s1.447,0.648,1.447,1.447v0.086C312.443,304.014,311.795,304.662,310.997,304.662
			 M310.997,295.895c-0.799,0-1.447-0.648-1.447-1.447v-0.087c0-0.799,0.648-1.446,1.447-1.446s1.447,0.647,1.447,1.446v0.087
			C312.443,295.246,311.795,295.895,310.997,295.895 M310.997,287.127c-0.799,0-1.447-0.647-1.447-1.447v-0.086
			c0-0.799,0.648-1.447,1.447-1.447s1.447,0.648,1.447,1.447v0.086C312.443,286.479,311.795,287.127,310.997,287.127
			 M310.997,278.359c-0.799,0-1.447-0.648-1.447-1.447v-0.086c0-0.8,0.648-1.447,1.447-1.447s1.447,0.647,1.447,1.447v0.086
			C312.443,277.711,311.795,278.359,310.997,278.359"/>
		<path clip-path="url(#SVGID_5_)" fill="#4A3B32" d="M341.474,287.127c-7.883-2.152-13.126-13.43-14.597-19.536
			c-2.208-9.171-2.293-18.817-0.221-26.403h5.582c-3.889,14.238,1.42,37.531,9.162,39.646L341.474,287.127z"/>
		<path clip-path="url(#SVGID_5_)" fill="#4A3B32" d="M280.566,287.127c7.883-2.152,13.126-13.43,14.597-19.536
			c2.208-9.171,2.293-18.817,0.221-26.403h-5.582c3.889,14.238-1.42,37.531-9.162,39.646L280.566,287.127z"/>
		<polygon clip-path="url(#SVGID_5_)" fill="#95A073" points="320.976,251.747 310.98,272.014 300.986,251.747 		"/>
		<path clip-path="url(#SVGID_5_)" fill="#E2EDC1" d="M391.149,301.468c-27.416,0-49.721-22.306-49.721-49.722h13
			c0,20.248,16.473,36.722,36.721,36.722s36.721-16.474,36.721-36.722h13C440.87,279.162,418.565,301.468,391.149,301.468"/>
		<rect x="427.775" y="231.189" clip-path="url(#SVGID_5_)" fill="#AC8558" width="13.095" height="21.123"/>
		<rect x="421.772" y="242.82" clip-path="url(#SVGID_5_)" fill="#95A073" width="23.204" height="11.807"/>
		<rect x="1052.472" y="49.15" clip-path="url(#SVGID_5_)" fill="#C69C6D" width="235.728" height="494.072"/>
		<rect x="1064.57" y="61.501" clip-path="url(#SVGID_5_)" fill="#CEAD8D" width="211.533" height="469.374"/>
		<path clip-path="url(#SVGID_5_)" fill="#F2F2F2" d="M1256.539,294.232c0,6.111-4.63,11.066-10.34,11.066
			c-5.711,0-10.341-4.955-10.341-11.066c0-6.112,4.63-11.067,10.341-11.067C1251.909,283.165,1256.539,288.12,1256.539,294.232"/>
		<path clip-path="url(#SVGID_5_)" fill="#CCCCCC" d="M1251.368,294.232c0,3.056-2.314,5.533-5.169,5.533
			c-2.855,0-5.171-2.478-5.171-5.533c0-3.057,2.315-5.533,5.171-5.533C1249.054,288.699,1251.368,291.176,1251.368,294.232"/>
		<rect x="1126.896" y="108.705" clip-path="url(#SVGID_5_)" fill="#F2F2F2" width="85.092" height="85.092"/>
		<rect x="1126.896" y="251.686" clip-path="url(#SVGID_5_)" fill="#F2F2F2" width="85.092" height="85.092"/>
		<rect x="1126.896" y="398.212" clip-path="url(#SVGID_5_)" fill="#F2F2F2" width="85.092" height="85.093"/>
		<path clip-path="url(#SVGID_5_)" fill="#27B59C" d="M235.734,82.201c0,18.254-14.797,33.051-33.051,33.051
			c-18.252,0-33.049-14.797-33.049-33.051c0-18.252,14.797-33.049,33.049-33.049C220.937,49.152,235.734,63.949,235.734,82.201"/>
		<path clip-path="url(#SVGID_5_)" fill="#F2F2F2" d="M229.488,82.201c0,14.805-12.001,26.805-26.805,26.805
			c-14.803,0-26.804-12-26.804-26.805c0-14.804,12.001-26.805,26.804-26.805C217.487,55.396,229.488,67.397,229.488,82.201"/>
		<path clip-path="url(#SVGID_5_)" fill="#F27892" d="M204.635,82.201c0,1.078-0.874,1.953-1.952,1.953
			c-1.077,0-1.951-0.875-1.951-1.953s0.874-1.951,1.951-1.951C203.761,80.25,204.635,81.123,204.635,82.201"/>
		<path clip-path="url(#SVGID_5_)" fill="#CE3A34" d="M203.708,82.738c0,0.566-0.459,1.025-1.026,1.025
			c-0.565,0-1.024-0.459-1.024-1.025V62.572c0-0.567,0.459-1.027,1.024-1.027c0.567,0,1.026,0.46,1.026,1.027V82.738z"/>
		<path clip-path="url(#SVGID_5_)" fill="#CE3A34" d="M201.837,83.227c-0.395,0-0.716-0.459-0.716-1.025
			c0-0.565,0.321-1.024,0.716-1.024h14.086c0.396,0,0.716,0.459,0.716,1.024c0,0.566-0.32,1.025-0.716,1.025H201.837z"/>
	</g>
</g>
</svg>
