<svg id="Layer_2" data-name="Layer 2" xmlns="http://www.w3.org/2000/svg" xmlns:xlink="http://www.w3.org/1999/xlink" viewBox="0 0 2560 910"><defs><style>.cls-1,.cls-9{fill:none;}.cls-2{clip-path:url(#clip-path);}.cls-3{fill:#eeece0;}.cls-4{fill:#d1d9d3;}.cls-5{fill:#cfc9be;}.cls-6{fill:#aba79f;}.cls-7{fill:#27b59c;}.cls-8{fill:#c59966;}.cls-9{stroke:#f8f8f9;stroke-miterlimit:10;stroke-width:20px;}.cls-10{fill:#fff;}.cls-11{fill:#baa4c5;}.cls-12{fill:#8b7b94;}.cls-13{fill:#c2c2c1;}.cls-14{fill:#1d1d1b;}.cls-15{fill:#b88a5c;}.cls-16{fill:#e8e8e8;}.cls-17{fill:#52c4b0;}.cls-18{fill:#75d0c0;}.cls-19{fill:#0f3041;}.cls-20{fill:#081928;fill-rule:evenodd;}.cls-21{fill:#d45846;}.cls-22{fill:#ea604e;}</style><clipPath id="clip-path"><rect class="cls-1" width="2560" height="910"/></clipPath></defs><title>bannerab</title><g class="cls-2"><rect id="_Rectangle_" data-name="&lt;Rectangle&gt;" class="cls-3" x="-2" y="-3" width="2566" height="914"/><ellipse id="_Path_" data-name="&lt;Path&gt;" class="cls-4" cx="1025.32" cy="553.8" rx="330.69" ry="342.2"/><g id="_Group_" data-name="&lt;Group&gt;"><g id="_Group_2" data-name="&lt;Group&gt;"><rect id="_Rectangle_2" data-name="&lt;Rectangle&gt;" class="cls-5" x="119.62" y="550.36" width="188.9" height="173.56"/><rect id="_Rectangle_3" data-name="&lt;Rectangle&gt;" class="cls-6" x="119.62" y="723.91" width="269.6" height="36.65"/><g id="_Group_3" data-name="&lt;Group&gt;"><rect id="_Rectangle_4" data-name="&lt;Rectangle&gt;" class="cls-6" x="119.62" y="760.56" width="20.89" height="130.31"/><rect id="_Rectangle_5" data-name="&lt;Rectangle&gt;" class="cls-5" x="202.53" y="760.56" width="20.89" height="130.31"/><rect id="_Rectangle_6" data-name="&lt;Rectangle&gt;" class="cls-6" x="285.43" y="760.56" width="20.89" height="130.31"/><rect id="_Rectangle_7" data-name="&lt;Rectangle&gt;" class="cls-5" x="368.34" y="760.56" width="20.89" height="130.31"/></g></g><g id="_Group_4" data-name="&lt;Group&gt;"><rect id="_Rectangle_8" data-name="&lt;Rectangle&gt;" class="cls-5" x="420.48" y="550.36" width="188.9" height="173.56"/><rect id="_Rectangle_9" data-name="&lt;Rectangle&gt;" class="cls-6" x="420.48" y="723.91" width="269.6" height="36.65"/><g id="_Group_5" data-name="&lt;Group&gt;"><rect id="_Rectangle_10" data-name="&lt;Rectangle&gt;" class="cls-6" x="420.48" y="760.56" width="20.89" height="130.31"/><rect id="_Rectangle_11" data-name="&lt;Rectangle&gt;" class="cls-5" x="503.39" y="760.56" width="20.89" height="130.31"/><rect id="_Rectangle_12" data-name="&lt;Rectangle&gt;" class="cls-6" x="586.29" y="760.56" width="20.89" height="130.31"/><rect id="_Rectangle_13" data-name="&lt;Rectangle&gt;" class="cls-5" x="669.2" y="760.56" width="20.89" height="130.31"/></g></g><g id="_Group_6" data-name="&lt;Group&gt;"><g id="_Group_7" data-name="&lt;Group&gt;"><rect id="_Rectangle_14" data-name="&lt;Rectangle&gt;" class="cls-5" x="1751.38" y="550.36" width="188.9" height="173.56" transform="translate(3691.65 1274.27) rotate(-180)"/><rect id="_Rectangle_15" data-name="&lt;Rectangle&gt;" class="cls-6" x="1670.68" y="723.91" width="269.6" height="36.65" transform="translate(3610.95 1484.48) rotate(-180)"/><g id="_Group_8" data-name="&lt;Group&gt;"><rect id="_Rectangle_16" data-name="&lt;Rectangle&gt;" class="cls-6" x="1919.39" y="760.56" width="20.89" height="130.31" transform="translate(3859.67 1651.44) rotate(-180)"/><rect id="_Rectangle_17" data-name="&lt;Rectangle&gt;" class="cls-5" x="1836.48" y="760.56" width="20.89" height="130.31" transform="translate(3693.86 1651.44) rotate(-180)"/><rect id="_Rectangle_18" data-name="&lt;Rectangle&gt;" class="cls-6" x="1753.58" y="760.56" width="20.89" height="130.31" transform="translate(3528.05 1651.44) rotate(-180)"/><rect id="_Rectangle_19" data-name="&lt;Rectangle&gt;" class="cls-5" x="1670.68" y="760.56" width="20.89" height="130.31" transform="translate(3362.24 1651.44) rotate(-180)"/></g></g><g id="_Group_9" data-name="&lt;Group&gt;"><rect id="_Rectangle_20" data-name="&lt;Rectangle&gt;" class="cls-5" x="1450.52" y="550.36" width="188.9" height="173.56" transform="translate(3089.93 1274.27) rotate(-180)"/><rect id="_Rectangle_21" data-name="&lt;Rectangle&gt;" class="cls-6" x="1369.81" y="723.91" width="269.6" height="36.65" transform="translate(3009.23 1484.48) rotate(-180)"/><g id="_Group_10" data-name="&lt;Group&gt;"><rect id="_Rectangle_22" data-name="&lt;Rectangle&gt;" class="cls-6" x="1618.53" y="760.56" width="20.89" height="130.31" transform="translate(3257.94 1651.44) rotate(-180)"/><rect id="_Rectangle_23" data-name="&lt;Rectangle&gt;" class="cls-5" x="1535.62" y="760.56" width="20.89" height="130.31" transform="translate(3092.13 1651.44) rotate(-180)"/><rect id="_Rectangle_24" data-name="&lt;Rectangle&gt;" class="cls-6" x="1452.72" y="760.56" width="20.89" height="130.31" transform="translate(2926.32 1651.44) rotate(-180)"/><rect id="_Rectangle_25" data-name="&lt;Rectangle&gt;" class="cls-5" x="1369.81" y="760.56" width="20.89" height="130.31" transform="translate(2760.51 1651.44) rotate(-180)"/></g></g></g></g><rect id="_Rectangle_26" data-name="&lt;Rectangle&gt;" class="cls-7" x="-2" y="892.09" width="2563" height="28.91"/><g id="_Group_11" data-name="&lt;Group&gt;"><g id="_Group_12" data-name="&lt;Group&gt;"><g id="_Group_13" data-name="&lt;Group&gt;"><polygon id="_Path_2" data-name="&lt;Path&gt;" class="cls-8" points="766.23 262.35 740.81 262.35 740.81 313.81 777.58 313.81 766.23 262.35"/></g><path id="_Path_3" data-name="&lt;Path&gt;" class="cls-9" d="M759.19,311.89c0,57.61,45.13,104.31,100.8,104.31s100.8-46.7,100.8-104.31"/></g><g id="_Group_14" data-name="&lt;Group&gt;"><g id="_Group_15" data-name="&lt;Group&gt;"><polygon id="_Path_4" data-name="&lt;Path&gt;" class="cls-8" points="1284.41 262.35 1309.83 262.35 1309.83 313.81 1273.05 313.81 1284.41 262.35"/></g><path id="_Path_5" data-name="&lt;Path&gt;" class="cls-9" d="M1291.44,311.89c0,57.61-45.13,104.31-100.8,104.31s-100.8-46.7-100.8-104.31"/></g><g id="_Group_16" data-name="&lt;Group&gt;"><g id="_Group_17" data-name="&lt;Group&gt;"><g id="_Group_18" data-name="&lt;Group&gt;"><rect id="_Rectangle_27" data-name="&lt;Rectangle&gt;" class="cls-10" x="974.49" y="831.8" width="44.63" height="65.26"/></g><g id="_Group_19" data-name="&lt;Group&gt;"><rect id="_Rectangle_28" data-name="&lt;Rectangle&gt;" class="cls-10" x="1031.2" y="831.8" width="44.63" height="65.26"/></g><g id="_Group_20" data-name="&lt;Group&gt;"><polygon id="_Path_6" data-name="&lt;Path&gt;" class="cls-11" points="1031.01 607.8 1019.33 607.8 974.49 607.8 974.49 681.26 974.49 855.5 1019.33 855.5 1019.33 664.95 1031.01 664.95 1031.01 855.5 1075.84 855.5 1075.84 681.26 1075.84 607.8 1031.01 607.8"/></g><g id="_Group_21" data-name="&lt;Group&gt;"><path id="_Path_7" data-name="&lt;Path&gt;" class="cls-12" d="M1031.2,649.68h-12.09a2.67,2.67,0,0,1-2.63-2.72V607.8a2.63,2.63,0,1,1,5.26,0v36.44h9.46a2.72,2.72,0,0,1,0,5.44Z"/></g><g id="_Group_22" data-name="&lt;Group&gt;"><g id="_Group_23" data-name="&lt;Group&gt;"><path id="_Path_8" data-name="&lt;Path&gt;" class="cls-13" d="M1061.4,875.16h-15.77a2.72,2.72,0,0,1,0-5.44h15.77a2.72,2.72,0,0,1,0,5.44Z"/></g><g id="_Group_24" data-name="&lt;Group&gt;"><path id="_Path_9" data-name="&lt;Path&gt;" class="cls-13" d="M1061.4,885.07h-15.77a2.72,2.72,0,0,1,0-5.44h15.77a2.72,2.72,0,0,1,0,5.44Z"/></g></g><g id="_Group_25" data-name="&lt;Group&gt;"><g id="_Group_26" data-name="&lt;Group&gt;"><path id="_Path_10" data-name="&lt;Path&gt;" class="cls-13" d="M1004.68,875.16H988.92a2.72,2.72,0,0,1,0-5.44h15.77a2.72,2.72,0,0,1,0,5.44Z"/></g><g id="_Group_27" data-name="&lt;Group&gt;"><path id="_Path_11" data-name="&lt;Path&gt;" class="cls-13" d="M1004.68,885.07H988.92a2.72,2.72,0,0,1,0-5.44h15.77a2.72,2.72,0,0,1,0,5.44Z"/></g></g></g><g id="_Group_28" data-name="&lt;Group&gt;"><polygon id="_Path_12" data-name="&lt;Path&gt;" class="cls-10" points="1076.47 607.8 974.49 607.8 942.95 311.09 1108 311.09 1076.47 607.8"/></g><g id="_Group_29" data-name="&lt;Group&gt;"><rect id="_Rectangle_29" data-name="&lt;Rectangle&gt;" class="cls-8" x="1014.53" y="244.42" width="25.67" height="66.67"/></g><g id="_Group_30" data-name="&lt;Group&gt;"><g id="_Group_31" data-name="&lt;Group&gt;"><path id="_Path_13" data-name="&lt;Path&gt;" class="cls-14" d="M1083.55,150.09c0,29.91-23.65,54.39-52.56,54.39h-7.27c-28.91,0-52.56-24.47-52.56-54.39v-39c0-29.91,23.65-54.39,52.56-54.39H1031c28.91,0,52.56,24.47,52.56,54.39Z"/></g><g id="_Group_32" data-name="&lt;Group&gt;"><path id="_Compound_Path_" data-name="&lt;Compound Path&gt;" class="cls-14" d="M1031,207.2h-7.27c-30.43,0-55.18-25.62-55.18-57.1v-39c0-31.49,24.76-57.1,55.18-57.1H1031c30.43,0,55.18,25.62,55.18,57.1v39C1086.18,181.58,1061.43,207.2,1031,207.2Zm-7.27-147.81c-27.53,0-49.93,23.18-49.93,51.67v39c0,28.49,22.4,51.67,49.93,51.67H1031c27.53,0,49.93-23.18,49.93-51.67v-39c0-28.49-22.4-51.67-49.93-51.67Z"/></g></g><g id="_Group_33" data-name="&lt;Group&gt;"><g id="_Group_34" data-name="&lt;Group&gt;"><g id="_Group_35" data-name="&lt;Group&gt;"><path id="_Path_14" data-name="&lt;Path&gt;" class="cls-8" d="M1100.88,162c0,9.9-7.76,17.93-17.32,17.93s-17.32-8-17.32-17.93,17.43-27.94,27-27.94C1100.88,134.08,1100.88,134.5,1100.88,162Z"/></g><g id="_Group_36" data-name="&lt;Group&gt;"><path id="_Path_15" data-name="&lt;Path&gt;" class="cls-8" d="M953.85,162c0,9.9,7.76,17.93,17.32,17.93s17.32-8,17.32-17.93-17.43-27.94-27-27.94C953.85,134.08,953.85,134.5,953.85,162Z"/></g></g><g id="_Group_37" data-name="&lt;Group&gt;"><path id="_Path_16" data-name="&lt;Path&gt;" class="cls-8" d="M1053.12,261.6c-3.74,4.56-11.07,8.29-16.28,8.29h-19c-5.21,0-12.54-3.73-16.28-8.29l-14.77-18c-3.74-4.56-6.8-13.19-6.8-19.17V114.09a10.73,10.73,0,0,1,10.51-10.88h73.63a10.73,10.73,0,0,1,10.51,10.88V224.42c0,6-3.06,14.61-6.8,19.17Z"/></g><g id="_Group_38" data-name="&lt;Group&gt;"><path id="_Path_17" data-name="&lt;Path&gt;" class="cls-15" d="M1093.17,163.77a2.67,2.67,0,0,1-2.63-2.72V143.44a2.63,2.63,0,1,1,5.26,0v17.61A2.67,2.67,0,0,1,1093.17,163.77Z"/></g><g id="_Group_39" data-name="&lt;Group&gt;"><path id="_Path_18" data-name="&lt;Path&gt;" class="cls-15" d="M961.61,163.77a2.67,2.67,0,0,1-2.63-2.72V143.44a2.63,2.63,0,1,1,5.26,0v17.61A2.67,2.67,0,0,1,961.61,163.77Z"/></g><g id="_Group_40" data-name="&lt;Group&gt;"><path id="_Path_19" data-name="&lt;Path&gt;" class="cls-15" d="M1066.59,103.21h-6.26v149.6l9.12-11.12a27.16,27.16,0,0,0,5.24-14.78V111.6A8.27,8.27,0,0,0,1066.59,103.21Z"/></g><g id="_Group_41" data-name="&lt;Group&gt;"><g id="_Group_42" data-name="&lt;Group&gt;"><path id="_Path_20" data-name="&lt;Path&gt;" class="cls-14" d="M1060.33,139.59h-24a2.72,2.72,0,0,1,0-5.44h24a2.72,2.72,0,0,1,0,5.44Z"/></g><g id="_Group_43" data-name="&lt;Group&gt;"><path id="_Path_21" data-name="&lt;Path&gt;" class="cls-14" d="M1018.44,139.59h-24a2.72,2.72,0,0,1,0-5.44h24a2.72,2.72,0,0,1,0,5.44Z"/></g><g id="_Group_44" data-name="&lt;Group&gt;"><path id="_Path_22" data-name="&lt;Path&gt;" class="cls-14" d="M1036.28,154.3a2.66,2.66,0,0,1-2.61-2.45,2.7,2.7,0,0,1,2.35-3l11.35-1.19a2.65,2.65,0,0,1,2.88,2.43,2.7,2.7,0,0,1-2.35,3l-11.35,1.19Z"/></g><g id="_Group_45" data-name="&lt;Group&gt;"><path id="_Path_23" data-name="&lt;Path&gt;" class="cls-14" d="M1018.44,154.3h-.27l-11.35-1.19a2.7,2.7,0,0,1-2.35-3,2.65,2.65,0,0,1,2.88-2.43l11.35,1.19a2.7,2.7,0,0,1,2.35,3A2.66,2.66,0,0,1,1018.44,154.3Z"/></g><g id="_Group_46" data-name="&lt;Group&gt;"><path id="_Path_24" data-name="&lt;Path&gt;" class="cls-14" d="M1027.36,180.62a2.67,2.67,0,0,1-2.63-2.72V162.38a2.63,2.63,0,1,1,5.26,0V177.9A2.67,2.67,0,0,1,1027.36,180.62Z"/></g><g id="_Group_47" data-name="&lt;Group&gt;"><path id="_Path_25" data-name="&lt;Path&gt;" class="cls-14" d="M1027.36,222.4a14,14,0,0,1-13.7-14.18,2.63,2.63,0,1,1,5.26,0,8.45,8.45,0,1,0,16.89,0,2.63,2.63,0,1,1,5.26,0A14,14,0,0,1,1027.36,222.4Z"/></g></g></g><g id="_Group_48" data-name="&lt;Group&gt;"><polygon id="_Path_26" data-name="&lt;Path&gt;" class="cls-16" points="1072.19 363.57 1027.36 325.5 982.53 363.57 982.53 311.09 1072.19 311.09 1072.19 363.57"/></g><g id="_Group_49" data-name="&lt;Group&gt;"><polygon id="_Path_27" data-name="&lt;Path&gt;" class="cls-17" points="1046.67 556.41 1027.36 572.72 1008.05 556.41 1018.56 346.17 1036.16 346.17 1046.67 556.41"/></g><g id="_Group_50" data-name="&lt;Group&gt;"><ellipse id="_Path_28" data-name="&lt;Path&gt;" class="cls-18" cx="1027.36" cy="337.33" rx="16.16" ry="16.72"/></g></g><g id="_Group_51" data-name="&lt;Group&gt;"><g id="_Group_52" data-name="&lt;Group&gt;"><path id="_Path_29" data-name="&lt;Path&gt;" class="cls-19" d="M947.88,455.82a3.17,3.17,0,1,1-6.32.33l-2.16-41.9a18.82,18.82,0,0,1,4.21-12.16,25.35,25.35,0,0,1,11-8.32l40-14.51a3.14,3.14,0,0,1,4,2,3.3,3.3,0,0,1-1.95,4.17L956.7,400a18.74,18.74,0,0,0-8.11,6.19,12.29,12.29,0,0,0-2.87,7.77Z"/><path id="_Path_30" data-name="&lt;Path&gt;" class="cls-20" d="M944.72,472.58c8.84,0,16-7.46,16-16.6s-7.21-16.6-16-16.6-16,7.46-16,16.6S935.88,472.58,944.72,472.58Z"/><path id="_Path_31" data-name="&lt;Path&gt;" class="cls-20" d="M968.55,385l24.14-8.76a6.49,6.49,0,0,1,8.32,4.14h0a6.83,6.83,0,0,1-4,8.61l-24.14,8.76a6.49,6.49,0,0,1-8.32-4.14h0A6.83,6.83,0,0,1,968.55,385Z"/></g><g id="_Group_53" data-name="&lt;Group&gt;"><g id="_Group_54" data-name="&lt;Group&gt;"><g id="_Group_55" data-name="&lt;Group&gt;"><g id="_Group_56" data-name="&lt;Group&gt;"><polygon id="_Path_32" data-name="&lt;Path&gt;" class="cls-21" points="1026.42 463.46 895.3 463.46 900.04 566.57 1026.42 566.57 1154.69 566.57 1159.42 463.46 1026.42 463.46"/><polygon id="_Path_33" data-name="&lt;Path&gt;" class="cls-22" points="1026.42 451.46 895.3 451.46 895.3 463.46 1026.42 463.46 1159.42 463.46 1159.42 451.46 1026.42 451.46"/></g><g id="_Group_57" data-name="&lt;Group&gt;"><polygon id="_Path_34" data-name="&lt;Path&gt;" class="cls-22" points="1026.42 515.02 935.78 515.02 945.25 881.66 1026.42 881.66 1108.53 881.66 1118.94 515.02 1026.42 515.02"/><polygon id="_Path_35" data-name="&lt;Path&gt;" class="cls-21" points="1026.42 875.72 910.72 875.72 910.72 897.06 1026.42 897.06 1144.01 897.06 1144.01 875.72 1026.42 875.72"/></g></g></g></g></g></g></g></svg>